M48
; DRILL file {KiCad 7.0.11} date Fri Sep 18 21:03:07 2026
; FORMAT={-:-/ absolute / metric / decimal}
; #@! TF.CreationDate,2026-09-18T21:03:07+09:00
; #@! TF.GenerationSoftware,Kicad,Pcbnew,7.0.11
; #@! TF.FileFunction,MixedPlating,1,2
FMAT,2
METRIC
; #@! TA.AperFunction,Plated,PTH,ViaDrill
T1C0.400
; #@! TA.AperFunction,Plated,PTH,ComponentDrill
T2C0.820
; #@! TA.AperFunction,Plated,PTH,ComponentDrill
T3C1.000
; #@! TA.AperFunction,Plated,PTH,ComponentDrill
T4C1.100
; #@! TA.AperFunction,Plated,PTH,ComponentDrill
T5C2.000
; #@! TA.AperFunction,NonPlated,NPTH,ComponentDrill
T6C1.700
; #@! TA.AperFunction,NonPlated,NPTH,ComponentDrill
T7C3.000
; #@! TA.AperFunction,NonPlated,NPTH,ComponentDrill
T8C4.000
%
G90
G05
T1
X117.265Y-63.665
X136.2Y-63.8
X155.405Y-63.605
X165.0Y-90.0
X174.2Y-63.8
X193.4Y-63.6
X200.0Y-90.0
X212.4Y-63.6
X231.4Y-63.8
X235.0Y-90.0
X250.4Y-63.6
T2
X107.03Y-80.38
X107.03Y-95.62
X109.57Y-80.38
X109.57Y-95.62
X112.11Y-80.38
X112.11Y-95.62
X114.65Y-80.38
X114.65Y-95.62
X117.19Y-80.38
X117.19Y-95.62
X119.73Y-80.38
X119.73Y-95.62
X122.27Y-80.38
X122.27Y-95.62
X124.81Y-80.38
X124.81Y-95.62
X127.35Y-80.38
X127.35Y-95.62
X129.89Y-80.38
X129.89Y-95.62
X132.43Y-80.38
X132.43Y-95.62
X134.97Y-80.38
X134.97Y-95.62
T3
X115.1Y-118.5
X117.6Y-118.5
X120.1Y-118.5
X155.1Y-118.5
X157.6Y-118.5
X160.1Y-118.5
X195.1Y-118.5
X197.6Y-118.5
X200.1Y-118.5
X235.1Y-118.5
X237.6Y-118.5
X240.1Y-118.5
T4
X144.0Y-87.5
X144.0Y-92.0
X150.5Y-87.5
X150.5Y-92.0
T6
X107.84Y-67.0
X118.0Y-67.0
X126.92Y-67.0
X137.08Y-67.0
X145.92Y-67.0
X156.08Y-67.0
X164.92Y-67.0
X175.08Y-67.0
X183.92Y-67.0
X194.08Y-67.0
X202.92Y-67.0
X213.08Y-67.0
X221.92Y-67.0
X232.08Y-67.0
X240.92Y-67.0
X251.08Y-67.0
T7
X109.11Y-64.46
X115.46Y-61.92
X128.19Y-64.46
X134.54Y-61.92
X147.19Y-64.46
X153.54Y-61.92
X166.19Y-64.46
X172.54Y-61.92
X185.19Y-64.46
X191.54Y-61.92
X204.19Y-64.46
X210.54Y-61.92
X223.19Y-64.46
X229.54Y-61.92
X242.19Y-64.46
X248.54Y-61.92
T8
X112.92Y-67.0
X132.0Y-67.0
X151.0Y-67.0
X170.0Y-67.0
X189.0Y-67.0
X208.0Y-67.0
X227.0Y-67.0
X246.0Y-67.0
T5
G00X112.0Y-111.25
M15
G01X112.0Y-110.75
M16
G05
G00X123.2Y-111.25
M15
G01X123.2Y-110.75
M16
G05
G00X152.0Y-111.25
M15
G01X152.0Y-110.75
M16
G05
G00X163.2Y-111.25
M15
G01X163.2Y-110.75
M16
G05
G00X192.0Y-111.25
M15
G01X192.0Y-110.75
M16
G05
G00X203.2Y-111.25
M15
G01X203.2Y-110.75
M16
G05
G00X232.0Y-111.25
M15
G01X232.0Y-110.75
M16
G05
G00X243.2Y-111.25
M15
G01X243.2Y-110.75
M16
G05
M30
