%TF.GenerationSoftware,KiCad,Pcbnew,7.0.11*%
%TF.CreationDate,2026-09-18T21:03:02+09:00*%
%TF.ProjectId,KB_Tello,4b425f54-656c-46c6-9f2e-6b696361645f,rev?*%
%TF.SameCoordinates,Original*%
%TF.FileFunction,Copper,L1,Top*%
%TF.FilePolarity,Positive*%
%FSLAX46Y46*%
G04 Gerber Fmt 4.6, Leading zero omitted, Abs format (unit mm)*
G04 Created by KiCad (PCBNEW 7.0.11) date 2026-09-18 21:03:02*
%MOMM*%
%LPD*%
G01*
G04 APERTURE LIST*
%TA.AperFunction,ComponentPad*%
%ADD10R,1.600000X1.600000*%
%TD*%
%TA.AperFunction,ComponentPad*%
%ADD11O,1.600000X2.200000*%
%TD*%
%TA.AperFunction,ComponentPad*%
%ADD12C,2.000000*%
%TD*%
%TA.AperFunction,ComponentPad*%
%ADD13R,2.000000X2.000000*%
%TD*%
%TA.AperFunction,ComponentPad*%
%ADD14R,2.500000X3.000000*%
%TD*%
%TA.AperFunction,ViaPad*%
%ADD15C,0.800000*%
%TD*%
%TA.AperFunction,Conductor*%
%ADD16C,0.254000*%
%TD*%
G04 APERTURE END LIST*
D10*
%TO.P,U1,1,PD3/D1/TXO*%
%TO.N,/D1{slash}TX*%
X107030000Y-95620000D03*
D11*
%TO.P,U1,2,PD2/D0/RXI*%
%TO.N,/D0{slash}RX*%
X109570000Y-95620000D03*
%TO.P,U1,3,GND*%
%TO.N,GND*%
X112110000Y-95620000D03*
%TO.P,U1,4,GND*%
X114650000Y-95620000D03*
%TO.P,U1,5,PD1/D2/SDA*%
%TO.N,/D2{slash}SDA*%
X117190000Y-95620000D03*
%TO.P,U1,6,PD0/D3/SCL*%
%TO.N,/D3{slash}SCL*%
X119730000Y-95620000D03*
%TO.P,U1,7,PD4/D4*%
%TO.N,/D4*%
X122270000Y-95620000D03*
%TO.P,U1,8,PC6/D5*%
%TO.N,/D5*%
X124810000Y-95620000D03*
%TO.P,U1,9,PD7/D6*%
%TO.N,/D6*%
X127350000Y-95620000D03*
%TO.P,U1,10,PE6/D7*%
%TO.N,/D7*%
X129890000Y-95620000D03*
%TO.P,U1,11,PB4/D8*%
%TO.N,/D8*%
X132430000Y-95620000D03*
%TO.P,U1,12,PB5/D9*%
%TO.N,/D9*%
X134970000Y-95620000D03*
%TO.P,U1,13,PB6/D10*%
%TO.N,/D10*%
X134970000Y-80380000D03*
%TO.P,U1,14,PB2/D16/MOSI*%
%TO.N,/D16*%
X132430000Y-80380000D03*
%TO.P,U1,15,PB3/D14/MISO*%
%TO.N,/D14*%
X129890000Y-80380000D03*
%TO.P,U1,16,PB1/D15/SCK*%
%TO.N,/D15*%
X127350000Y-80380000D03*
%TO.P,U1,17,PF7/A0*%
%TO.N,/A0*%
X124810000Y-80380000D03*
%TO.P,U1,18,PF6/A1*%
%TO.N,/A1*%
X122270000Y-80380000D03*
%TO.P,U1,19,PF5/A2*%
%TO.N,/A2*%
X119730000Y-80380000D03*
%TO.P,U1,20,PF4/A3*%
%TO.N,/A3*%
X117190000Y-80380000D03*
%TO.P,U1,21,VCC*%
%TO.N,VCC*%
X114650000Y-80380000D03*
%TO.P,U1,22,RESET*%
%TO.N,/RESET*%
X112110000Y-80380000D03*
%TO.P,U1,23,GND*%
%TO.N,GND*%
X109570000Y-80380000D03*
%TO.P,U1,24,RAW*%
%TO.N,unconnected-(U1-RAW-Pad24)*%
X107030000Y-80380000D03*
%TD*%
D12*
%TO.P,SW1,1,1*%
%TO.N,/RESET*%
X144000000Y-87500000D03*
X150500000Y-87500000D03*
%TO.P,SW1,2,2*%
%TO.N,GND*%
X144000000Y-92000000D03*
X150500000Y-92000000D03*
%TD*%
D13*
%TO.P,SW4,A,A*%
%TO.N,/D6*%
X195100000Y-118500000D03*
D12*
%TO.P,SW4,B,B*%
%TO.N,/D7*%
X200100000Y-118500000D03*
%TO.P,SW4,C,C*%
%TO.N,GND*%
X197600000Y-118500000D03*
D14*
%TO.P,SW4,MP*%
%TO.N,N/C*%
X192000000Y-111000000D03*
X203200000Y-111000000D03*
%TD*%
D13*
%TO.P,SW2,A,A*%
%TO.N,/D2{slash}SDA*%
X115100000Y-118500000D03*
D12*
%TO.P,SW2,B,B*%
%TO.N,/D3{slash}SCL*%
X120100000Y-118500000D03*
%TO.P,SW2,C,C*%
%TO.N,GND*%
X117600000Y-118500000D03*
D14*
%TO.P,SW2,MP*%
%TO.N,N/C*%
X112000000Y-111000000D03*
X123200000Y-111000000D03*
%TD*%
D13*
%TO.P,SW5,A,A*%
%TO.N,/D8*%
X235100000Y-118500000D03*
D12*
%TO.P,SW5,B,B*%
%TO.N,/D9*%
X240100000Y-118500000D03*
%TO.P,SW5,C,C*%
%TO.N,GND*%
X237600000Y-118500000D03*
D14*
%TO.P,SW5,MP*%
%TO.N,N/C*%
X232000000Y-111000000D03*
X243200000Y-111000000D03*
%TD*%
D13*
%TO.P,SW3,A,A*%
%TO.N,/D4*%
X155100000Y-118500000D03*
D12*
%TO.P,SW3,B,B*%
%TO.N,/D5*%
X160100000Y-118500000D03*
%TO.P,SW3,C,C*%
%TO.N,GND*%
X157600000Y-118500000D03*
D14*
%TO.P,SW3,MP*%
%TO.N,N/C*%
X152000000Y-111000000D03*
X163200000Y-111000000D03*
%TD*%
D15*
%TO.N,GND*%
X235000000Y-90000000D03*
X200000000Y-90000000D03*
X165000000Y-90000000D03*
%TO.N,/D10*%
X250400000Y-63600000D03*
%TO.N,/D16*%
X231400000Y-63800000D03*
%TO.N,/D14*%
X212400000Y-63600000D03*
%TO.N,/D15*%
X193400000Y-63600000D03*
%TO.N,/A0*%
X174200000Y-63800000D03*
%TO.N,/A1*%
X155405000Y-63605000D03*
%TO.N,/A2*%
X136200000Y-63800000D03*
%TO.N,/A3*%
X117265000Y-63665000D03*
%TD*%
D16*
%TO.N,/A1*%
X149100000Y-74800000D02*
X154400000Y-69500000D01*
X124200000Y-74800000D02*
X149100000Y-74800000D01*
X154400000Y-64610000D02*
X155405000Y-63605000D01*
X122270000Y-76730000D02*
X124200000Y-74800000D01*
X122270000Y-80380000D02*
X122270000Y-76730000D01*
X154400000Y-69500000D02*
X154400000Y-64610000D01*
%TO.N,/A0*%
X173200000Y-69700000D02*
X173200000Y-64800000D01*
X167500000Y-75400000D02*
X173200000Y-69700000D01*
X126400000Y-75400000D02*
X167500000Y-75400000D01*
X124810000Y-76990000D02*
X126400000Y-75400000D01*
X124810000Y-80380000D02*
X124810000Y-76990000D01*
X173200000Y-64800000D02*
X174200000Y-63800000D01*
%TO.N,/D15*%
X192200000Y-64800000D02*
X193400000Y-63600000D01*
X185900000Y-76000000D02*
X192200000Y-69700000D01*
X127350000Y-77450000D02*
X128800000Y-76000000D01*
X128800000Y-76000000D02*
X185900000Y-76000000D01*
X192200000Y-69700000D02*
X192200000Y-64800000D01*
X127350000Y-80380000D02*
X127350000Y-77450000D01*
%TO.N,/A2*%
X135200000Y-64800000D02*
X136200000Y-63800000D01*
X135200000Y-70600000D02*
X135200000Y-64800000D01*
X131600000Y-74200000D02*
X135200000Y-70600000D01*
X119730000Y-76270000D02*
X121800000Y-74200000D01*
X119730000Y-80380000D02*
X119730000Y-76270000D01*
X121800000Y-74200000D02*
X131600000Y-74200000D01*
%TO.N,/D9*%
X221800000Y-116000000D02*
X237600000Y-116000000D01*
X208000000Y-102200000D02*
X221800000Y-116000000D01*
X138600000Y-102200000D02*
X208000000Y-102200000D01*
X237600000Y-116000000D02*
X240100000Y-118500000D01*
X134970000Y-98570000D02*
X138600000Y-102200000D01*
X134970000Y-95620000D02*
X134970000Y-98570000D01*
%TO.N,/D8*%
X222300000Y-118500000D02*
X235100000Y-118500000D01*
X137000000Y-103600000D02*
X207400000Y-103600000D01*
X132430000Y-99030000D02*
X137000000Y-103600000D01*
X132430000Y-95620000D02*
X132430000Y-99030000D01*
X207400000Y-103600000D02*
X222300000Y-118500000D01*
%TO.N,/D7*%
X167800000Y-105200000D02*
X179000000Y-116400000D01*
X135600000Y-105200000D02*
X167800000Y-105200000D01*
X129890000Y-99490000D02*
X135600000Y-105200000D01*
X179000000Y-116400000D02*
X198000000Y-116400000D01*
X198000000Y-116400000D02*
X200100000Y-118500000D01*
X129890000Y-95620000D02*
X129890000Y-99490000D01*
%TO.N,/D6*%
X134000000Y-106600000D02*
X167200000Y-106600000D01*
X179100000Y-118500000D02*
X195100000Y-118500000D01*
X127350000Y-99950000D02*
X134000000Y-106600000D01*
X167200000Y-106600000D02*
X179100000Y-118500000D01*
X127350000Y-95620000D02*
X127350000Y-99950000D01*
%TO.N,/D5*%
X158200000Y-116600000D02*
X160100000Y-118500000D01*
X124810000Y-101210000D02*
X140200000Y-116600000D01*
X140200000Y-116600000D02*
X158200000Y-116600000D01*
X124810000Y-95620000D02*
X124810000Y-101210000D01*
%TO.N,/D4*%
X138700000Y-118500000D02*
X155100000Y-118500000D01*
X122270000Y-102070000D02*
X138700000Y-118500000D01*
X122270000Y-95620000D02*
X122270000Y-102070000D01*
%TO.N,/D2{slash}SDA*%
X117190000Y-98710000D02*
X115100000Y-100800000D01*
X117190000Y-95620000D02*
X117190000Y-98710000D01*
X115100000Y-118500000D02*
X115100000Y-100800000D01*
%TO.N,/RESET*%
X112110000Y-83910000D02*
X112110000Y-80380000D01*
X115700000Y-87500000D02*
X112110000Y-83910000D01*
X144000000Y-87500000D02*
X115700000Y-87500000D01*
%TO.N,/D10*%
X249000000Y-65000000D02*
X250400000Y-63600000D01*
X249000000Y-69900000D02*
X249000000Y-65000000D01*
X241284000Y-77616000D02*
X249000000Y-69900000D01*
X134970000Y-78630000D02*
X135984000Y-77616000D01*
X135984000Y-77616000D02*
X241284000Y-77616000D01*
X134970000Y-80380000D02*
X134970000Y-78630000D01*
%TO.N,/D16*%
X230200000Y-69700000D02*
X230200000Y-65000000D01*
X230200000Y-65000000D02*
X231400000Y-63800000D01*
X133492000Y-77108000D02*
X222792000Y-77108000D01*
X222792000Y-77108000D02*
X230200000Y-69700000D01*
X132430000Y-78170000D02*
X133492000Y-77108000D01*
X132430000Y-80380000D02*
X132430000Y-78170000D01*
%TO.N,/D14*%
X211200000Y-69700000D02*
X211200000Y-64800000D01*
X204300000Y-76600000D02*
X211200000Y-69700000D01*
X211200000Y-64800000D02*
X212400000Y-63600000D01*
X131000000Y-76600000D02*
X204300000Y-76600000D01*
X129890000Y-77710000D02*
X131000000Y-76600000D01*
X129890000Y-80380000D02*
X129890000Y-77710000D01*
%TO.N,/RESET*%
X150500000Y-87500000D02*
X144000000Y-87500000D01*
%TO.N,/D3{slash}SCL*%
X119730000Y-98030000D02*
X120100000Y-98400000D01*
X119730000Y-95620000D02*
X119730000Y-98030000D01*
X120100000Y-118500000D02*
X120100000Y-98400000D01*
%TO.N,/A3*%
X117190000Y-80380000D02*
X116390001Y-79580001D01*
X116390001Y-79580001D02*
X116390001Y-64539999D01*
X116390001Y-64539999D02*
X117265000Y-63665000D01*
%TD*%
%TA.AperFunction,Conductor*%
%TO.N,GND*%
G36*
X118527864Y-96482278D02*
G01*
X118572382Y-96533655D01*
X118592477Y-96576749D01*
X118723802Y-96764300D01*
X118885700Y-96926198D01*
X119041626Y-97035379D01*
X119085248Y-97089953D01*
X119094500Y-97136951D01*
X119094500Y-97946151D01*
X119092758Y-97961927D01*
X119093026Y-97961953D01*
X119092292Y-97969718D01*
X119094439Y-98038043D01*
X119094500Y-98041938D01*
X119094500Y-98069982D01*
X119095022Y-98074118D01*
X119095937Y-98085749D01*
X119097334Y-98130203D01*
X119097335Y-98130207D01*
X119103057Y-98149905D01*
X119107000Y-98168946D01*
X119109571Y-98189288D01*
X119109574Y-98189303D01*
X119125941Y-98230644D01*
X119129722Y-98241687D01*
X119142130Y-98284391D01*
X119152570Y-98302044D01*
X119161128Y-98319514D01*
X119168679Y-98338585D01*
X119168683Y-98338592D01*
X119194824Y-98374572D01*
X119201231Y-98384325D01*
X119223866Y-98422598D01*
X119223870Y-98422602D01*
X119238364Y-98437096D01*
X119250996Y-98451885D01*
X119263058Y-98468487D01*
X119297323Y-98496833D01*
X119305964Y-98504696D01*
X119428181Y-98626913D01*
X119461666Y-98688236D01*
X119464500Y-98714594D01*
X119464500Y-117050779D01*
X119444815Y-117117818D01*
X119405290Y-117156506D01*
X119210589Y-117275820D01*
X119210586Y-117275821D01*
X119030031Y-117430031D01*
X118898534Y-117583993D01*
X118840027Y-117622186D01*
X118830455Y-117623095D01*
X118083076Y-118370475D01*
X118059493Y-118290156D01*
X117981761Y-118169202D01*
X117873100Y-118075048D01*
X117742315Y-118015320D01*
X117732533Y-118013913D01*
X118470057Y-117276389D01*
X118423229Y-117239943D01*
X118204614Y-117121635D01*
X118204603Y-117121630D01*
X117969493Y-117040916D01*
X117724293Y-117000000D01*
X117475707Y-117000000D01*
X117230506Y-117040916D01*
X116995396Y-117121630D01*
X116995385Y-117121635D01*
X116776768Y-117239944D01*
X116776766Y-117239945D01*
X116727202Y-117278522D01*
X116662207Y-117304163D01*
X116593668Y-117290596D01*
X116551774Y-117254978D01*
X116528915Y-117224442D01*
X116463261Y-117136739D01*
X116346204Y-117049111D01*
X116313806Y-117037027D01*
X116209203Y-116998011D01*
X116148654Y-116991500D01*
X116148638Y-116991500D01*
X115859500Y-116991500D01*
X115792461Y-116971815D01*
X115746706Y-116919011D01*
X115735500Y-116867500D01*
X115735500Y-101114593D01*
X115755185Y-101047554D01*
X115771814Y-101026917D01*
X117580072Y-99218658D01*
X117592461Y-99208735D01*
X117592289Y-99208528D01*
X117598298Y-99203555D01*
X117598303Y-99203553D01*
X117645149Y-99153665D01*
X117647798Y-99150932D01*
X117667638Y-99131094D01*
X117670183Y-99127813D01*
X117677776Y-99118922D01*
X117708217Y-99086506D01*
X117718102Y-99068524D01*
X117728773Y-99052278D01*
X117741349Y-99036067D01*
X117759011Y-98995250D01*
X117764142Y-98984776D01*
X117785569Y-98945803D01*
X117790670Y-98925931D01*
X117796973Y-98907526D01*
X117805117Y-98888708D01*
X117812075Y-98844771D01*
X117814442Y-98833345D01*
X117816741Y-98824393D01*
X117825500Y-98790282D01*
X117825500Y-98769774D01*
X117827027Y-98750374D01*
X117828391Y-98741763D01*
X117830235Y-98730121D01*
X117826050Y-98685848D01*
X117825500Y-98674179D01*
X117825500Y-97136951D01*
X117845185Y-97069912D01*
X117878371Y-97035380D01*
X118034300Y-96926198D01*
X118196198Y-96764300D01*
X118327523Y-96576749D01*
X118347618Y-96533655D01*
X118393790Y-96481215D01*
X118460983Y-96462063D01*
X118527864Y-96482278D01*
G37*
%TD.AperFunction*%
%TA.AperFunction,Conductor*%
G36*
X114314168Y-95376004D02*
G01*
X114255206Y-95491724D01*
X114234889Y-95620000D01*
X114255206Y-95748276D01*
X114314168Y-95863996D01*
X114320172Y-95870000D01*
X112439828Y-95870000D01*
X112445832Y-95863996D01*
X112504794Y-95748276D01*
X112525111Y-95620000D01*
X112504794Y-95491724D01*
X112445832Y-95376004D01*
X112439828Y-95370000D01*
X114320172Y-95370000D01*
X114314168Y-95376004D01*
G37*
%TD.AperFunction*%
%TA.AperFunction,Conductor*%
G36*
X254943039Y-58019685D02*
G01*
X254988794Y-58072489D01*
X255000000Y-58124000D01*
X255000000Y-120876000D01*
X254980315Y-120943039D01*
X254927511Y-120988794D01*
X254876000Y-121000000D01*
X104124000Y-121000000D01*
X104056961Y-120980315D01*
X104011206Y-120927511D01*
X104000000Y-120876000D01*
X104000000Y-112548654D01*
X110241500Y-112548654D01*
X110248011Y-112609202D01*
X110248011Y-112609204D01*
X110299111Y-112746204D01*
X110386739Y-112863261D01*
X110503796Y-112950889D01*
X110640799Y-113001989D01*
X110668050Y-113004918D01*
X110701345Y-113008499D01*
X110701362Y-113008500D01*
X113298638Y-113008500D01*
X113298654Y-113008499D01*
X113325692Y-113005591D01*
X113359201Y-113001989D01*
X113496204Y-112950889D01*
X113613261Y-112863261D01*
X113700889Y-112746204D01*
X113751989Y-112609201D01*
X113755591Y-112575692D01*
X113758499Y-112548654D01*
X113758500Y-112548637D01*
X113758500Y-109451362D01*
X113758499Y-109451345D01*
X113755157Y-109420270D01*
X113751989Y-109390799D01*
X113700889Y-109253796D01*
X113613261Y-109136739D01*
X113496204Y-109049111D01*
X113359203Y-108998011D01*
X113298654Y-108991500D01*
X113298638Y-108991500D01*
X110701362Y-108991500D01*
X110701345Y-108991500D01*
X110640797Y-108998011D01*
X110640795Y-108998011D01*
X110503795Y-109049111D01*
X110386739Y-109136739D01*
X110299111Y-109253795D01*
X110248011Y-109390795D01*
X110248011Y-109390797D01*
X110241500Y-109451345D01*
X110241500Y-112548654D01*
X104000000Y-112548654D01*
X104000000Y-96468654D01*
X105721500Y-96468654D01*
X105728011Y-96529202D01*
X105728011Y-96529204D01*
X105756451Y-96605452D01*
X105779111Y-96666204D01*
X105866739Y-96783261D01*
X105983796Y-96870889D01*
X106120799Y-96921989D01*
X106148050Y-96924918D01*
X106181345Y-96928499D01*
X106181362Y-96928500D01*
X107878638Y-96928500D01*
X107878654Y-96928499D01*
X107905692Y-96925591D01*
X107939201Y-96921989D01*
X108076204Y-96870889D01*
X108193261Y-96783261D01*
X108280889Y-96666204D01*
X108280889Y-96666203D01*
X108286204Y-96659104D01*
X108288139Y-96660552D01*
X108328350Y-96620321D01*
X108396619Y-96605452D01*
X108462090Y-96629852D01*
X108489379Y-96658014D01*
X108495114Y-96666204D01*
X108563802Y-96764300D01*
X108725700Y-96926198D01*
X108913251Y-97057523D01*
X108982798Y-97089953D01*
X109120750Y-97154281D01*
X109120752Y-97154281D01*
X109120757Y-97154284D01*
X109341913Y-97213543D01*
X109504832Y-97227796D01*
X109569998Y-97233498D01*
X109570000Y-97233498D01*
X109570002Y-97233498D01*
X109627021Y-97228509D01*
X109798087Y-97213543D01*
X110019243Y-97154284D01*
X110226749Y-97057523D01*
X110414300Y-96926198D01*
X110576198Y-96764300D01*
X110707523Y-96576749D01*
X110732307Y-96523598D01*
X110778479Y-96471159D01*
X110845672Y-96452007D01*
X110912553Y-96472222D01*
X110957071Y-96523599D01*
X110979864Y-96572479D01*
X110979865Y-96572481D01*
X111110342Y-96758820D01*
X111271179Y-96919657D01*
X111457517Y-97050134D01*
X111663673Y-97146265D01*
X111663682Y-97146269D01*
X111859999Y-97198872D01*
X111860000Y-97198871D01*
X111860000Y-95949828D01*
X111866004Y-95955832D01*
X111981724Y-96014794D01*
X112077731Y-96030000D01*
X112142269Y-96030000D01*
X112238276Y-96014794D01*
X112353996Y-95955832D01*
X112360000Y-95949828D01*
X112360000Y-97198872D01*
X112556317Y-97146269D01*
X112556326Y-97146265D01*
X112762482Y-97050134D01*
X112948820Y-96919657D01*
X113109657Y-96758820D01*
X113240134Y-96572481D01*
X113240135Y-96572479D01*
X113267618Y-96513543D01*
X113313790Y-96461103D01*
X113380983Y-96441951D01*
X113447864Y-96462166D01*
X113492382Y-96513543D01*
X113519864Y-96572479D01*
X113519865Y-96572481D01*
X113650342Y-96758820D01*
X113811179Y-96919657D01*
X113997517Y-97050134D01*
X114203673Y-97146265D01*
X114203682Y-97146269D01*
X114399999Y-97198872D01*
X114400000Y-97198871D01*
X114400000Y-95949828D01*
X114406004Y-95955832D01*
X114521724Y-96014794D01*
X114617731Y-96030000D01*
X114682269Y-96030000D01*
X114778276Y-96014794D01*
X114893996Y-95955832D01*
X114900000Y-95949828D01*
X114900000Y-97198872D01*
X115096317Y-97146269D01*
X115096326Y-97146265D01*
X115302482Y-97050134D01*
X115488820Y-96919657D01*
X115649657Y-96758820D01*
X115780133Y-96572483D01*
X115802927Y-96523600D01*
X115849098Y-96471160D01*
X115916292Y-96452007D01*
X115983173Y-96472221D01*
X116027691Y-96523596D01*
X116052477Y-96576749D01*
X116183802Y-96764300D01*
X116345700Y-96926198D01*
X116501626Y-97035379D01*
X116545248Y-97089953D01*
X116554500Y-97136951D01*
X116554500Y-98395404D01*
X116534815Y-98462443D01*
X116518181Y-98483085D01*
X114709921Y-100291344D01*
X114697531Y-100301272D01*
X114697702Y-100301479D01*
X114691695Y-100306448D01*
X114644898Y-100356281D01*
X114642190Y-100359075D01*
X114622366Y-100378898D01*
X114622365Y-100378900D01*
X114619797Y-100382211D01*
X114612221Y-100391080D01*
X114581782Y-100423495D01*
X114581781Y-100423496D01*
X114571900Y-100441468D01*
X114561225Y-100457719D01*
X114548652Y-100473929D01*
X114548650Y-100473933D01*
X114530987Y-100514748D01*
X114525850Y-100525233D01*
X114504430Y-100564197D01*
X114499329Y-100584064D01*
X114493030Y-100602462D01*
X114484884Y-100621287D01*
X114484881Y-100621296D01*
X114477926Y-100665212D01*
X114475557Y-100676650D01*
X114464500Y-100719710D01*
X114464500Y-100740225D01*
X114462973Y-100759624D01*
X114459765Y-100779877D01*
X114463950Y-100824149D01*
X114464500Y-100835819D01*
X114464500Y-116867500D01*
X114444815Y-116934539D01*
X114392011Y-116980294D01*
X114340500Y-116991500D01*
X114051345Y-116991500D01*
X113990797Y-116998011D01*
X113990795Y-116998011D01*
X113853795Y-117049111D01*
X113736739Y-117136739D01*
X113649111Y-117253795D01*
X113598011Y-117390795D01*
X113598011Y-117390797D01*
X113591500Y-117451345D01*
X113591500Y-119548654D01*
X113598011Y-119609202D01*
X113598011Y-119609204D01*
X113640896Y-119724179D01*
X113649111Y-119746204D01*
X113736739Y-119863261D01*
X113853796Y-119950889D01*
X113990799Y-120001989D01*
X114018050Y-120004918D01*
X114051345Y-120008499D01*
X114051362Y-120008500D01*
X116148638Y-120008500D01*
X116148654Y-120008499D01*
X116175692Y-120005591D01*
X116209201Y-120001989D01*
X116346204Y-119950889D01*
X116463261Y-119863261D01*
X116550889Y-119746204D01*
X116550889Y-119746202D01*
X116551774Y-119745021D01*
X116607707Y-119703149D01*
X116677399Y-119698165D01*
X116727204Y-119721478D01*
X116776763Y-119760052D01*
X116776768Y-119760055D01*
X116995385Y-119878364D01*
X116995396Y-119878369D01*
X117230506Y-119959083D01*
X117475707Y-120000000D01*
X117724293Y-120000000D01*
X117969493Y-119959083D01*
X118204603Y-119878369D01*
X118204614Y-119878364D01*
X118423228Y-119760057D01*
X118423231Y-119760055D01*
X118470056Y-119723609D01*
X117732533Y-118986086D01*
X117742315Y-118984680D01*
X117873100Y-118924952D01*
X117981761Y-118830798D01*
X118059493Y-118709844D01*
X118083076Y-118629524D01*
X118834725Y-119381173D01*
X118860162Y-119385861D01*
X118898533Y-119416005D01*
X119030031Y-119569969D01*
X119169797Y-119689340D01*
X119210586Y-119724178D01*
X119210589Y-119724179D01*
X119413037Y-119848240D01*
X119413040Y-119848242D01*
X119632403Y-119939104D01*
X119632404Y-119939104D01*
X119632406Y-119939105D01*
X119863289Y-119994535D01*
X120100000Y-120013165D01*
X120336711Y-119994535D01*
X120567594Y-119939105D01*
X120567596Y-119939104D01*
X120567597Y-119939104D01*
X120786959Y-119848242D01*
X120786960Y-119848241D01*
X120786963Y-119848240D01*
X120989416Y-119724176D01*
X121169969Y-119569969D01*
X121324176Y-119389416D01*
X121448240Y-119186963D01*
X121467596Y-119140235D01*
X121539104Y-118967597D01*
X121539104Y-118967596D01*
X121539105Y-118967594D01*
X121594535Y-118736711D01*
X121613165Y-118500000D01*
X121594535Y-118263289D01*
X121539105Y-118032406D01*
X121539104Y-118032403D01*
X121539104Y-118032402D01*
X121448242Y-117813040D01*
X121448240Y-117813037D01*
X121324179Y-117610589D01*
X121324178Y-117610586D01*
X121188187Y-117451362D01*
X121169969Y-117430031D01*
X121050596Y-117328076D01*
X120989413Y-117275821D01*
X120989410Y-117275820D01*
X120794710Y-117156506D01*
X120747835Y-117104694D01*
X120735500Y-117050779D01*
X120735500Y-112548654D01*
X121441500Y-112548654D01*
X121448011Y-112609202D01*
X121448011Y-112609204D01*
X121499111Y-112746204D01*
X121586739Y-112863261D01*
X121703796Y-112950889D01*
X121840799Y-113001989D01*
X121868050Y-113004918D01*
X121901345Y-113008499D01*
X121901362Y-113008500D01*
X124498638Y-113008500D01*
X124498654Y-113008499D01*
X124525692Y-113005591D01*
X124559201Y-113001989D01*
X124696204Y-112950889D01*
X124813261Y-112863261D01*
X124900889Y-112746204D01*
X124951989Y-112609201D01*
X124955591Y-112575692D01*
X124958499Y-112548654D01*
X124958500Y-112548637D01*
X124958500Y-109451362D01*
X124958499Y-109451345D01*
X124955157Y-109420270D01*
X124951989Y-109390799D01*
X124900889Y-109253796D01*
X124813261Y-109136739D01*
X124696204Y-109049111D01*
X124559203Y-108998011D01*
X124498654Y-108991500D01*
X124498638Y-108991500D01*
X121901362Y-108991500D01*
X121901345Y-108991500D01*
X121840797Y-108998011D01*
X121840795Y-108998011D01*
X121703795Y-109049111D01*
X121586739Y-109136739D01*
X121499111Y-109253795D01*
X121448011Y-109390795D01*
X121448011Y-109390797D01*
X121441500Y-109451345D01*
X121441500Y-112548654D01*
X120735500Y-112548654D01*
X120735500Y-98483847D01*
X120737241Y-98468067D01*
X120736974Y-98468042D01*
X120737706Y-98460289D01*
X120737708Y-98460281D01*
X120735561Y-98391954D01*
X120735500Y-98388060D01*
X120735500Y-98360024D01*
X120735500Y-98360017D01*
X120734976Y-98355874D01*
X120734061Y-98344240D01*
X120734025Y-98343086D01*
X120732665Y-98299795D01*
X120726941Y-98280093D01*
X120722997Y-98261049D01*
X120720427Y-98240701D01*
X120704051Y-98199340D01*
X120700278Y-98188319D01*
X120687869Y-98145607D01*
X120677427Y-98127951D01*
X120668869Y-98110482D01*
X120661318Y-98091410D01*
X120645749Y-98069982D01*
X120635174Y-98055427D01*
X120628769Y-98045675D01*
X120606138Y-98007407D01*
X120606129Y-98007397D01*
X120591639Y-97992907D01*
X120579000Y-97978110D01*
X120566942Y-97961513D01*
X120566939Y-97961511D01*
X120566939Y-97961510D01*
X120532680Y-97933169D01*
X120524038Y-97925306D01*
X120401818Y-97803085D01*
X120368334Y-97741762D01*
X120365500Y-97715404D01*
X120365500Y-97136951D01*
X120385185Y-97069912D01*
X120418371Y-97035380D01*
X120574300Y-96926198D01*
X120736198Y-96764300D01*
X120867523Y-96576749D01*
X120887618Y-96533655D01*
X120933790Y-96481215D01*
X121000983Y-96462063D01*
X121067864Y-96482278D01*
X121112382Y-96533655D01*
X121132477Y-96576749D01*
X121263802Y-96764300D01*
X121425700Y-96926198D01*
X121581626Y-97035379D01*
X121625248Y-97089953D01*
X121634500Y-97136951D01*
X121634500Y-101986151D01*
X121632758Y-102001927D01*
X121633026Y-102001953D01*
X121632292Y-102009718D01*
X121634439Y-102078032D01*
X121634500Y-102081927D01*
X121634500Y-102109982D01*
X121635022Y-102114118D01*
X121635937Y-102125749D01*
X121637334Y-102170203D01*
X121637335Y-102170207D01*
X121643057Y-102189905D01*
X121647000Y-102208946D01*
X121649571Y-102229288D01*
X121649574Y-102229303D01*
X121665941Y-102270644D01*
X121669722Y-102281687D01*
X121682130Y-102324391D01*
X121692570Y-102342044D01*
X121701128Y-102359514D01*
X121708679Y-102378585D01*
X121708683Y-102378592D01*
X121734824Y-102414572D01*
X121741231Y-102424325D01*
X121763866Y-102462598D01*
X121763870Y-102462602D01*
X121778363Y-102477095D01*
X121791001Y-102491892D01*
X121803057Y-102508487D01*
X121837325Y-102536835D01*
X121845966Y-102544698D01*
X138191342Y-118890075D01*
X138201267Y-118902463D01*
X138201474Y-118902292D01*
X138206444Y-118908300D01*
X138206446Y-118908302D01*
X138206447Y-118908303D01*
X138256281Y-118955100D01*
X138259078Y-118957811D01*
X138278906Y-118977639D01*
X138282183Y-118980181D01*
X138282190Y-118980186D01*
X138291081Y-118987780D01*
X138323487Y-119018211D01*
X138323490Y-119018213D01*
X138323494Y-119018217D01*
X138323497Y-119018219D01*
X138323499Y-119018220D01*
X138341462Y-119028095D01*
X138357724Y-119038776D01*
X138373933Y-119051350D01*
X138414746Y-119069011D01*
X138425227Y-119074145D01*
X138464197Y-119095569D01*
X138464201Y-119095570D01*
X138484054Y-119100667D01*
X138502469Y-119106972D01*
X138521286Y-119115115D01*
X138521289Y-119115115D01*
X138521292Y-119115117D01*
X138565219Y-119122073D01*
X138576650Y-119124441D01*
X138619718Y-119135500D01*
X138640226Y-119135500D01*
X138659623Y-119137026D01*
X138679877Y-119140234D01*
X138679878Y-119140235D01*
X138679878Y-119140234D01*
X138679879Y-119140235D01*
X138699397Y-119138389D01*
X138724152Y-119136050D01*
X138735821Y-119135500D01*
X153467500Y-119135500D01*
X153534539Y-119155185D01*
X153580294Y-119207989D01*
X153591500Y-119259500D01*
X153591500Y-119548654D01*
X153598011Y-119609202D01*
X153598011Y-119609204D01*
X153640896Y-119724179D01*
X153649111Y-119746204D01*
X153736739Y-119863261D01*
X153853796Y-119950889D01*
X153990799Y-120001989D01*
X154018050Y-120004918D01*
X154051345Y-120008499D01*
X154051362Y-120008500D01*
X156148638Y-120008500D01*
X156148654Y-120008499D01*
X156175692Y-120005591D01*
X156209201Y-120001989D01*
X156346204Y-119950889D01*
X156463261Y-119863261D01*
X156550889Y-119746204D01*
X156550889Y-119746202D01*
X156551774Y-119745021D01*
X156607707Y-119703149D01*
X156677399Y-119698165D01*
X156727204Y-119721478D01*
X156776763Y-119760052D01*
X156776768Y-119760055D01*
X156995385Y-119878364D01*
X156995396Y-119878369D01*
X157230506Y-119959083D01*
X157475707Y-120000000D01*
X157724293Y-120000000D01*
X157969493Y-119959083D01*
X158204603Y-119878369D01*
X158204614Y-119878364D01*
X158423228Y-119760057D01*
X158423231Y-119760055D01*
X158470056Y-119723609D01*
X157732533Y-118986086D01*
X157742315Y-118984680D01*
X157873100Y-118924952D01*
X157981761Y-118830798D01*
X158059493Y-118709844D01*
X158083076Y-118629524D01*
X158834725Y-119381173D01*
X158860162Y-119385861D01*
X158898533Y-119416005D01*
X159030031Y-119569969D01*
X159169797Y-119689340D01*
X159210586Y-119724178D01*
X159210589Y-119724179D01*
X159413037Y-119848240D01*
X159413040Y-119848242D01*
X159632403Y-119939104D01*
X159632404Y-119939104D01*
X159632406Y-119939105D01*
X159863289Y-119994535D01*
X160100000Y-120013165D01*
X160336711Y-119994535D01*
X160567594Y-119939105D01*
X160567596Y-119939104D01*
X160567597Y-119939104D01*
X160786959Y-119848242D01*
X160786960Y-119848241D01*
X160786963Y-119848240D01*
X160989416Y-119724176D01*
X161169969Y-119569969D01*
X161324176Y-119389416D01*
X161448240Y-119186963D01*
X161467596Y-119140235D01*
X161539104Y-118967597D01*
X161539104Y-118967596D01*
X161539105Y-118967594D01*
X161594535Y-118736711D01*
X161613165Y-118500000D01*
X161594535Y-118263289D01*
X161539105Y-118032406D01*
X161539104Y-118032403D01*
X161539104Y-118032402D01*
X161448242Y-117813040D01*
X161448240Y-117813037D01*
X161324179Y-117610589D01*
X161324178Y-117610586D01*
X161188187Y-117451362D01*
X161169969Y-117430031D01*
X161050596Y-117328076D01*
X160989413Y-117275821D01*
X160989410Y-117275820D01*
X160786962Y-117151759D01*
X160786959Y-117151757D01*
X160567596Y-117060895D01*
X160336714Y-117005465D01*
X160100000Y-116986835D01*
X159863289Y-117005465D01*
X159863285Y-117005465D01*
X159863284Y-117005466D01*
X159641239Y-117058773D01*
X159571457Y-117055282D01*
X159524612Y-117025880D01*
X159138967Y-116640235D01*
X158708658Y-116209925D01*
X158698732Y-116197535D01*
X158698525Y-116197707D01*
X158693552Y-116191696D01*
X158643718Y-116144899D01*
X158640918Y-116142185D01*
X158621098Y-116122365D01*
X158621094Y-116122361D01*
X158617796Y-116119803D01*
X158608915Y-116112217D01*
X158576509Y-116081785D01*
X158576501Y-116081780D01*
X158558540Y-116071906D01*
X158542274Y-116061222D01*
X158526064Y-116048648D01*
X158485252Y-116030987D01*
X158474763Y-116025849D01*
X158435805Y-116004432D01*
X158435804Y-116004431D01*
X158435803Y-116004431D01*
X158415937Y-115999330D01*
X158397538Y-115993030D01*
X158378709Y-115984883D01*
X158378708Y-115984882D01*
X158334788Y-115977926D01*
X158323352Y-115975558D01*
X158280282Y-115964500D01*
X158259774Y-115964500D01*
X158240376Y-115962973D01*
X158229769Y-115961293D01*
X158220122Y-115959765D01*
X158220121Y-115959764D01*
X158175848Y-115963950D01*
X158164179Y-115964500D01*
X140514595Y-115964500D01*
X140447556Y-115944815D01*
X140426914Y-115928181D01*
X137047387Y-112548654D01*
X150241500Y-112548654D01*
X150248011Y-112609202D01*
X150248011Y-112609204D01*
X150299111Y-112746204D01*
X150386739Y-112863261D01*
X150503796Y-112950889D01*
X150640799Y-113001989D01*
X150668050Y-113004918D01*
X150701345Y-113008499D01*
X150701362Y-113008500D01*
X153298638Y-113008500D01*
X153298654Y-113008499D01*
X153325692Y-113005591D01*
X153359201Y-113001989D01*
X153496204Y-112950889D01*
X153613261Y-112863261D01*
X153700889Y-112746204D01*
X153751989Y-112609201D01*
X153755591Y-112575692D01*
X153758499Y-112548654D01*
X161441500Y-112548654D01*
X161448011Y-112609202D01*
X161448011Y-112609204D01*
X161499111Y-112746204D01*
X161586739Y-112863261D01*
X161703796Y-112950889D01*
X161840799Y-113001989D01*
X161868050Y-113004918D01*
X161901345Y-113008499D01*
X161901362Y-113008500D01*
X164498638Y-113008500D01*
X164498654Y-113008499D01*
X164525692Y-113005591D01*
X164559201Y-113001989D01*
X164696204Y-112950889D01*
X164813261Y-112863261D01*
X164900889Y-112746204D01*
X164951989Y-112609201D01*
X164955591Y-112575692D01*
X164958499Y-112548654D01*
X164958500Y-112548637D01*
X164958500Y-109451362D01*
X164958499Y-109451345D01*
X164955157Y-109420270D01*
X164951989Y-109390799D01*
X164900889Y-109253796D01*
X164813261Y-109136739D01*
X164696204Y-109049111D01*
X164559203Y-108998011D01*
X164498654Y-108991500D01*
X164498638Y-108991500D01*
X161901362Y-108991500D01*
X161901345Y-108991500D01*
X161840797Y-108998011D01*
X161840795Y-108998011D01*
X161703795Y-109049111D01*
X161586739Y-109136739D01*
X161499111Y-109253795D01*
X161448011Y-109390795D01*
X161448011Y-109390797D01*
X161441500Y-109451345D01*
X161441500Y-112548654D01*
X153758499Y-112548654D01*
X153758500Y-112548637D01*
X153758500Y-109451362D01*
X153758499Y-109451345D01*
X153755157Y-109420270D01*
X153751989Y-109390799D01*
X153700889Y-109253796D01*
X153613261Y-109136739D01*
X153496204Y-109049111D01*
X153359203Y-108998011D01*
X153298654Y-108991500D01*
X153298638Y-108991500D01*
X150701362Y-108991500D01*
X150701345Y-108991500D01*
X150640797Y-108998011D01*
X150640795Y-108998011D01*
X150503795Y-109049111D01*
X150386739Y-109136739D01*
X150299111Y-109253795D01*
X150248011Y-109390795D01*
X150248011Y-109390797D01*
X150241500Y-109451345D01*
X150241500Y-112548654D01*
X137047387Y-112548654D01*
X125481819Y-100983086D01*
X125448334Y-100921763D01*
X125445500Y-100895405D01*
X125445500Y-97136951D01*
X125465185Y-97069912D01*
X125498371Y-97035380D01*
X125654300Y-96926198D01*
X125816198Y-96764300D01*
X125947523Y-96576749D01*
X125967618Y-96533655D01*
X126013790Y-96481215D01*
X126080983Y-96462063D01*
X126147864Y-96482278D01*
X126192382Y-96533655D01*
X126212477Y-96576749D01*
X126343802Y-96764300D01*
X126505700Y-96926198D01*
X126661626Y-97035379D01*
X126705248Y-97089953D01*
X126714500Y-97136951D01*
X126714500Y-99866151D01*
X126712758Y-99881927D01*
X126713026Y-99881953D01*
X126712292Y-99889718D01*
X126714439Y-99958043D01*
X126714500Y-99961938D01*
X126714500Y-99989982D01*
X126715022Y-99994118D01*
X126715937Y-100005749D01*
X126717334Y-100050203D01*
X126717335Y-100050207D01*
X126723057Y-100069905D01*
X126727000Y-100088946D01*
X126729571Y-100109288D01*
X126729574Y-100109303D01*
X126745941Y-100150644D01*
X126749722Y-100161687D01*
X126762130Y-100204391D01*
X126772570Y-100222044D01*
X126781128Y-100239514D01*
X126788679Y-100258585D01*
X126788683Y-100258592D01*
X126814824Y-100294572D01*
X126821231Y-100304325D01*
X126843866Y-100342598D01*
X126843870Y-100342602D01*
X126858363Y-100357095D01*
X126871001Y-100371892D01*
X126883057Y-100388487D01*
X126917325Y-100416835D01*
X126925966Y-100424698D01*
X133491339Y-106990071D01*
X133501269Y-107002465D01*
X133501476Y-107002295D01*
X133506443Y-107008300D01*
X133556296Y-107055114D01*
X133559096Y-107057828D01*
X133578904Y-107077637D01*
X133582184Y-107080181D01*
X133591066Y-107087766D01*
X133623494Y-107118217D01*
X133641470Y-107128099D01*
X133657716Y-107138770D01*
X133673933Y-107151349D01*
X133714756Y-107169014D01*
X133725223Y-107174143D01*
X133740168Y-107182359D01*
X133764192Y-107195567D01*
X133764194Y-107195567D01*
X133764197Y-107195569D01*
X133784066Y-107200670D01*
X133802462Y-107206968D01*
X133821292Y-107215117D01*
X133865219Y-107222073D01*
X133876650Y-107224441D01*
X133919718Y-107235500D01*
X133940226Y-107235500D01*
X133959623Y-107237026D01*
X133979877Y-107240234D01*
X133979878Y-107240235D01*
X133979878Y-107240234D01*
X133979879Y-107240235D01*
X133999397Y-107238389D01*
X134024152Y-107236050D01*
X134035821Y-107235500D01*
X166885406Y-107235500D01*
X166952445Y-107255185D01*
X166973087Y-107271819D01*
X178591339Y-118890071D01*
X178601269Y-118902465D01*
X178601476Y-118902295D01*
X178606443Y-118908300D01*
X178656296Y-118955114D01*
X178659096Y-118957828D01*
X178678904Y-118977637D01*
X178682184Y-118980181D01*
X178691066Y-118987766D01*
X178723494Y-119018217D01*
X178741470Y-119028099D01*
X178757716Y-119038770D01*
X178773933Y-119051349D01*
X178814756Y-119069014D01*
X178825223Y-119074143D01*
X178840168Y-119082359D01*
X178864192Y-119095567D01*
X178864194Y-119095567D01*
X178864197Y-119095569D01*
X178884066Y-119100670D01*
X178902462Y-119106968D01*
X178921292Y-119115117D01*
X178965219Y-119122073D01*
X178976650Y-119124441D01*
X179019718Y-119135500D01*
X179040226Y-119135500D01*
X179059623Y-119137026D01*
X179079877Y-119140234D01*
X179079878Y-119140235D01*
X179079878Y-119140234D01*
X179079879Y-119140235D01*
X179099397Y-119138389D01*
X179124152Y-119136050D01*
X179135821Y-119135500D01*
X193467500Y-119135500D01*
X193534539Y-119155185D01*
X193580294Y-119207989D01*
X193591500Y-119259500D01*
X193591500Y-119548654D01*
X193598011Y-119609202D01*
X193598011Y-119609204D01*
X193640896Y-119724179D01*
X193649111Y-119746204D01*
X193736739Y-119863261D01*
X193853796Y-119950889D01*
X193990799Y-120001989D01*
X194018050Y-120004918D01*
X194051345Y-120008499D01*
X194051362Y-120008500D01*
X196148638Y-120008500D01*
X196148654Y-120008499D01*
X196175692Y-120005591D01*
X196209201Y-120001989D01*
X196346204Y-119950889D01*
X196463261Y-119863261D01*
X196550889Y-119746204D01*
X196550889Y-119746202D01*
X196551774Y-119745021D01*
X196607707Y-119703149D01*
X196677399Y-119698165D01*
X196727204Y-119721478D01*
X196776763Y-119760052D01*
X196776768Y-119760055D01*
X196995385Y-119878364D01*
X196995396Y-119878369D01*
X197230506Y-119959083D01*
X197475707Y-120000000D01*
X197724293Y-120000000D01*
X197969493Y-119959083D01*
X198204603Y-119878369D01*
X198204614Y-119878364D01*
X198423228Y-119760057D01*
X198423231Y-119760055D01*
X198470056Y-119723609D01*
X197732533Y-118986086D01*
X197742315Y-118984680D01*
X197873100Y-118924952D01*
X197981761Y-118830798D01*
X198059493Y-118709844D01*
X198083076Y-118629524D01*
X198834725Y-119381173D01*
X198860162Y-119385861D01*
X198898533Y-119416005D01*
X199030031Y-119569969D01*
X199169797Y-119689340D01*
X199210586Y-119724178D01*
X199210589Y-119724179D01*
X199413037Y-119848240D01*
X199413040Y-119848242D01*
X199632403Y-119939104D01*
X199632404Y-119939104D01*
X199632406Y-119939105D01*
X199863289Y-119994535D01*
X200100000Y-120013165D01*
X200336711Y-119994535D01*
X200567594Y-119939105D01*
X200567596Y-119939104D01*
X200567597Y-119939104D01*
X200786959Y-119848242D01*
X200786960Y-119848241D01*
X200786963Y-119848240D01*
X200989416Y-119724176D01*
X201169969Y-119569969D01*
X201324176Y-119389416D01*
X201448240Y-119186963D01*
X201467596Y-119140235D01*
X201539104Y-118967597D01*
X201539104Y-118967596D01*
X201539105Y-118967594D01*
X201594535Y-118736711D01*
X201613165Y-118500000D01*
X201594535Y-118263289D01*
X201539105Y-118032406D01*
X201539104Y-118032403D01*
X201539104Y-118032402D01*
X201448242Y-117813040D01*
X201448240Y-117813037D01*
X201324179Y-117610589D01*
X201324178Y-117610586D01*
X201188187Y-117451362D01*
X201169969Y-117430031D01*
X201050596Y-117328076D01*
X200989413Y-117275821D01*
X200989410Y-117275820D01*
X200786962Y-117151759D01*
X200786959Y-117151757D01*
X200567596Y-117060895D01*
X200336714Y-117005465D01*
X200100000Y-116986835D01*
X199863285Y-117005465D01*
X199641241Y-117058773D01*
X199571458Y-117055282D01*
X199524613Y-117025880D01*
X198508658Y-116009925D01*
X198498732Y-115997535D01*
X198498525Y-115997707D01*
X198493552Y-115991696D01*
X198443718Y-115944899D01*
X198440918Y-115942185D01*
X198421098Y-115922365D01*
X198421094Y-115922361D01*
X198417796Y-115919803D01*
X198408915Y-115912217D01*
X198376509Y-115881785D01*
X198376501Y-115881780D01*
X198358540Y-115871906D01*
X198342274Y-115861222D01*
X198326064Y-115848648D01*
X198285252Y-115830987D01*
X198274763Y-115825849D01*
X198235805Y-115804432D01*
X198235804Y-115804431D01*
X198235803Y-115804431D01*
X198215937Y-115799330D01*
X198197538Y-115793030D01*
X198178709Y-115784883D01*
X198178708Y-115784882D01*
X198134788Y-115777926D01*
X198123352Y-115775558D01*
X198080282Y-115764500D01*
X198059774Y-115764500D01*
X198040376Y-115762973D01*
X198029769Y-115761293D01*
X198020122Y-115759765D01*
X198020121Y-115759764D01*
X197975848Y-115763950D01*
X197964179Y-115764500D01*
X179314594Y-115764500D01*
X179247555Y-115744815D01*
X179226913Y-115728181D01*
X176047386Y-112548654D01*
X190241500Y-112548654D01*
X190248011Y-112609202D01*
X190248011Y-112609204D01*
X190299111Y-112746204D01*
X190386739Y-112863261D01*
X190503796Y-112950889D01*
X190640799Y-113001989D01*
X190668050Y-113004918D01*
X190701345Y-113008499D01*
X190701362Y-113008500D01*
X193298638Y-113008500D01*
X193298654Y-113008499D01*
X193325692Y-113005591D01*
X193359201Y-113001989D01*
X193496204Y-112950889D01*
X193613261Y-112863261D01*
X193700889Y-112746204D01*
X193751989Y-112609201D01*
X193755591Y-112575692D01*
X193758499Y-112548654D01*
X201441500Y-112548654D01*
X201448011Y-112609202D01*
X201448011Y-112609204D01*
X201499111Y-112746204D01*
X201586739Y-112863261D01*
X201703796Y-112950889D01*
X201840799Y-113001989D01*
X201868050Y-113004918D01*
X201901345Y-113008499D01*
X201901362Y-113008500D01*
X204498638Y-113008500D01*
X204498654Y-113008499D01*
X204525692Y-113005591D01*
X204559201Y-113001989D01*
X204696204Y-112950889D01*
X204813261Y-112863261D01*
X204900889Y-112746204D01*
X204951989Y-112609201D01*
X204955591Y-112575692D01*
X204958499Y-112548654D01*
X204958500Y-112548637D01*
X204958500Y-109451362D01*
X204958499Y-109451345D01*
X204955157Y-109420270D01*
X204951989Y-109390799D01*
X204900889Y-109253796D01*
X204813261Y-109136739D01*
X204696204Y-109049111D01*
X204559203Y-108998011D01*
X204498654Y-108991500D01*
X204498638Y-108991500D01*
X201901362Y-108991500D01*
X201901345Y-108991500D01*
X201840797Y-108998011D01*
X201840795Y-108998011D01*
X201703795Y-109049111D01*
X201586739Y-109136739D01*
X201499111Y-109253795D01*
X201448011Y-109390795D01*
X201448011Y-109390797D01*
X201441500Y-109451345D01*
X201441500Y-112548654D01*
X193758499Y-112548654D01*
X193758500Y-112548637D01*
X193758500Y-109451362D01*
X193758499Y-109451345D01*
X193755157Y-109420270D01*
X193751989Y-109390799D01*
X193700889Y-109253796D01*
X193613261Y-109136739D01*
X193496204Y-109049111D01*
X193359203Y-108998011D01*
X193298654Y-108991500D01*
X193298638Y-108991500D01*
X190701362Y-108991500D01*
X190701345Y-108991500D01*
X190640797Y-108998011D01*
X190640795Y-108998011D01*
X190503795Y-109049111D01*
X190386739Y-109136739D01*
X190299111Y-109253795D01*
X190248011Y-109390795D01*
X190248011Y-109390797D01*
X190241500Y-109451345D01*
X190241500Y-112548654D01*
X176047386Y-112548654D01*
X168308658Y-104809925D01*
X168298732Y-104797535D01*
X168298525Y-104797707D01*
X168293552Y-104791696D01*
X168243718Y-104744899D01*
X168240918Y-104742185D01*
X168221098Y-104722365D01*
X168221094Y-104722361D01*
X168217796Y-104719803D01*
X168208915Y-104712217D01*
X168176509Y-104681785D01*
X168176501Y-104681780D01*
X168158540Y-104671906D01*
X168142274Y-104661222D01*
X168126064Y-104648648D01*
X168085252Y-104630987D01*
X168074763Y-104625849D01*
X168035805Y-104604432D01*
X168035804Y-104604431D01*
X168035803Y-104604431D01*
X168015937Y-104599330D01*
X167997538Y-104593030D01*
X167978709Y-104584883D01*
X167978708Y-104584882D01*
X167934788Y-104577926D01*
X167923352Y-104575558D01*
X167880282Y-104564500D01*
X167859774Y-104564500D01*
X167840376Y-104562973D01*
X167829769Y-104561293D01*
X167820122Y-104559765D01*
X167820121Y-104559764D01*
X167775848Y-104563950D01*
X167764179Y-104564500D01*
X135914595Y-104564500D01*
X135847556Y-104544815D01*
X135826914Y-104528181D01*
X130561819Y-99263086D01*
X130528334Y-99201763D01*
X130525500Y-99175405D01*
X130525500Y-97136951D01*
X130545185Y-97069912D01*
X130578371Y-97035380D01*
X130734300Y-96926198D01*
X130896198Y-96764300D01*
X131027523Y-96576749D01*
X131047618Y-96533655D01*
X131093790Y-96481215D01*
X131160983Y-96462063D01*
X131227864Y-96482278D01*
X131272382Y-96533655D01*
X131292477Y-96576749D01*
X131423802Y-96764300D01*
X131585700Y-96926198D01*
X131741626Y-97035379D01*
X131785248Y-97089953D01*
X131794500Y-97136951D01*
X131794500Y-98946151D01*
X131792758Y-98961927D01*
X131793026Y-98961953D01*
X131792292Y-98969718D01*
X131794439Y-99038043D01*
X131794500Y-99041938D01*
X131794500Y-99069982D01*
X131795022Y-99074118D01*
X131795937Y-99085749D01*
X131797334Y-99130203D01*
X131797335Y-99130207D01*
X131803057Y-99149905D01*
X131807000Y-99168946D01*
X131809571Y-99189288D01*
X131809574Y-99189303D01*
X131825941Y-99230644D01*
X131829722Y-99241687D01*
X131842130Y-99284391D01*
X131852570Y-99302044D01*
X131861128Y-99319514D01*
X131868679Y-99338585D01*
X131868683Y-99338592D01*
X131894824Y-99374572D01*
X131901231Y-99384325D01*
X131923866Y-99422598D01*
X131923870Y-99422602D01*
X131938363Y-99437095D01*
X131951001Y-99451892D01*
X131963057Y-99468487D01*
X131997325Y-99496835D01*
X132005966Y-99504698D01*
X136491342Y-103990075D01*
X136501267Y-104002463D01*
X136501474Y-104002292D01*
X136506444Y-104008300D01*
X136556281Y-104055100D01*
X136559078Y-104057811D01*
X136578906Y-104077639D01*
X136582190Y-104080186D01*
X136591081Y-104087780D01*
X136623487Y-104118211D01*
X136623490Y-104118213D01*
X136623494Y-104118217D01*
X136623497Y-104118219D01*
X136623499Y-104118220D01*
X136641462Y-104128095D01*
X136657724Y-104138776D01*
X136673933Y-104151350D01*
X136714746Y-104169011D01*
X136725227Y-104174145D01*
X136764197Y-104195569D01*
X136764201Y-104195570D01*
X136784054Y-104200667D01*
X136802469Y-104206972D01*
X136821286Y-104215115D01*
X136821289Y-104215115D01*
X136821292Y-104215117D01*
X136865219Y-104222073D01*
X136876650Y-104224441D01*
X136919718Y-104235500D01*
X136940226Y-104235500D01*
X136959623Y-104237026D01*
X136979877Y-104240234D01*
X136979878Y-104240235D01*
X136979878Y-104240234D01*
X136979879Y-104240235D01*
X136999397Y-104238389D01*
X137024152Y-104236050D01*
X137035821Y-104235500D01*
X207085406Y-104235500D01*
X207152445Y-104255185D01*
X207173087Y-104271819D01*
X221791342Y-118890075D01*
X221801267Y-118902463D01*
X221801474Y-118902292D01*
X221806444Y-118908300D01*
X221806446Y-118908302D01*
X221806447Y-118908303D01*
X221856281Y-118955100D01*
X221859078Y-118957811D01*
X221878908Y-118977641D01*
X221882187Y-118980184D01*
X221891082Y-118987780D01*
X221923490Y-119018214D01*
X221923497Y-119018219D01*
X221941459Y-119028093D01*
X221957723Y-119038775D01*
X221973933Y-119051349D01*
X222014756Y-119069014D01*
X222025223Y-119074143D01*
X222040168Y-119082359D01*
X222064192Y-119095567D01*
X222064194Y-119095567D01*
X222064197Y-119095569D01*
X222084066Y-119100670D01*
X222102462Y-119106968D01*
X222121292Y-119115117D01*
X222165219Y-119122073D01*
X222176650Y-119124441D01*
X222219718Y-119135500D01*
X222240226Y-119135500D01*
X222259623Y-119137026D01*
X222279877Y-119140234D01*
X222279878Y-119140235D01*
X222279878Y-119140234D01*
X222279879Y-119140235D01*
X222299397Y-119138389D01*
X222324152Y-119136050D01*
X222335821Y-119135500D01*
X233467500Y-119135500D01*
X233534539Y-119155185D01*
X233580294Y-119207989D01*
X233591500Y-119259500D01*
X233591500Y-119548654D01*
X233598011Y-119609202D01*
X233598011Y-119609204D01*
X233640896Y-119724179D01*
X233649111Y-119746204D01*
X233736739Y-119863261D01*
X233853796Y-119950889D01*
X233990799Y-120001989D01*
X234018050Y-120004918D01*
X234051345Y-120008499D01*
X234051362Y-120008500D01*
X236148638Y-120008500D01*
X236148654Y-120008499D01*
X236175692Y-120005591D01*
X236209201Y-120001989D01*
X236346204Y-119950889D01*
X236463261Y-119863261D01*
X236550889Y-119746204D01*
X236550889Y-119746202D01*
X236551774Y-119745021D01*
X236607707Y-119703149D01*
X236677399Y-119698165D01*
X236727204Y-119721478D01*
X236776763Y-119760052D01*
X236776768Y-119760055D01*
X236995385Y-119878364D01*
X236995396Y-119878369D01*
X237230506Y-119959083D01*
X237475707Y-120000000D01*
X237724293Y-120000000D01*
X237969493Y-119959083D01*
X238204603Y-119878369D01*
X238204614Y-119878364D01*
X238423228Y-119760057D01*
X238423231Y-119760055D01*
X238470056Y-119723609D01*
X237732533Y-118986086D01*
X237742315Y-118984680D01*
X237873100Y-118924952D01*
X237981761Y-118830798D01*
X238059493Y-118709844D01*
X238083076Y-118629524D01*
X238834725Y-119381173D01*
X238860162Y-119385861D01*
X238898533Y-119416005D01*
X239030031Y-119569969D01*
X239169797Y-119689340D01*
X239210586Y-119724178D01*
X239210589Y-119724179D01*
X239413037Y-119848240D01*
X239413040Y-119848242D01*
X239632403Y-119939104D01*
X239632404Y-119939104D01*
X239632406Y-119939105D01*
X239863289Y-119994535D01*
X240100000Y-120013165D01*
X240336711Y-119994535D01*
X240567594Y-119939105D01*
X240567596Y-119939104D01*
X240567597Y-119939104D01*
X240786959Y-119848242D01*
X240786960Y-119848241D01*
X240786963Y-119848240D01*
X240989416Y-119724176D01*
X241169969Y-119569969D01*
X241324176Y-119389416D01*
X241448240Y-119186963D01*
X241467596Y-119140235D01*
X241539104Y-118967597D01*
X241539104Y-118967596D01*
X241539105Y-118967594D01*
X241594535Y-118736711D01*
X241613165Y-118500000D01*
X241594535Y-118263289D01*
X241539105Y-118032406D01*
X241539104Y-118032403D01*
X241539104Y-118032402D01*
X241448242Y-117813040D01*
X241448240Y-117813037D01*
X241324179Y-117610589D01*
X241324178Y-117610586D01*
X241188187Y-117451362D01*
X241169969Y-117430031D01*
X241050596Y-117328076D01*
X240989413Y-117275821D01*
X240989410Y-117275820D01*
X240786962Y-117151759D01*
X240786959Y-117151757D01*
X240567596Y-117060895D01*
X240336714Y-117005465D01*
X240100000Y-116986835D01*
X239863289Y-117005465D01*
X239863285Y-117005465D01*
X239863284Y-117005466D01*
X239641239Y-117058773D01*
X239571457Y-117055282D01*
X239524612Y-117025880D01*
X238108658Y-115609925D01*
X238098732Y-115597535D01*
X238098525Y-115597707D01*
X238093552Y-115591696D01*
X238043718Y-115544899D01*
X238040918Y-115542185D01*
X238021098Y-115522365D01*
X238021094Y-115522361D01*
X238017796Y-115519803D01*
X238008915Y-115512217D01*
X237976509Y-115481785D01*
X237976501Y-115481780D01*
X237958540Y-115471906D01*
X237942274Y-115461222D01*
X237926064Y-115448648D01*
X237885252Y-115430987D01*
X237874763Y-115425849D01*
X237835805Y-115404432D01*
X237835804Y-115404431D01*
X237835803Y-115404431D01*
X237815937Y-115399330D01*
X237797538Y-115393030D01*
X237778709Y-115384883D01*
X237778708Y-115384882D01*
X237734788Y-115377926D01*
X237723352Y-115375558D01*
X237680282Y-115364500D01*
X237659774Y-115364500D01*
X237640376Y-115362973D01*
X237629769Y-115361293D01*
X237620122Y-115359765D01*
X237620121Y-115359764D01*
X237575848Y-115363950D01*
X237564179Y-115364500D01*
X222114595Y-115364500D01*
X222047556Y-115344815D01*
X222026914Y-115328181D01*
X219247387Y-112548654D01*
X230241500Y-112548654D01*
X230248011Y-112609202D01*
X230248011Y-112609204D01*
X230299111Y-112746204D01*
X230386739Y-112863261D01*
X230503796Y-112950889D01*
X230640799Y-113001989D01*
X230668050Y-113004918D01*
X230701345Y-113008499D01*
X230701362Y-113008500D01*
X233298638Y-113008500D01*
X233298654Y-113008499D01*
X233325692Y-113005591D01*
X233359201Y-113001989D01*
X233496204Y-112950889D01*
X233613261Y-112863261D01*
X233700889Y-112746204D01*
X233751989Y-112609201D01*
X233755591Y-112575692D01*
X233758499Y-112548654D01*
X241441500Y-112548654D01*
X241448011Y-112609202D01*
X241448011Y-112609204D01*
X241499111Y-112746204D01*
X241586739Y-112863261D01*
X241703796Y-112950889D01*
X241840799Y-113001989D01*
X241868050Y-113004918D01*
X241901345Y-113008499D01*
X241901362Y-113008500D01*
X244498638Y-113008500D01*
X244498654Y-113008499D01*
X244525692Y-113005591D01*
X244559201Y-113001989D01*
X244696204Y-112950889D01*
X244813261Y-112863261D01*
X244900889Y-112746204D01*
X244951989Y-112609201D01*
X244955591Y-112575692D01*
X244958499Y-112548654D01*
X244958500Y-112548637D01*
X244958500Y-109451362D01*
X244958499Y-109451345D01*
X244955157Y-109420270D01*
X244951989Y-109390799D01*
X244900889Y-109253796D01*
X244813261Y-109136739D01*
X244696204Y-109049111D01*
X244559203Y-108998011D01*
X244498654Y-108991500D01*
X244498638Y-108991500D01*
X241901362Y-108991500D01*
X241901345Y-108991500D01*
X241840797Y-108998011D01*
X241840795Y-108998011D01*
X241703795Y-109049111D01*
X241586739Y-109136739D01*
X241499111Y-109253795D01*
X241448011Y-109390795D01*
X241448011Y-109390797D01*
X241441500Y-109451345D01*
X241441500Y-112548654D01*
X233758499Y-112548654D01*
X233758500Y-112548637D01*
X233758500Y-109451362D01*
X233758499Y-109451345D01*
X233755157Y-109420270D01*
X233751989Y-109390799D01*
X233700889Y-109253796D01*
X233613261Y-109136739D01*
X233496204Y-109049111D01*
X233359203Y-108998011D01*
X233298654Y-108991500D01*
X233298638Y-108991500D01*
X230701362Y-108991500D01*
X230701345Y-108991500D01*
X230640797Y-108998011D01*
X230640795Y-108998011D01*
X230503795Y-109049111D01*
X230386739Y-109136739D01*
X230299111Y-109253795D01*
X230248011Y-109390795D01*
X230248011Y-109390797D01*
X230241500Y-109451345D01*
X230241500Y-112548654D01*
X219247387Y-112548654D01*
X208508658Y-101809925D01*
X208498732Y-101797535D01*
X208498525Y-101797707D01*
X208493552Y-101791696D01*
X208443718Y-101744899D01*
X208440918Y-101742185D01*
X208421098Y-101722365D01*
X208421094Y-101722361D01*
X208417796Y-101719803D01*
X208408915Y-101712217D01*
X208376509Y-101681785D01*
X208376501Y-101681780D01*
X208358540Y-101671906D01*
X208342274Y-101661222D01*
X208326064Y-101648648D01*
X208285252Y-101630987D01*
X208274763Y-101625849D01*
X208235805Y-101604432D01*
X208235804Y-101604431D01*
X208235803Y-101604431D01*
X208215937Y-101599330D01*
X208197538Y-101593030D01*
X208178709Y-101584883D01*
X208178708Y-101584882D01*
X208134788Y-101577926D01*
X208123352Y-101575558D01*
X208080282Y-101564500D01*
X208059774Y-101564500D01*
X208040376Y-101562973D01*
X208029769Y-101561293D01*
X208020122Y-101559765D01*
X208020121Y-101559764D01*
X207975848Y-101563950D01*
X207964179Y-101564500D01*
X138914595Y-101564500D01*
X138847556Y-101544815D01*
X138826914Y-101528181D01*
X135641819Y-98343086D01*
X135608334Y-98281763D01*
X135605500Y-98255405D01*
X135605500Y-97136951D01*
X135625185Y-97069912D01*
X135658371Y-97035380D01*
X135814300Y-96926198D01*
X135976198Y-96764300D01*
X136107523Y-96576749D01*
X136204284Y-96369243D01*
X136263543Y-96148087D01*
X136278500Y-95977127D01*
X136278500Y-95262873D01*
X136263543Y-95091913D01*
X136204284Y-94870757D01*
X136107523Y-94663251D01*
X135976198Y-94475700D01*
X135814300Y-94313802D01*
X135626749Y-94182477D01*
X135626745Y-94182475D01*
X135419249Y-94085718D01*
X135419238Y-94085714D01*
X135198089Y-94026457D01*
X135198081Y-94026456D01*
X134970002Y-94006502D01*
X134969998Y-94006502D01*
X134741918Y-94026456D01*
X134741910Y-94026457D01*
X134520761Y-94085714D01*
X134520750Y-94085718D01*
X134313254Y-94182475D01*
X134313252Y-94182476D01*
X134313251Y-94182477D01*
X134125700Y-94313802D01*
X134125698Y-94313803D01*
X134125695Y-94313806D01*
X133963806Y-94475695D01*
X133832476Y-94663251D01*
X133812382Y-94706345D01*
X133766209Y-94758784D01*
X133699016Y-94777936D01*
X133632135Y-94757720D01*
X133587618Y-94706345D01*
X133567523Y-94663251D01*
X133541166Y-94625610D01*
X133436198Y-94475700D01*
X133274300Y-94313802D01*
X133086749Y-94182477D01*
X133086745Y-94182475D01*
X132879249Y-94085718D01*
X132879238Y-94085714D01*
X132658089Y-94026457D01*
X132658081Y-94026456D01*
X132430002Y-94006502D01*
X132429998Y-94006502D01*
X132201918Y-94026456D01*
X132201910Y-94026457D01*
X131980761Y-94085714D01*
X131980750Y-94085718D01*
X131773254Y-94182475D01*
X131773252Y-94182476D01*
X131773251Y-94182477D01*
X131585700Y-94313802D01*
X131585698Y-94313803D01*
X131585695Y-94313806D01*
X131423806Y-94475695D01*
X131292476Y-94663251D01*
X131272382Y-94706345D01*
X131226209Y-94758784D01*
X131159016Y-94777936D01*
X131092135Y-94757720D01*
X131047618Y-94706345D01*
X131027523Y-94663251D01*
X131001166Y-94625610D01*
X130896198Y-94475700D01*
X130734300Y-94313802D01*
X130546749Y-94182477D01*
X130546745Y-94182475D01*
X130339249Y-94085718D01*
X130339238Y-94085714D01*
X130118089Y-94026457D01*
X130118081Y-94026456D01*
X129890002Y-94006502D01*
X129889998Y-94006502D01*
X129661918Y-94026456D01*
X129661910Y-94026457D01*
X129440761Y-94085714D01*
X129440750Y-94085718D01*
X129233254Y-94182475D01*
X129233252Y-94182476D01*
X129233251Y-94182477D01*
X129045700Y-94313802D01*
X129045698Y-94313803D01*
X129045695Y-94313806D01*
X128883806Y-94475695D01*
X128752476Y-94663251D01*
X128732382Y-94706345D01*
X128686209Y-94758784D01*
X128619016Y-94777936D01*
X128552135Y-94757720D01*
X128507618Y-94706345D01*
X128487523Y-94663251D01*
X128461166Y-94625610D01*
X128356198Y-94475700D01*
X128194300Y-94313802D01*
X128006749Y-94182477D01*
X128006745Y-94182475D01*
X127799249Y-94085718D01*
X127799238Y-94085714D01*
X127578089Y-94026457D01*
X127578081Y-94026456D01*
X127350002Y-94006502D01*
X127349998Y-94006502D01*
X127121918Y-94026456D01*
X127121910Y-94026457D01*
X126900761Y-94085714D01*
X126900750Y-94085718D01*
X126693254Y-94182475D01*
X126693252Y-94182476D01*
X126693251Y-94182477D01*
X126505700Y-94313802D01*
X126505698Y-94313803D01*
X126505695Y-94313806D01*
X126343806Y-94475695D01*
X126212476Y-94663251D01*
X126192382Y-94706345D01*
X126146209Y-94758784D01*
X126079016Y-94777936D01*
X126012135Y-94757720D01*
X125967618Y-94706345D01*
X125947523Y-94663251D01*
X125921166Y-94625610D01*
X125816198Y-94475700D01*
X125654300Y-94313802D01*
X125466749Y-94182477D01*
X125466745Y-94182475D01*
X125259249Y-94085718D01*
X125259238Y-94085714D01*
X125038089Y-94026457D01*
X125038081Y-94026456D01*
X124810002Y-94006502D01*
X124809998Y-94006502D01*
X124581918Y-94026456D01*
X124581910Y-94026457D01*
X124360761Y-94085714D01*
X124360750Y-94085718D01*
X124153254Y-94182475D01*
X124153252Y-94182476D01*
X124153251Y-94182477D01*
X123965700Y-94313802D01*
X123965698Y-94313803D01*
X123965695Y-94313806D01*
X123803806Y-94475695D01*
X123672476Y-94663251D01*
X123652382Y-94706345D01*
X123606209Y-94758784D01*
X123539016Y-94777936D01*
X123472135Y-94757720D01*
X123427618Y-94706345D01*
X123407523Y-94663251D01*
X123381166Y-94625610D01*
X123276198Y-94475700D01*
X123114300Y-94313802D01*
X122926749Y-94182477D01*
X122926745Y-94182475D01*
X122719249Y-94085718D01*
X122719238Y-94085714D01*
X122498089Y-94026457D01*
X122498081Y-94026456D01*
X122270002Y-94006502D01*
X122269998Y-94006502D01*
X122041918Y-94026456D01*
X122041910Y-94026457D01*
X121820761Y-94085714D01*
X121820750Y-94085718D01*
X121613254Y-94182475D01*
X121613252Y-94182476D01*
X121613251Y-94182477D01*
X121425700Y-94313802D01*
X121425698Y-94313803D01*
X121425695Y-94313806D01*
X121263806Y-94475695D01*
X121132476Y-94663251D01*
X121112382Y-94706345D01*
X121066209Y-94758784D01*
X120999016Y-94777936D01*
X120932135Y-94757720D01*
X120887618Y-94706345D01*
X120867523Y-94663251D01*
X120841166Y-94625610D01*
X120736198Y-94475700D01*
X120574300Y-94313802D01*
X120386749Y-94182477D01*
X120386745Y-94182475D01*
X120179249Y-94085718D01*
X120179238Y-94085714D01*
X119958089Y-94026457D01*
X119958081Y-94026456D01*
X119730002Y-94006502D01*
X119729998Y-94006502D01*
X119501918Y-94026456D01*
X119501910Y-94026457D01*
X119280761Y-94085714D01*
X119280750Y-94085718D01*
X119073254Y-94182475D01*
X119073252Y-94182476D01*
X119073251Y-94182477D01*
X118885700Y-94313802D01*
X118885698Y-94313803D01*
X118885695Y-94313806D01*
X118723806Y-94475695D01*
X118592476Y-94663251D01*
X118572382Y-94706345D01*
X118526209Y-94758784D01*
X118459016Y-94777936D01*
X118392135Y-94757720D01*
X118347618Y-94706345D01*
X118327523Y-94663251D01*
X118301166Y-94625610D01*
X118196198Y-94475700D01*
X118034300Y-94313802D01*
X117846749Y-94182477D01*
X117846745Y-94182475D01*
X117639249Y-94085718D01*
X117639238Y-94085714D01*
X117418089Y-94026457D01*
X117418081Y-94026456D01*
X117190002Y-94006502D01*
X117189998Y-94006502D01*
X116961918Y-94026456D01*
X116961910Y-94026457D01*
X116740761Y-94085714D01*
X116740750Y-94085718D01*
X116533254Y-94182475D01*
X116533252Y-94182476D01*
X116533251Y-94182477D01*
X116345700Y-94313802D01*
X116345698Y-94313803D01*
X116345695Y-94313806D01*
X116183806Y-94475695D01*
X116052476Y-94663252D01*
X116052474Y-94663256D01*
X116027691Y-94716402D01*
X115981518Y-94768841D01*
X115914324Y-94787992D01*
X115847444Y-94767775D01*
X115802927Y-94716399D01*
X115780133Y-94667517D01*
X115649657Y-94481179D01*
X115488820Y-94320342D01*
X115302482Y-94189865D01*
X115096328Y-94093734D01*
X114900000Y-94041127D01*
X114900000Y-95290172D01*
X114893996Y-95284168D01*
X114778276Y-95225206D01*
X114682269Y-95210000D01*
X114617731Y-95210000D01*
X114521724Y-95225206D01*
X114406004Y-95284168D01*
X114400000Y-95290172D01*
X114400000Y-94041127D01*
X114203671Y-94093734D01*
X113997517Y-94189865D01*
X113811179Y-94320342D01*
X113650342Y-94481179D01*
X113519865Y-94667517D01*
X113492382Y-94726457D01*
X113446210Y-94778896D01*
X113379016Y-94798048D01*
X113312135Y-94777832D01*
X113267618Y-94726457D01*
X113240134Y-94667517D01*
X113109657Y-94481179D01*
X112948820Y-94320342D01*
X112762482Y-94189865D01*
X112556328Y-94093734D01*
X112360000Y-94041127D01*
X112360000Y-95290172D01*
X112353996Y-95284168D01*
X112238276Y-95225206D01*
X112142269Y-95210000D01*
X112077731Y-95210000D01*
X111981724Y-95225206D01*
X111866004Y-95284168D01*
X111860000Y-95290172D01*
X111860000Y-94041127D01*
X111663671Y-94093734D01*
X111457517Y-94189865D01*
X111271179Y-94320342D01*
X111110342Y-94481179D01*
X110979865Y-94667517D01*
X110957071Y-94716401D01*
X110910898Y-94768840D01*
X110843705Y-94787992D01*
X110776824Y-94767776D01*
X110732307Y-94716401D01*
X110707523Y-94663251D01*
X110681166Y-94625610D01*
X110576198Y-94475700D01*
X110414300Y-94313802D01*
X110226749Y-94182477D01*
X110226745Y-94182475D01*
X110019249Y-94085718D01*
X110019238Y-94085714D01*
X109798089Y-94026457D01*
X109798081Y-94026456D01*
X109570002Y-94006502D01*
X109569998Y-94006502D01*
X109341918Y-94026456D01*
X109341910Y-94026457D01*
X109120761Y-94085714D01*
X109120750Y-94085718D01*
X108913254Y-94182475D01*
X108913252Y-94182476D01*
X108913251Y-94182477D01*
X108725700Y-94313802D01*
X108725698Y-94313803D01*
X108725695Y-94313806D01*
X108563805Y-94475696D01*
X108489379Y-94581986D01*
X108434802Y-94625610D01*
X108365303Y-94632802D01*
X108302949Y-94601279D01*
X108286823Y-94580432D01*
X108286204Y-94580896D01*
X108280888Y-94573795D01*
X108193261Y-94456739D01*
X108076204Y-94369111D01*
X107939203Y-94318011D01*
X107878654Y-94311500D01*
X107878638Y-94311500D01*
X106181362Y-94311500D01*
X106181345Y-94311500D01*
X106120797Y-94318011D01*
X106120795Y-94318011D01*
X105983795Y-94369111D01*
X105866739Y-94456739D01*
X105779111Y-94573795D01*
X105728011Y-94710795D01*
X105728011Y-94710797D01*
X105721500Y-94771345D01*
X105721500Y-96468654D01*
X104000000Y-96468654D01*
X104000000Y-92000005D01*
X142494859Y-92000005D01*
X142515385Y-92247729D01*
X142515387Y-92247738D01*
X142576412Y-92488717D01*
X142676266Y-92716364D01*
X142776564Y-92869882D01*
X143474070Y-92172376D01*
X143476884Y-92185915D01*
X143546442Y-92320156D01*
X143649638Y-92430652D01*
X143778819Y-92509209D01*
X143830002Y-92523549D01*
X143129942Y-93223609D01*
X143176768Y-93260055D01*
X143176770Y-93260056D01*
X143395385Y-93378364D01*
X143395396Y-93378369D01*
X143630506Y-93459083D01*
X143875707Y-93500000D01*
X144124293Y-93500000D01*
X144369493Y-93459083D01*
X144604603Y-93378369D01*
X144604614Y-93378364D01*
X144823228Y-93260057D01*
X144823231Y-93260055D01*
X144870056Y-93223609D01*
X144171568Y-92525121D01*
X144288458Y-92474349D01*
X144405739Y-92378934D01*
X144492928Y-92255415D01*
X144523354Y-92169802D01*
X145223434Y-92869882D01*
X145323731Y-92716369D01*
X145423587Y-92488717D01*
X145484612Y-92247738D01*
X145484614Y-92247729D01*
X145505141Y-92000005D01*
X148994859Y-92000005D01*
X149015385Y-92247729D01*
X149015387Y-92247738D01*
X149076412Y-92488717D01*
X149176266Y-92716364D01*
X149276564Y-92869882D01*
X149974070Y-92172376D01*
X149976884Y-92185915D01*
X150046442Y-92320156D01*
X150149638Y-92430652D01*
X150278819Y-92509209D01*
X150330002Y-92523549D01*
X149629942Y-93223609D01*
X149676768Y-93260055D01*
X149676770Y-93260056D01*
X149895385Y-93378364D01*
X149895396Y-93378369D01*
X150130506Y-93459083D01*
X150375707Y-93500000D01*
X150624293Y-93500000D01*
X150869493Y-93459083D01*
X151104603Y-93378369D01*
X151104614Y-93378364D01*
X151323228Y-93260057D01*
X151323231Y-93260055D01*
X151370056Y-93223609D01*
X150671568Y-92525121D01*
X150788458Y-92474349D01*
X150905739Y-92378934D01*
X150992928Y-92255415D01*
X151023354Y-92169802D01*
X151723434Y-92869882D01*
X151823731Y-92716369D01*
X151923587Y-92488717D01*
X151984612Y-92247738D01*
X151984614Y-92247729D01*
X152005141Y-92000005D01*
X152005141Y-91999994D01*
X151984614Y-91752270D01*
X151984612Y-91752261D01*
X151923587Y-91511282D01*
X151823731Y-91283630D01*
X151723434Y-91130116D01*
X151025929Y-91827622D01*
X151023116Y-91814085D01*
X150953558Y-91679844D01*
X150850362Y-91569348D01*
X150721181Y-91490791D01*
X150669997Y-91476450D01*
X151370057Y-90776390D01*
X151370056Y-90776389D01*
X151323229Y-90739943D01*
X151104614Y-90621635D01*
X151104603Y-90621630D01*
X150869493Y-90540916D01*
X150624293Y-90500000D01*
X150375707Y-90500000D01*
X150130506Y-90540916D01*
X149895396Y-90621630D01*
X149895390Y-90621632D01*
X149676761Y-90739949D01*
X149629942Y-90776388D01*
X149629942Y-90776390D01*
X150328431Y-91474878D01*
X150211542Y-91525651D01*
X150094261Y-91621066D01*
X150007072Y-91744585D01*
X149976645Y-91830197D01*
X149276564Y-91130116D01*
X149176267Y-91283632D01*
X149076412Y-91511282D01*
X149015387Y-91752261D01*
X149015385Y-91752270D01*
X148994859Y-91999994D01*
X148994859Y-92000005D01*
X145505141Y-92000005D01*
X145505141Y-91999994D01*
X145484614Y-91752270D01*
X145484612Y-91752261D01*
X145423587Y-91511282D01*
X145323731Y-91283630D01*
X145223434Y-91130116D01*
X144525929Y-91827622D01*
X144523116Y-91814085D01*
X144453558Y-91679844D01*
X144350362Y-91569348D01*
X144221181Y-91490791D01*
X144169997Y-91476450D01*
X144870057Y-90776390D01*
X144870056Y-90776389D01*
X144823229Y-90739943D01*
X144604614Y-90621635D01*
X144604603Y-90621630D01*
X144369493Y-90540916D01*
X144124293Y-90500000D01*
X143875707Y-90500000D01*
X143630506Y-90540916D01*
X143395396Y-90621630D01*
X143395390Y-90621632D01*
X143176761Y-90739949D01*
X143129942Y-90776388D01*
X143129942Y-90776390D01*
X143828431Y-91474878D01*
X143711542Y-91525651D01*
X143594261Y-91621066D01*
X143507072Y-91744585D01*
X143476645Y-91830197D01*
X142776564Y-91130116D01*
X142676267Y-91283632D01*
X142576412Y-91511282D01*
X142515387Y-91752261D01*
X142515385Y-91752270D01*
X142494859Y-91999994D01*
X142494859Y-92000005D01*
X104000000Y-92000005D01*
X104000000Y-80737130D01*
X105721500Y-80737130D01*
X105736456Y-80908081D01*
X105736457Y-80908089D01*
X105795714Y-81129238D01*
X105795718Y-81129249D01*
X105867692Y-81283597D01*
X105892477Y-81336749D01*
X106023802Y-81524300D01*
X106185700Y-81686198D01*
X106373251Y-81817523D01*
X106442798Y-81849953D01*
X106580750Y-81914281D01*
X106580752Y-81914281D01*
X106580757Y-81914284D01*
X106801913Y-81973543D01*
X106964832Y-81987796D01*
X107029998Y-81993498D01*
X107030000Y-81993498D01*
X107030002Y-81993498D01*
X107087021Y-81988509D01*
X107258087Y-81973543D01*
X107479243Y-81914284D01*
X107686749Y-81817523D01*
X107874300Y-81686198D01*
X108036198Y-81524300D01*
X108167523Y-81336749D01*
X108192307Y-81283598D01*
X108238479Y-81231159D01*
X108305672Y-81212007D01*
X108372553Y-81232222D01*
X108417071Y-81283599D01*
X108439864Y-81332479D01*
X108439865Y-81332481D01*
X108570342Y-81518820D01*
X108731179Y-81679657D01*
X108917517Y-81810134D01*
X109123673Y-81906265D01*
X109123682Y-81906269D01*
X109319999Y-81958872D01*
X109320000Y-81958871D01*
X109320000Y-80709828D01*
X109326004Y-80715832D01*
X109441724Y-80774794D01*
X109537731Y-80790000D01*
X109602269Y-80790000D01*
X109698276Y-80774794D01*
X109813996Y-80715832D01*
X109820000Y-80709828D01*
X109820000Y-81958872D01*
X110016317Y-81906269D01*
X110016326Y-81906265D01*
X110222482Y-81810134D01*
X110408820Y-81679657D01*
X110569657Y-81518820D01*
X110700133Y-81332483D01*
X110722927Y-81283600D01*
X110769098Y-81231160D01*
X110836292Y-81212007D01*
X110903173Y-81232221D01*
X110947691Y-81283596D01*
X110972477Y-81336749D01*
X111103802Y-81524300D01*
X111265700Y-81686198D01*
X111421626Y-81795379D01*
X111465248Y-81849953D01*
X111474500Y-81896951D01*
X111474500Y-83826151D01*
X111472758Y-83841927D01*
X111473026Y-83841953D01*
X111472292Y-83849718D01*
X111474439Y-83918043D01*
X111474500Y-83921938D01*
X111474500Y-83949982D01*
X111475022Y-83954118D01*
X111475937Y-83965749D01*
X111477334Y-84010203D01*
X111477335Y-84010207D01*
X111483057Y-84029905D01*
X111487000Y-84048946D01*
X111489571Y-84069288D01*
X111489574Y-84069303D01*
X111505941Y-84110644D01*
X111509722Y-84121687D01*
X111522130Y-84164391D01*
X111532570Y-84182044D01*
X111541128Y-84199514D01*
X111548679Y-84218585D01*
X111548683Y-84218592D01*
X111574824Y-84254572D01*
X111581231Y-84264325D01*
X111603866Y-84302598D01*
X111603870Y-84302602D01*
X111618363Y-84317095D01*
X111631001Y-84331892D01*
X111643057Y-84348487D01*
X111677325Y-84376835D01*
X111685966Y-84384698D01*
X115191342Y-87890075D01*
X115201267Y-87902463D01*
X115201474Y-87902292D01*
X115206444Y-87908300D01*
X115256281Y-87955100D01*
X115259078Y-87957811D01*
X115278906Y-87977639D01*
X115282190Y-87980186D01*
X115291081Y-87987780D01*
X115323487Y-88018211D01*
X115323490Y-88018213D01*
X115323494Y-88018217D01*
X115323497Y-88018219D01*
X115323499Y-88018220D01*
X115341462Y-88028095D01*
X115357724Y-88038776D01*
X115373933Y-88051350D01*
X115414746Y-88069011D01*
X115425227Y-88074145D01*
X115464197Y-88095569D01*
X115464201Y-88095570D01*
X115484054Y-88100667D01*
X115502469Y-88106972D01*
X115521286Y-88115115D01*
X115521289Y-88115115D01*
X115521292Y-88115117D01*
X115565219Y-88122073D01*
X115576650Y-88124441D01*
X115619718Y-88135500D01*
X115640226Y-88135500D01*
X115659623Y-88137026D01*
X115679877Y-88140234D01*
X115679878Y-88140235D01*
X115679878Y-88140234D01*
X115679879Y-88140235D01*
X115699397Y-88138389D01*
X115724152Y-88136050D01*
X115735821Y-88135500D01*
X142550780Y-88135500D01*
X142617819Y-88155185D01*
X142656507Y-88194710D01*
X142775820Y-88389410D01*
X142775821Y-88389413D01*
X142775824Y-88389416D01*
X142930031Y-88569969D01*
X143069797Y-88689340D01*
X143110586Y-88724178D01*
X143110589Y-88724179D01*
X143313037Y-88848240D01*
X143313040Y-88848242D01*
X143532403Y-88939104D01*
X143532404Y-88939104D01*
X143532406Y-88939105D01*
X143763289Y-88994535D01*
X144000000Y-89013165D01*
X144236711Y-88994535D01*
X144467594Y-88939105D01*
X144467596Y-88939104D01*
X144467597Y-88939104D01*
X144686959Y-88848242D01*
X144686960Y-88848241D01*
X144686963Y-88848240D01*
X144889416Y-88724176D01*
X145069969Y-88569969D01*
X145224176Y-88389416D01*
X145343493Y-88194710D01*
X145395305Y-88147835D01*
X145449220Y-88135500D01*
X149050780Y-88135500D01*
X149117819Y-88155185D01*
X149156507Y-88194710D01*
X149275820Y-88389410D01*
X149275821Y-88389413D01*
X149275824Y-88389416D01*
X149430031Y-88569969D01*
X149569797Y-88689340D01*
X149610586Y-88724178D01*
X149610589Y-88724179D01*
X149813037Y-88848240D01*
X149813040Y-88848242D01*
X150032403Y-88939104D01*
X150032404Y-88939104D01*
X150032406Y-88939105D01*
X150263289Y-88994535D01*
X150500000Y-89013165D01*
X150736711Y-88994535D01*
X150967594Y-88939105D01*
X150967596Y-88939104D01*
X150967597Y-88939104D01*
X151186959Y-88848242D01*
X151186960Y-88848241D01*
X151186963Y-88848240D01*
X151389416Y-88724176D01*
X151569969Y-88569969D01*
X151724176Y-88389416D01*
X151848240Y-88186963D01*
X151864448Y-88147835D01*
X151939104Y-87967597D01*
X151939104Y-87967596D01*
X151939105Y-87967594D01*
X151994535Y-87736711D01*
X152013165Y-87500000D01*
X151994535Y-87263289D01*
X151939105Y-87032406D01*
X151939104Y-87032403D01*
X151939104Y-87032402D01*
X151848242Y-86813040D01*
X151848240Y-86813037D01*
X151724179Y-86610589D01*
X151724178Y-86610586D01*
X151689340Y-86569797D01*
X151569969Y-86430031D01*
X151450596Y-86328076D01*
X151389413Y-86275821D01*
X151389410Y-86275820D01*
X151186962Y-86151759D01*
X151186959Y-86151757D01*
X150967596Y-86060895D01*
X150736714Y-86005465D01*
X150500000Y-85986835D01*
X150263285Y-86005465D01*
X150032404Y-86060895D01*
X150032402Y-86060895D01*
X149813040Y-86151757D01*
X149813037Y-86151759D01*
X149610589Y-86275820D01*
X149610586Y-86275821D01*
X149430031Y-86430031D01*
X149275821Y-86610586D01*
X149275820Y-86610589D01*
X149156507Y-86805290D01*
X149104695Y-86852165D01*
X149050780Y-86864500D01*
X145449220Y-86864500D01*
X145382181Y-86844815D01*
X145343493Y-86805290D01*
X145224179Y-86610589D01*
X145224178Y-86610586D01*
X145189340Y-86569797D01*
X145069969Y-86430031D01*
X144950596Y-86328076D01*
X144889413Y-86275821D01*
X144889410Y-86275820D01*
X144686962Y-86151759D01*
X144686959Y-86151757D01*
X144467596Y-86060895D01*
X144236714Y-86005465D01*
X144000000Y-85986835D01*
X143763285Y-86005465D01*
X143532404Y-86060895D01*
X143532402Y-86060895D01*
X143313040Y-86151757D01*
X143313037Y-86151759D01*
X143110589Y-86275820D01*
X143110586Y-86275821D01*
X142930031Y-86430031D01*
X142775821Y-86610586D01*
X142775820Y-86610589D01*
X142656507Y-86805290D01*
X142604695Y-86852165D01*
X142550780Y-86864500D01*
X116014595Y-86864500D01*
X115947556Y-86844815D01*
X115926914Y-86828181D01*
X112781819Y-83683086D01*
X112748334Y-83621763D01*
X112745500Y-83595405D01*
X112745500Y-81896951D01*
X112765185Y-81829912D01*
X112798371Y-81795380D01*
X112954300Y-81686198D01*
X113116198Y-81524300D01*
X113247523Y-81336749D01*
X113267618Y-81293655D01*
X113313790Y-81241215D01*
X113380983Y-81222063D01*
X113447864Y-81242278D01*
X113492382Y-81293655D01*
X113512477Y-81336749D01*
X113643802Y-81524300D01*
X113805700Y-81686198D01*
X113993251Y-81817523D01*
X114062798Y-81849953D01*
X114200750Y-81914281D01*
X114200752Y-81914281D01*
X114200757Y-81914284D01*
X114421913Y-81973543D01*
X114584832Y-81987796D01*
X114649998Y-81993498D01*
X114650000Y-81993498D01*
X114650002Y-81993498D01*
X114707021Y-81988509D01*
X114878087Y-81973543D01*
X115099243Y-81914284D01*
X115306749Y-81817523D01*
X115494300Y-81686198D01*
X115656198Y-81524300D01*
X115787523Y-81336749D01*
X115807618Y-81293655D01*
X115853790Y-81241215D01*
X115920983Y-81222063D01*
X115987864Y-81242278D01*
X116032382Y-81293655D01*
X116052477Y-81336749D01*
X116183802Y-81524300D01*
X116345700Y-81686198D01*
X116533251Y-81817523D01*
X116602798Y-81849953D01*
X116740750Y-81914281D01*
X116740752Y-81914281D01*
X116740757Y-81914284D01*
X116961913Y-81973543D01*
X117124832Y-81987796D01*
X117189998Y-81993498D01*
X117190000Y-81993498D01*
X117190002Y-81993498D01*
X117247021Y-81988509D01*
X117418087Y-81973543D01*
X117639243Y-81914284D01*
X117846749Y-81817523D01*
X118034300Y-81686198D01*
X118196198Y-81524300D01*
X118327523Y-81336749D01*
X118347618Y-81293655D01*
X118393790Y-81241215D01*
X118460983Y-81222063D01*
X118527864Y-81242278D01*
X118572382Y-81293655D01*
X118592477Y-81336749D01*
X118723802Y-81524300D01*
X118885700Y-81686198D01*
X119073251Y-81817523D01*
X119142798Y-81849953D01*
X119280750Y-81914281D01*
X119280752Y-81914281D01*
X119280757Y-81914284D01*
X119501913Y-81973543D01*
X119664832Y-81987796D01*
X119729998Y-81993498D01*
X119730000Y-81993498D01*
X119730002Y-81993498D01*
X119787021Y-81988509D01*
X119958087Y-81973543D01*
X120179243Y-81914284D01*
X120386749Y-81817523D01*
X120574300Y-81686198D01*
X120736198Y-81524300D01*
X120867523Y-81336749D01*
X120887618Y-81293655D01*
X120933790Y-81241215D01*
X121000983Y-81222063D01*
X121067864Y-81242278D01*
X121112382Y-81293655D01*
X121132477Y-81336749D01*
X121263802Y-81524300D01*
X121425700Y-81686198D01*
X121613251Y-81817523D01*
X121682798Y-81849953D01*
X121820750Y-81914281D01*
X121820752Y-81914281D01*
X121820757Y-81914284D01*
X122041913Y-81973543D01*
X122204832Y-81987796D01*
X122269998Y-81993498D01*
X122270000Y-81993498D01*
X122270002Y-81993498D01*
X122327021Y-81988509D01*
X122498087Y-81973543D01*
X122719243Y-81914284D01*
X122926749Y-81817523D01*
X123114300Y-81686198D01*
X123276198Y-81524300D01*
X123407523Y-81336749D01*
X123427618Y-81293655D01*
X123473790Y-81241215D01*
X123540983Y-81222063D01*
X123607864Y-81242278D01*
X123652382Y-81293655D01*
X123672477Y-81336749D01*
X123803802Y-81524300D01*
X123965700Y-81686198D01*
X124153251Y-81817523D01*
X124222798Y-81849953D01*
X124360750Y-81914281D01*
X124360752Y-81914281D01*
X124360757Y-81914284D01*
X124581913Y-81973543D01*
X124744832Y-81987796D01*
X124809998Y-81993498D01*
X124810000Y-81993498D01*
X124810002Y-81993498D01*
X124867021Y-81988509D01*
X125038087Y-81973543D01*
X125259243Y-81914284D01*
X125466749Y-81817523D01*
X125654300Y-81686198D01*
X125816198Y-81524300D01*
X125947523Y-81336749D01*
X125967618Y-81293655D01*
X126013790Y-81241215D01*
X126080983Y-81222063D01*
X126147864Y-81242278D01*
X126192382Y-81293655D01*
X126212477Y-81336749D01*
X126343802Y-81524300D01*
X126505700Y-81686198D01*
X126693251Y-81817523D01*
X126762798Y-81849953D01*
X126900750Y-81914281D01*
X126900752Y-81914281D01*
X126900757Y-81914284D01*
X127121913Y-81973543D01*
X127284832Y-81987796D01*
X127349998Y-81993498D01*
X127350000Y-81993498D01*
X127350002Y-81993498D01*
X127407021Y-81988509D01*
X127578087Y-81973543D01*
X127799243Y-81914284D01*
X128006749Y-81817523D01*
X128194300Y-81686198D01*
X128356198Y-81524300D01*
X128487523Y-81336749D01*
X128507618Y-81293655D01*
X128553790Y-81241215D01*
X128620983Y-81222063D01*
X128687864Y-81242278D01*
X128732382Y-81293655D01*
X128752477Y-81336749D01*
X128883802Y-81524300D01*
X129045700Y-81686198D01*
X129233251Y-81817523D01*
X129302798Y-81849953D01*
X129440750Y-81914281D01*
X129440752Y-81914281D01*
X129440757Y-81914284D01*
X129661913Y-81973543D01*
X129824832Y-81987796D01*
X129889998Y-81993498D01*
X129890000Y-81993498D01*
X129890002Y-81993498D01*
X129947021Y-81988509D01*
X130118087Y-81973543D01*
X130339243Y-81914284D01*
X130546749Y-81817523D01*
X130734300Y-81686198D01*
X130896198Y-81524300D01*
X131027523Y-81336749D01*
X131047618Y-81293655D01*
X131093790Y-81241215D01*
X131160983Y-81222063D01*
X131227864Y-81242278D01*
X131272382Y-81293655D01*
X131292477Y-81336749D01*
X131423802Y-81524300D01*
X131585700Y-81686198D01*
X131773251Y-81817523D01*
X131842798Y-81849953D01*
X131980750Y-81914281D01*
X131980752Y-81914281D01*
X131980757Y-81914284D01*
X132201913Y-81973543D01*
X132364832Y-81987796D01*
X132429998Y-81993498D01*
X132430000Y-81993498D01*
X132430002Y-81993498D01*
X132487021Y-81988509D01*
X132658087Y-81973543D01*
X132879243Y-81914284D01*
X133086749Y-81817523D01*
X133274300Y-81686198D01*
X133436198Y-81524300D01*
X133567523Y-81336749D01*
X133587618Y-81293655D01*
X133633790Y-81241215D01*
X133700983Y-81222063D01*
X133767864Y-81242278D01*
X133812382Y-81293655D01*
X133832477Y-81336749D01*
X133963802Y-81524300D01*
X134125700Y-81686198D01*
X134313251Y-81817523D01*
X134382798Y-81849953D01*
X134520750Y-81914281D01*
X134520752Y-81914281D01*
X134520757Y-81914284D01*
X134741913Y-81973543D01*
X134904832Y-81987796D01*
X134969998Y-81993498D01*
X134970000Y-81993498D01*
X134970002Y-81993498D01*
X135027021Y-81988509D01*
X135198087Y-81973543D01*
X135419243Y-81914284D01*
X135626749Y-81817523D01*
X135814300Y-81686198D01*
X135976198Y-81524300D01*
X136107523Y-81336749D01*
X136204284Y-81129243D01*
X136263543Y-80908087D01*
X136278500Y-80737127D01*
X136278500Y-80022873D01*
X136263543Y-79851913D01*
X136204284Y-79630757D01*
X136107523Y-79423251D01*
X135976198Y-79235700D01*
X135814300Y-79073802D01*
X135706338Y-78998205D01*
X135662713Y-78943628D01*
X135655521Y-78874129D01*
X135687044Y-78811775D01*
X135689745Y-78808986D01*
X136210914Y-78287819D01*
X136272237Y-78254334D01*
X136298595Y-78251500D01*
X241200153Y-78251500D01*
X241215932Y-78253241D01*
X241215958Y-78252974D01*
X241223711Y-78253706D01*
X241223719Y-78253708D01*
X241292044Y-78251561D01*
X241295939Y-78251500D01*
X241323977Y-78251500D01*
X241323983Y-78251500D01*
X241328122Y-78250976D01*
X241339753Y-78250061D01*
X241384205Y-78248665D01*
X241403906Y-78242940D01*
X241422951Y-78238997D01*
X241443299Y-78236427D01*
X241484659Y-78220051D01*
X241495660Y-78216283D01*
X241538393Y-78203869D01*
X241556054Y-78193423D01*
X241573512Y-78184871D01*
X241592588Y-78177319D01*
X241628568Y-78151177D01*
X241638315Y-78144774D01*
X241676598Y-78122134D01*
X241691094Y-78107637D01*
X241705892Y-78094998D01*
X241722487Y-78082942D01*
X241750845Y-78048662D01*
X241758688Y-78040042D01*
X249390075Y-70408656D01*
X249402458Y-70398738D01*
X249402286Y-70398530D01*
X249408294Y-70393558D01*
X249408303Y-70393553D01*
X249455103Y-70343714D01*
X249457783Y-70340948D01*
X249477639Y-70321094D01*
X249480192Y-70317801D01*
X249487774Y-70308923D01*
X249518217Y-70276506D01*
X249528094Y-70258537D01*
X249538779Y-70242272D01*
X249551350Y-70226067D01*
X249569019Y-70185234D01*
X249574145Y-70174770D01*
X249595569Y-70135803D01*
X249600670Y-70115930D01*
X249606969Y-70097534D01*
X249615117Y-70078708D01*
X249622072Y-70034787D01*
X249624442Y-70023347D01*
X249628213Y-70008661D01*
X249635500Y-69980282D01*
X249635500Y-69959774D01*
X249637027Y-69940374D01*
X249640235Y-69920121D01*
X249636050Y-69875848D01*
X249635500Y-69864179D01*
X249635500Y-66947401D01*
X249975746Y-66947401D01*
X249985745Y-67157327D01*
X250035296Y-67361578D01*
X250035298Y-67361582D01*
X250122598Y-67552743D01*
X250122601Y-67552748D01*
X250122602Y-67552749D01*
X250122604Y-67552753D01*
X250244514Y-67723952D01*
X250244515Y-67723953D01*
X250244520Y-67723959D01*
X250396620Y-67868985D01*
X250491578Y-67930011D01*
X250573428Y-67982613D01*
X250768543Y-68060725D01*
X250871729Y-68080612D01*
X250974914Y-68100500D01*
X250974915Y-68100500D01*
X251132419Y-68100500D01*
X251132425Y-68100500D01*
X251289218Y-68085528D01*
X251490875Y-68026316D01*
X251677682Y-67930011D01*
X251842886Y-67800092D01*
X251980519Y-67641256D01*
X252085604Y-67459244D01*
X252154344Y-67260633D01*
X252184254Y-67052602D01*
X252174254Y-66842670D01*
X252124704Y-66638424D01*
X252118500Y-66624839D01*
X252037401Y-66447256D01*
X252037398Y-66447251D01*
X252037397Y-66447250D01*
X252037396Y-66447247D01*
X251915486Y-66276048D01*
X251915484Y-66276046D01*
X251915479Y-66276040D01*
X251763379Y-66131014D01*
X251586574Y-66017388D01*
X251391455Y-65939274D01*
X251185086Y-65899500D01*
X251185085Y-65899500D01*
X251027575Y-65899500D01*
X250870803Y-65914470D01*
X250870782Y-65914472D01*
X250870778Y-65914473D01*
X250669127Y-65973683D01*
X250482313Y-66069991D01*
X250317116Y-66199905D01*
X250317112Y-66199909D01*
X250179478Y-66358746D01*
X250074398Y-66540750D01*
X250005656Y-66739365D01*
X250005656Y-66739367D01*
X249979020Y-66924631D01*
X249975746Y-66947401D01*
X249635500Y-66947401D01*
X249635500Y-65314594D01*
X249655185Y-65247555D01*
X249671819Y-65226913D01*
X250353914Y-64544819D01*
X250415237Y-64511334D01*
X250441595Y-64508500D01*
X250495487Y-64508500D01*
X250682288Y-64468794D01*
X250856752Y-64391118D01*
X251011253Y-64278866D01*
X251139040Y-64136944D01*
X251234527Y-63971556D01*
X251293542Y-63789928D01*
X251313504Y-63600000D01*
X251293542Y-63410072D01*
X251234527Y-63228444D01*
X251139040Y-63063056D01*
X251011253Y-62921134D01*
X250856752Y-62808882D01*
X250682288Y-62731206D01*
X250682286Y-62731205D01*
X250495487Y-62691500D01*
X250304513Y-62691500D01*
X250301922Y-62691500D01*
X250234883Y-62671815D01*
X250189128Y-62619011D01*
X250179184Y-62549853D01*
X250183428Y-62530959D01*
X250251396Y-62310615D01*
X250290500Y-62051182D01*
X250290500Y-61788818D01*
X250251396Y-61529385D01*
X250174063Y-61278677D01*
X250162121Y-61253880D01*
X250060232Y-61042303D01*
X250060231Y-61042302D01*
X250060230Y-61042301D01*
X250060228Y-61042296D01*
X249912433Y-60825521D01*
X249902441Y-60814753D01*
X249733985Y-60633198D01*
X249694533Y-60601736D01*
X249528857Y-60469614D01*
X249301643Y-60338432D01*
X249057416Y-60242580D01*
X249057411Y-60242578D01*
X249057402Y-60242576D01*
X248839818Y-60192914D01*
X248801630Y-60184198D01*
X248801629Y-60184197D01*
X248801625Y-60184197D01*
X248801620Y-60184196D01*
X248605515Y-60169500D01*
X248605494Y-60169500D01*
X248474506Y-60169500D01*
X248474484Y-60169500D01*
X248278379Y-60184196D01*
X248278374Y-60184197D01*
X248022597Y-60242576D01*
X248022578Y-60242582D01*
X247778356Y-60338432D01*
X247551143Y-60469614D01*
X247346014Y-60633198D01*
X247167567Y-60825520D01*
X247019768Y-61042302D01*
X247019767Y-61042303D01*
X246905938Y-61278673D01*
X246828606Y-61529376D01*
X246828605Y-61529381D01*
X246828604Y-61529385D01*
X246813853Y-61627247D01*
X246789500Y-61788812D01*
X246789500Y-62051187D01*
X246809794Y-62185823D01*
X246828604Y-62310615D01*
X246828605Y-62310617D01*
X246828606Y-62310623D01*
X246905938Y-62561326D01*
X247019767Y-62797696D01*
X247019768Y-62797697D01*
X247019770Y-62797700D01*
X247019772Y-62797704D01*
X247148242Y-62986134D01*
X247167567Y-63014479D01*
X247346014Y-63206801D01*
X247346018Y-63206804D01*
X247346019Y-63206805D01*
X247551143Y-63370386D01*
X247778357Y-63501568D01*
X248022584Y-63597420D01*
X248278370Y-63655802D01*
X248278376Y-63655802D01*
X248278379Y-63655803D01*
X248474484Y-63670499D01*
X248474503Y-63670499D01*
X248474506Y-63670500D01*
X248474508Y-63670500D01*
X248605492Y-63670500D01*
X248605494Y-63670500D01*
X248605496Y-63670499D01*
X248605515Y-63670499D01*
X248801620Y-63655803D01*
X248801622Y-63655802D01*
X248801630Y-63655802D01*
X249057416Y-63597420D01*
X249239035Y-63526139D01*
X249308629Y-63519971D01*
X249370513Y-63552409D01*
X249405036Y-63613154D01*
X249401237Y-63682920D01*
X249372016Y-63729249D01*
X248609921Y-64491344D01*
X248597531Y-64501272D01*
X248597702Y-64501479D01*
X248591695Y-64506448D01*
X248544898Y-64556281D01*
X248542190Y-64559075D01*
X248522366Y-64578898D01*
X248522365Y-64578900D01*
X248519797Y-64582211D01*
X248512222Y-64591078D01*
X248509937Y-64593512D01*
X248481782Y-64623495D01*
X248481781Y-64623496D01*
X248471900Y-64641468D01*
X248461225Y-64657719D01*
X248448652Y-64673929D01*
X248448650Y-64673933D01*
X248430987Y-64714748D01*
X248425850Y-64725233D01*
X248404430Y-64764197D01*
X248399329Y-64784064D01*
X248393030Y-64802462D01*
X248384884Y-64821287D01*
X248384881Y-64821296D01*
X248377926Y-64865212D01*
X248375557Y-64876650D01*
X248364500Y-64919710D01*
X248364500Y-64940225D01*
X248362973Y-64959624D01*
X248359765Y-64979877D01*
X248363950Y-65024149D01*
X248364500Y-65035819D01*
X248364500Y-66210621D01*
X248344815Y-66277660D01*
X248292011Y-66323415D01*
X248222853Y-66333359D01*
X248159297Y-66304334D01*
X248124786Y-66255188D01*
X248053458Y-66069991D01*
X248045977Y-66050566D01*
X247901175Y-65786335D01*
X247722446Y-65543762D01*
X247512980Y-65327176D01*
X247497047Y-65314594D01*
X247276521Y-65140446D01*
X247276517Y-65140443D01*
X247276515Y-65140442D01*
X247017270Y-64986891D01*
X246739872Y-64869264D01*
X246739863Y-64869261D01*
X246449272Y-64789660D01*
X246374616Y-64779620D01*
X246150653Y-64749500D01*
X245924756Y-64749500D01*
X245924748Y-64749500D01*
X245699368Y-64764587D01*
X245699359Y-64764589D01*
X245404094Y-64824604D01*
X245119464Y-64923439D01*
X245119459Y-64923441D01*
X244850546Y-65059328D01*
X244602125Y-65229860D01*
X244378665Y-65431969D01*
X244184132Y-65662064D01*
X244022006Y-65916030D01*
X244022005Y-65916032D01*
X243919271Y-66137420D01*
X243895177Y-66189342D01*
X243891899Y-66199909D01*
X243805907Y-66477118D01*
X243761672Y-66739365D01*
X243755791Y-66774230D01*
X243750002Y-66947398D01*
X243745723Y-67075373D01*
X243775881Y-67375160D01*
X243775882Y-67375162D01*
X243845728Y-67668252D01*
X243845730Y-67668259D01*
X243845731Y-67668261D01*
X243854676Y-67691487D01*
X243954020Y-67949427D01*
X243954024Y-67949436D01*
X244098825Y-68213665D01*
X244098829Y-68213671D01*
X244277551Y-68456234D01*
X244277554Y-68456238D01*
X244277561Y-68456245D01*
X244487019Y-68672823D01*
X244723478Y-68859553D01*
X244723480Y-68859554D01*
X244723485Y-68859558D01*
X244982730Y-69013109D01*
X245260128Y-69130736D01*
X245550729Y-69210340D01*
X245849347Y-69250500D01*
X245849351Y-69250500D01*
X246075252Y-69250500D01*
X246239164Y-69239526D01*
X246300634Y-69235412D01*
X246595903Y-69175396D01*
X246880537Y-69076560D01*
X247149459Y-68940668D01*
X247397869Y-68770144D01*
X247621333Y-68568032D01*
X247815865Y-68337939D01*
X247977993Y-68083970D01*
X248104823Y-67810658D01*
X248122067Y-67755065D01*
X248160730Y-67696869D01*
X248224720Y-67668813D01*
X248293719Y-67679806D01*
X248345822Y-67726358D01*
X248364500Y-67791805D01*
X248364500Y-69585405D01*
X248344815Y-69652444D01*
X248328181Y-69673086D01*
X241057086Y-76944181D01*
X240995763Y-76977666D01*
X240969405Y-76980500D01*
X224117594Y-76980500D01*
X224050555Y-76960815D01*
X224004800Y-76908011D01*
X223994856Y-76838853D01*
X224023881Y-76775297D01*
X224029913Y-76768819D01*
X227270551Y-73528181D01*
X230590075Y-70208656D01*
X230602458Y-70198738D01*
X230602286Y-70198530D01*
X230608294Y-70193558D01*
X230608303Y-70193553D01*
X230655103Y-70143714D01*
X230657783Y-70140948D01*
X230677639Y-70121094D01*
X230680192Y-70117801D01*
X230687774Y-70108923D01*
X230718217Y-70076506D01*
X230728097Y-70058532D01*
X230738781Y-70042269D01*
X230751349Y-70026067D01*
X230769011Y-69985250D01*
X230774142Y-69974776D01*
X230795569Y-69935803D01*
X230800670Y-69915931D01*
X230806973Y-69897526D01*
X230815117Y-69878708D01*
X230822075Y-69834771D01*
X230824442Y-69823345D01*
X230835500Y-69780282D01*
X230835500Y-69759773D01*
X230837027Y-69740374D01*
X230837751Y-69735803D01*
X230840235Y-69720121D01*
X230836050Y-69675847D01*
X230835500Y-69664179D01*
X230835500Y-67494102D01*
X230855185Y-67427063D01*
X230907989Y-67381308D01*
X230977147Y-67371364D01*
X231040703Y-67400389D01*
X231072293Y-67442589D01*
X231122604Y-67552753D01*
X231244514Y-67723952D01*
X231244515Y-67723953D01*
X231244520Y-67723959D01*
X231396620Y-67868985D01*
X231491578Y-67930011D01*
X231573428Y-67982613D01*
X231768543Y-68060725D01*
X231871729Y-68080612D01*
X231974914Y-68100500D01*
X231974915Y-68100500D01*
X232132419Y-68100500D01*
X232132425Y-68100500D01*
X232289218Y-68085528D01*
X232490875Y-68026316D01*
X232677682Y-67930011D01*
X232842886Y-67800092D01*
X232980519Y-67641256D01*
X233085604Y-67459244D01*
X233154344Y-67260633D01*
X233184254Y-67052602D01*
X233179243Y-66947401D01*
X239815746Y-66947401D01*
X239825745Y-67157327D01*
X239875296Y-67361578D01*
X239875298Y-67361582D01*
X239962598Y-67552743D01*
X239962601Y-67552748D01*
X239962602Y-67552749D01*
X239962604Y-67552753D01*
X240084514Y-67723952D01*
X240084515Y-67723953D01*
X240084520Y-67723959D01*
X240236620Y-67868985D01*
X240331578Y-67930011D01*
X240413428Y-67982613D01*
X240608543Y-68060725D01*
X240711729Y-68080612D01*
X240814914Y-68100500D01*
X240814915Y-68100500D01*
X240972419Y-68100500D01*
X240972425Y-68100500D01*
X241129218Y-68085528D01*
X241330875Y-68026316D01*
X241517682Y-67930011D01*
X241682886Y-67800092D01*
X241820519Y-67641256D01*
X241925604Y-67459244D01*
X241994344Y-67260633D01*
X242024254Y-67052602D01*
X242014254Y-66842670D01*
X241964704Y-66638424D01*
X241958500Y-66624839D01*
X241877401Y-66447256D01*
X241877395Y-66447246D01*
X241838715Y-66392926D01*
X241815863Y-66326899D01*
X241832336Y-66258999D01*
X241882904Y-66210784D01*
X241948989Y-66197347D01*
X242002264Y-66201339D01*
X242124486Y-66210499D01*
X242124502Y-66210499D01*
X242124506Y-66210500D01*
X242124508Y-66210500D01*
X242255492Y-66210500D01*
X242255494Y-66210500D01*
X242255496Y-66210499D01*
X242255515Y-66210499D01*
X242451620Y-66195803D01*
X242451622Y-66195802D01*
X242451630Y-66195802D01*
X242707416Y-66137420D01*
X242951643Y-66041568D01*
X243178857Y-65910386D01*
X243383981Y-65746805D01*
X243562433Y-65554479D01*
X243710228Y-65337704D01*
X243824063Y-65101323D01*
X243901396Y-64850615D01*
X243940500Y-64591182D01*
X243940500Y-64328818D01*
X243901396Y-64069385D01*
X243824063Y-63818677D01*
X243777886Y-63722789D01*
X243710232Y-63582303D01*
X243710231Y-63582302D01*
X243710230Y-63582301D01*
X243710228Y-63582296D01*
X243562433Y-63365521D01*
X243495561Y-63293450D01*
X243383985Y-63173198D01*
X243327380Y-63128057D01*
X243178857Y-63009614D01*
X242951643Y-62878432D01*
X242707416Y-62782580D01*
X242707411Y-62782578D01*
X242707402Y-62782576D01*
X242482329Y-62731205D01*
X242451630Y-62724198D01*
X242451629Y-62724197D01*
X242451625Y-62724197D01*
X242451620Y-62724196D01*
X242255515Y-62709500D01*
X242255494Y-62709500D01*
X242124506Y-62709500D01*
X242124484Y-62709500D01*
X241928379Y-62724196D01*
X241928374Y-62724197D01*
X241672597Y-62782576D01*
X241672578Y-62782582D01*
X241428356Y-62878432D01*
X241201143Y-63009614D01*
X240996014Y-63173198D01*
X240817567Y-63365520D01*
X240669768Y-63582302D01*
X240669767Y-63582303D01*
X240555938Y-63818673D01*
X240478606Y-64069376D01*
X240478605Y-64069381D01*
X240478604Y-64069385D01*
X240469305Y-64131079D01*
X240439500Y-64328812D01*
X240439500Y-64591187D01*
X240451972Y-64673929D01*
X240478604Y-64850615D01*
X240478605Y-64850617D01*
X240478606Y-64850623D01*
X240555938Y-65101326D01*
X240669767Y-65337696D01*
X240669768Y-65337697D01*
X240669770Y-65337700D01*
X240669772Y-65337704D01*
X240734041Y-65431969D01*
X240817567Y-65554479D01*
X240945052Y-65691876D01*
X240976220Y-65754409D01*
X240968633Y-65823865D01*
X240924699Y-65878194D01*
X240865941Y-65899655D01*
X240710792Y-65914470D01*
X240710783Y-65914471D01*
X240710782Y-65914472D01*
X240710780Y-65914472D01*
X240710778Y-65914473D01*
X240509127Y-65973683D01*
X240322313Y-66069991D01*
X240157116Y-66199905D01*
X240157112Y-66199909D01*
X240019478Y-66358746D01*
X239914398Y-66540750D01*
X239845656Y-66739365D01*
X239845656Y-66739367D01*
X239819020Y-66924631D01*
X239815746Y-66947401D01*
X233179243Y-66947401D01*
X233174254Y-66842670D01*
X233124704Y-66638424D01*
X233118500Y-66624839D01*
X233037401Y-66447256D01*
X233037398Y-66447251D01*
X233037397Y-66447250D01*
X233037396Y-66447247D01*
X232915486Y-66276048D01*
X232915484Y-66276046D01*
X232915479Y-66276040D01*
X232763379Y-66131014D01*
X232586574Y-66017388D01*
X232391455Y-65939274D01*
X232185086Y-65899500D01*
X232185085Y-65899500D01*
X232027575Y-65899500D01*
X231870803Y-65914470D01*
X231870782Y-65914472D01*
X231870778Y-65914473D01*
X231669127Y-65973683D01*
X231482313Y-66069991D01*
X231317116Y-66199905D01*
X231317112Y-66199909D01*
X231179478Y-66358746D01*
X231074397Y-66540752D01*
X231072298Y-66545350D01*
X231026547Y-66598158D01*
X230959509Y-66617847D01*
X230892468Y-66598167D01*
X230846709Y-66545367D01*
X230835500Y-66493847D01*
X230835500Y-65314594D01*
X230855185Y-65247555D01*
X230871819Y-65226913D01*
X231353913Y-64744819D01*
X231415236Y-64711334D01*
X231441594Y-64708500D01*
X231495487Y-64708500D01*
X231682288Y-64668794D01*
X231856752Y-64591118D01*
X232011253Y-64478866D01*
X232139040Y-64336944D01*
X232234527Y-64171556D01*
X232293542Y-63989928D01*
X232313504Y-63800000D01*
X232293542Y-63610072D01*
X232234527Y-63428444D01*
X232139040Y-63263056D01*
X232023981Y-63135270D01*
X232011254Y-63121135D01*
X231938198Y-63068056D01*
X231856752Y-63008882D01*
X231682288Y-62931206D01*
X231682286Y-62931205D01*
X231495487Y-62891500D01*
X231304513Y-62891500D01*
X231304512Y-62891500D01*
X231229165Y-62907515D01*
X231159498Y-62902199D01*
X231103765Y-62860061D01*
X231079660Y-62794481D01*
X231091664Y-62732425D01*
X231174063Y-62561323D01*
X231251396Y-62310615D01*
X231290500Y-62051182D01*
X231290500Y-61788818D01*
X231251396Y-61529385D01*
X231174063Y-61278677D01*
X231162121Y-61253880D01*
X231060232Y-61042303D01*
X231060231Y-61042302D01*
X231060230Y-61042301D01*
X231060228Y-61042296D01*
X230912433Y-60825521D01*
X230902441Y-60814753D01*
X230733985Y-60633198D01*
X230694533Y-60601736D01*
X230528857Y-60469614D01*
X230301643Y-60338432D01*
X230057416Y-60242580D01*
X230057411Y-60242578D01*
X230057402Y-60242576D01*
X229839818Y-60192914D01*
X229801630Y-60184198D01*
X229801629Y-60184197D01*
X229801625Y-60184197D01*
X229801620Y-60184196D01*
X229605515Y-60169500D01*
X229605494Y-60169500D01*
X229474506Y-60169500D01*
X229474484Y-60169500D01*
X229278379Y-60184196D01*
X229278374Y-60184197D01*
X229022597Y-60242576D01*
X229022578Y-60242582D01*
X228778356Y-60338432D01*
X228551143Y-60469614D01*
X228346014Y-60633198D01*
X228167567Y-60825520D01*
X228019768Y-61042302D01*
X228019767Y-61042303D01*
X227905938Y-61278673D01*
X227828606Y-61529376D01*
X227828605Y-61529381D01*
X227828604Y-61529385D01*
X227813853Y-61627247D01*
X227789500Y-61788812D01*
X227789500Y-62051187D01*
X227809794Y-62185823D01*
X227828604Y-62310615D01*
X227828605Y-62310617D01*
X227828606Y-62310623D01*
X227905938Y-62561326D01*
X228019767Y-62797696D01*
X228019768Y-62797697D01*
X228019770Y-62797700D01*
X228019772Y-62797704D01*
X228148242Y-62986134D01*
X228167567Y-63014479D01*
X228346014Y-63206801D01*
X228346018Y-63206804D01*
X228346019Y-63206805D01*
X228551143Y-63370386D01*
X228778357Y-63501568D01*
X229022584Y-63597420D01*
X229278370Y-63655802D01*
X229278376Y-63655802D01*
X229278379Y-63655803D01*
X229474484Y-63670499D01*
X229474503Y-63670499D01*
X229474506Y-63670500D01*
X229474508Y-63670500D01*
X229605492Y-63670500D01*
X229605494Y-63670500D01*
X229605496Y-63670499D01*
X229605515Y-63670499D01*
X229801620Y-63655803D01*
X229801622Y-63655802D01*
X229801630Y-63655802D01*
X230057416Y-63597420D01*
X230301643Y-63501568D01*
X230321069Y-63490352D01*
X230388965Y-63473877D01*
X230454993Y-63496726D01*
X230498186Y-63551646D01*
X230506392Y-63610698D01*
X230489351Y-63772834D01*
X230462767Y-63837449D01*
X230453711Y-63847554D01*
X229809921Y-64491344D01*
X229797531Y-64501272D01*
X229797702Y-64501479D01*
X229791695Y-64506448D01*
X229744898Y-64556281D01*
X229742190Y-64559075D01*
X229722366Y-64578898D01*
X229722365Y-64578900D01*
X229719797Y-64582211D01*
X229712222Y-64591078D01*
X229709937Y-64593512D01*
X229681782Y-64623495D01*
X229681781Y-64623496D01*
X229671900Y-64641468D01*
X229661225Y-64657719D01*
X229648652Y-64673929D01*
X229648650Y-64673933D01*
X229630987Y-64714748D01*
X229625850Y-64725233D01*
X229604430Y-64764197D01*
X229599329Y-64784064D01*
X229593030Y-64802462D01*
X229584884Y-64821287D01*
X229584881Y-64821296D01*
X229577926Y-64865212D01*
X229575557Y-64876650D01*
X229564500Y-64919710D01*
X229564500Y-64940225D01*
X229562973Y-64959624D01*
X229559765Y-64979877D01*
X229563950Y-65024149D01*
X229564500Y-65035819D01*
X229564500Y-69385405D01*
X229544815Y-69452444D01*
X229528181Y-69473086D01*
X222565086Y-76436181D01*
X222503763Y-76469666D01*
X222477405Y-76472500D01*
X205625594Y-76472500D01*
X205558555Y-76452815D01*
X205512800Y-76400011D01*
X205502856Y-76330853D01*
X205531881Y-76267297D01*
X205537913Y-76260819D01*
X208270551Y-73528181D01*
X211590075Y-70208656D01*
X211602458Y-70198738D01*
X211602286Y-70198530D01*
X211608294Y-70193558D01*
X211608303Y-70193553D01*
X211655103Y-70143714D01*
X211657783Y-70140948D01*
X211677639Y-70121094D01*
X211680192Y-70117801D01*
X211687775Y-70108921D01*
X211718217Y-70076506D01*
X211728099Y-70058529D01*
X211738771Y-70042282D01*
X211751350Y-70026066D01*
X211769016Y-69985237D01*
X211774148Y-69974766D01*
X211795569Y-69935803D01*
X211800670Y-69915931D01*
X211806973Y-69897526D01*
X211815117Y-69878708D01*
X211822075Y-69834771D01*
X211824442Y-69823345D01*
X211835500Y-69780282D01*
X211835500Y-69759773D01*
X211837027Y-69740373D01*
X211840235Y-69720120D01*
X211838099Y-69697524D01*
X211836050Y-69675847D01*
X211835500Y-69664178D01*
X211835500Y-67494102D01*
X211855185Y-67427063D01*
X211907989Y-67381308D01*
X211977147Y-67371364D01*
X212040703Y-67400389D01*
X212072293Y-67442589D01*
X212122604Y-67552753D01*
X212244514Y-67723952D01*
X212244515Y-67723953D01*
X212244520Y-67723959D01*
X212396620Y-67868985D01*
X212491578Y-67930011D01*
X212573428Y-67982613D01*
X212768543Y-68060725D01*
X212871729Y-68080612D01*
X212974914Y-68100500D01*
X212974915Y-68100500D01*
X213132419Y-68100500D01*
X213132425Y-68100500D01*
X213289218Y-68085528D01*
X213490875Y-68026316D01*
X213677682Y-67930011D01*
X213842886Y-67800092D01*
X213980519Y-67641256D01*
X214085604Y-67459244D01*
X214154344Y-67260633D01*
X214184254Y-67052602D01*
X214179243Y-66947401D01*
X220815746Y-66947401D01*
X220825745Y-67157327D01*
X220875296Y-67361578D01*
X220875298Y-67361582D01*
X220962598Y-67552743D01*
X220962601Y-67552748D01*
X220962602Y-67552749D01*
X220962604Y-67552753D01*
X221084514Y-67723952D01*
X221084515Y-67723953D01*
X221084520Y-67723959D01*
X221236620Y-67868985D01*
X221331578Y-67930011D01*
X221413428Y-67982613D01*
X221608543Y-68060725D01*
X221711729Y-68080612D01*
X221814914Y-68100500D01*
X221814915Y-68100500D01*
X221972419Y-68100500D01*
X221972425Y-68100500D01*
X222129218Y-68085528D01*
X222330875Y-68026316D01*
X222517682Y-67930011D01*
X222682886Y-67800092D01*
X222820519Y-67641256D01*
X222925604Y-67459244D01*
X222994344Y-67260633D01*
X223020980Y-67075373D01*
X224745723Y-67075373D01*
X224775881Y-67375160D01*
X224775882Y-67375162D01*
X224845728Y-67668252D01*
X224845730Y-67668259D01*
X224845731Y-67668261D01*
X224854676Y-67691487D01*
X224954020Y-67949427D01*
X224954024Y-67949436D01*
X225098825Y-68213665D01*
X225098829Y-68213671D01*
X225277551Y-68456234D01*
X225277554Y-68456238D01*
X225277561Y-68456245D01*
X225487019Y-68672823D01*
X225723478Y-68859553D01*
X225723480Y-68859554D01*
X225723485Y-68859558D01*
X225982730Y-69013109D01*
X226260128Y-69130736D01*
X226550729Y-69210340D01*
X226849347Y-69250500D01*
X226849351Y-69250500D01*
X227075252Y-69250500D01*
X227239164Y-69239526D01*
X227300634Y-69235412D01*
X227595903Y-69175396D01*
X227880537Y-69076560D01*
X228149459Y-68940668D01*
X228397869Y-68770144D01*
X228621333Y-68568032D01*
X228815865Y-68337939D01*
X228977993Y-68083970D01*
X229104823Y-67810658D01*
X229194093Y-67522879D01*
X229244209Y-67225770D01*
X229254277Y-66924631D01*
X229224118Y-66624838D01*
X229154269Y-66331739D01*
X229045977Y-66050566D01*
X228901175Y-65786335D01*
X228722446Y-65543762D01*
X228512980Y-65327176D01*
X228497047Y-65314594D01*
X228276521Y-65140446D01*
X228276517Y-65140443D01*
X228276515Y-65140442D01*
X228017270Y-64986891D01*
X227739872Y-64869264D01*
X227739863Y-64869261D01*
X227449272Y-64789660D01*
X227374616Y-64779620D01*
X227150653Y-64749500D01*
X226924756Y-64749500D01*
X226924748Y-64749500D01*
X226699368Y-64764587D01*
X226699359Y-64764589D01*
X226404094Y-64824604D01*
X226119464Y-64923439D01*
X226119459Y-64923441D01*
X225850546Y-65059328D01*
X225602125Y-65229860D01*
X225378665Y-65431969D01*
X225184132Y-65662064D01*
X225022006Y-65916030D01*
X225022005Y-65916032D01*
X224919271Y-66137420D01*
X224895177Y-66189342D01*
X224891899Y-66199909D01*
X224805907Y-66477118D01*
X224761672Y-66739365D01*
X224755791Y-66774230D01*
X224750002Y-66947398D01*
X224745723Y-67075373D01*
X223020980Y-67075373D01*
X223024254Y-67052602D01*
X223014254Y-66842670D01*
X222964704Y-66638424D01*
X222958500Y-66624839D01*
X222877401Y-66447256D01*
X222877395Y-66447246D01*
X222838715Y-66392926D01*
X222815863Y-66326899D01*
X222832336Y-66258999D01*
X222882904Y-66210784D01*
X222948989Y-66197347D01*
X223002264Y-66201339D01*
X223124486Y-66210499D01*
X223124502Y-66210499D01*
X223124506Y-66210500D01*
X223124508Y-66210500D01*
X223255492Y-66210500D01*
X223255494Y-66210500D01*
X223255496Y-66210499D01*
X223255515Y-66210499D01*
X223451620Y-66195803D01*
X223451622Y-66195802D01*
X223451630Y-66195802D01*
X223707416Y-66137420D01*
X223951643Y-66041568D01*
X224178857Y-65910386D01*
X224383981Y-65746805D01*
X224562433Y-65554479D01*
X224710228Y-65337704D01*
X224824063Y-65101323D01*
X224901396Y-64850615D01*
X224940500Y-64591182D01*
X224940500Y-64328818D01*
X224901396Y-64069385D01*
X224824063Y-63818677D01*
X224777886Y-63722789D01*
X224710232Y-63582303D01*
X224710231Y-63582302D01*
X224710230Y-63582301D01*
X224710228Y-63582296D01*
X224562433Y-63365521D01*
X224495561Y-63293450D01*
X224383985Y-63173198D01*
X224327380Y-63128057D01*
X224178857Y-63009614D01*
X223951643Y-62878432D01*
X223707416Y-62782580D01*
X223707411Y-62782578D01*
X223707402Y-62782576D01*
X223482329Y-62731205D01*
X223451630Y-62724198D01*
X223451629Y-62724197D01*
X223451625Y-62724197D01*
X223451620Y-62724196D01*
X223255515Y-62709500D01*
X223255494Y-62709500D01*
X223124506Y-62709500D01*
X223124484Y-62709500D01*
X222928379Y-62724196D01*
X222928374Y-62724197D01*
X222672597Y-62782576D01*
X222672578Y-62782582D01*
X222428356Y-62878432D01*
X222201143Y-63009614D01*
X221996014Y-63173198D01*
X221817567Y-63365520D01*
X221669768Y-63582302D01*
X221669767Y-63582303D01*
X221555938Y-63818673D01*
X221478606Y-64069376D01*
X221478605Y-64069381D01*
X221478604Y-64069385D01*
X221469305Y-64131079D01*
X221439500Y-64328812D01*
X221439500Y-64591187D01*
X221451972Y-64673929D01*
X221478604Y-64850615D01*
X221478605Y-64850617D01*
X221478606Y-64850623D01*
X221555938Y-65101326D01*
X221669767Y-65337696D01*
X221669768Y-65337697D01*
X221669770Y-65337700D01*
X221669772Y-65337704D01*
X221734041Y-65431969D01*
X221817567Y-65554479D01*
X221945052Y-65691876D01*
X221976220Y-65754409D01*
X221968633Y-65823865D01*
X221924699Y-65878194D01*
X221865941Y-65899655D01*
X221710792Y-65914470D01*
X221710783Y-65914471D01*
X221710782Y-65914472D01*
X221710780Y-65914472D01*
X221710778Y-65914473D01*
X221509127Y-65973683D01*
X221322313Y-66069991D01*
X221157116Y-66199905D01*
X221157112Y-66199909D01*
X221019478Y-66358746D01*
X220914398Y-66540750D01*
X220845656Y-66739365D01*
X220845656Y-66739367D01*
X220819020Y-66924631D01*
X220815746Y-66947401D01*
X214179243Y-66947401D01*
X214174254Y-66842670D01*
X214124704Y-66638424D01*
X214118500Y-66624839D01*
X214037401Y-66447256D01*
X214037398Y-66447251D01*
X214037397Y-66447250D01*
X214037396Y-66447247D01*
X213915486Y-66276048D01*
X213915484Y-66276046D01*
X213915479Y-66276040D01*
X213763379Y-66131014D01*
X213586574Y-66017388D01*
X213391455Y-65939274D01*
X213185086Y-65899500D01*
X213185085Y-65899500D01*
X213027575Y-65899500D01*
X212870803Y-65914470D01*
X212870782Y-65914472D01*
X212870778Y-65914473D01*
X212669127Y-65973683D01*
X212482313Y-66069991D01*
X212317116Y-66199905D01*
X212317112Y-66199909D01*
X212179478Y-66358746D01*
X212074397Y-66540752D01*
X212072298Y-66545350D01*
X212026547Y-66598158D01*
X211959509Y-66617847D01*
X211892468Y-66598167D01*
X211846709Y-66545367D01*
X211835500Y-66493847D01*
X211835500Y-65114594D01*
X211855185Y-65047555D01*
X211871819Y-65026913D01*
X212353913Y-64544819D01*
X212415236Y-64511334D01*
X212441594Y-64508500D01*
X212495487Y-64508500D01*
X212682288Y-64468794D01*
X212856752Y-64391118D01*
X213011253Y-64278866D01*
X213139040Y-64136944D01*
X213234527Y-63971556D01*
X213293542Y-63789928D01*
X213313504Y-63600000D01*
X213293542Y-63410072D01*
X213234527Y-63228444D01*
X213139040Y-63063056D01*
X213011253Y-62921134D01*
X212856752Y-62808882D01*
X212682288Y-62731206D01*
X212682286Y-62731205D01*
X212495487Y-62691500D01*
X212304513Y-62691500D01*
X212301922Y-62691500D01*
X212234883Y-62671815D01*
X212189128Y-62619011D01*
X212179184Y-62549853D01*
X212183428Y-62530959D01*
X212251396Y-62310615D01*
X212290500Y-62051182D01*
X212290500Y-61788818D01*
X212251396Y-61529385D01*
X212174063Y-61278677D01*
X212162121Y-61253880D01*
X212060232Y-61042303D01*
X212060231Y-61042302D01*
X212060230Y-61042301D01*
X212060228Y-61042296D01*
X211912433Y-60825521D01*
X211902441Y-60814753D01*
X211733985Y-60633198D01*
X211694533Y-60601736D01*
X211528857Y-60469614D01*
X211301643Y-60338432D01*
X211057416Y-60242580D01*
X211057411Y-60242578D01*
X211057402Y-60242576D01*
X210839818Y-60192914D01*
X210801630Y-60184198D01*
X210801629Y-60184197D01*
X210801625Y-60184197D01*
X210801620Y-60184196D01*
X210605515Y-60169500D01*
X210605494Y-60169500D01*
X210474506Y-60169500D01*
X210474484Y-60169500D01*
X210278379Y-60184196D01*
X210278374Y-60184197D01*
X210022597Y-60242576D01*
X210022578Y-60242582D01*
X209778356Y-60338432D01*
X209551143Y-60469614D01*
X209346014Y-60633198D01*
X209167567Y-60825520D01*
X209019768Y-61042302D01*
X209019767Y-61042303D01*
X208905938Y-61278673D01*
X208828606Y-61529376D01*
X208828605Y-61529381D01*
X208828604Y-61529385D01*
X208813853Y-61627247D01*
X208789500Y-61788812D01*
X208789500Y-62051187D01*
X208809794Y-62185823D01*
X208828604Y-62310615D01*
X208828605Y-62310617D01*
X208828606Y-62310623D01*
X208905938Y-62561326D01*
X209019767Y-62797696D01*
X209019768Y-62797697D01*
X209019770Y-62797700D01*
X209019772Y-62797704D01*
X209148242Y-62986134D01*
X209167567Y-63014479D01*
X209346014Y-63206801D01*
X209346018Y-63206804D01*
X209346019Y-63206805D01*
X209551143Y-63370386D01*
X209778357Y-63501568D01*
X210022584Y-63597420D01*
X210278370Y-63655802D01*
X210278376Y-63655802D01*
X210278379Y-63655803D01*
X210474484Y-63670499D01*
X210474503Y-63670499D01*
X210474506Y-63670500D01*
X210474508Y-63670500D01*
X210605492Y-63670500D01*
X210605494Y-63670500D01*
X210605496Y-63670499D01*
X210605515Y-63670499D01*
X210801620Y-63655803D01*
X210801622Y-63655802D01*
X210801630Y-63655802D01*
X211057416Y-63597420D01*
X211239035Y-63526139D01*
X211308629Y-63519971D01*
X211370513Y-63552409D01*
X211405036Y-63613154D01*
X211401237Y-63682920D01*
X211372016Y-63729249D01*
X210809921Y-64291344D01*
X210797531Y-64301272D01*
X210797702Y-64301479D01*
X210791695Y-64306448D01*
X210744898Y-64356281D01*
X210742190Y-64359075D01*
X210722366Y-64378898D01*
X210722365Y-64378900D01*
X210719797Y-64382211D01*
X210712221Y-64391080D01*
X210681782Y-64423495D01*
X210681781Y-64423496D01*
X210671900Y-64441468D01*
X210661225Y-64457719D01*
X210648652Y-64473929D01*
X210648650Y-64473933D01*
X210630987Y-64514748D01*
X210625850Y-64525233D01*
X210604430Y-64564197D01*
X210599329Y-64584064D01*
X210593030Y-64602462D01*
X210584884Y-64621287D01*
X210584881Y-64621296D01*
X210577926Y-64665212D01*
X210575557Y-64676650D01*
X210564500Y-64719710D01*
X210564500Y-64740225D01*
X210562973Y-64759624D01*
X210559765Y-64779877D01*
X210563950Y-64824149D01*
X210564500Y-64835819D01*
X210564500Y-69385405D01*
X210544815Y-69452444D01*
X210528181Y-69473086D01*
X204073086Y-75928181D01*
X204011763Y-75961666D01*
X203985405Y-75964500D01*
X187133594Y-75964500D01*
X187066555Y-75944815D01*
X187020800Y-75892011D01*
X187010856Y-75822853D01*
X187039881Y-75759297D01*
X187045913Y-75752819D01*
X188245913Y-74552819D01*
X192590072Y-70208658D01*
X192602461Y-70198735D01*
X192602289Y-70198528D01*
X192608298Y-70193555D01*
X192608303Y-70193553D01*
X192655149Y-70143665D01*
X192657798Y-70140932D01*
X192677638Y-70121094D01*
X192680183Y-70117813D01*
X192687776Y-70108922D01*
X192718217Y-70076506D01*
X192728102Y-70058524D01*
X192738773Y-70042278D01*
X192751349Y-70026067D01*
X192769011Y-69985250D01*
X192774142Y-69974776D01*
X192795569Y-69935803D01*
X192800670Y-69915931D01*
X192806973Y-69897526D01*
X192815117Y-69878708D01*
X192822075Y-69834771D01*
X192824442Y-69823345D01*
X192835500Y-69780282D01*
X192835500Y-69759773D01*
X192837027Y-69740374D01*
X192837751Y-69735803D01*
X192840235Y-69720121D01*
X192836050Y-69675847D01*
X192835500Y-69664179D01*
X192835500Y-67494102D01*
X192855185Y-67427063D01*
X192907989Y-67381308D01*
X192977147Y-67371364D01*
X193040703Y-67400389D01*
X193072293Y-67442589D01*
X193122604Y-67552753D01*
X193244514Y-67723952D01*
X193244515Y-67723953D01*
X193244520Y-67723959D01*
X193396620Y-67868985D01*
X193491578Y-67930011D01*
X193573428Y-67982613D01*
X193768543Y-68060725D01*
X193871729Y-68080612D01*
X193974914Y-68100500D01*
X193974915Y-68100500D01*
X194132419Y-68100500D01*
X194132425Y-68100500D01*
X194289218Y-68085528D01*
X194490875Y-68026316D01*
X194677682Y-67930011D01*
X194842886Y-67800092D01*
X194980519Y-67641256D01*
X195085604Y-67459244D01*
X195154344Y-67260633D01*
X195184254Y-67052602D01*
X195179243Y-66947401D01*
X201815746Y-66947401D01*
X201825745Y-67157327D01*
X201875296Y-67361578D01*
X201875298Y-67361582D01*
X201962598Y-67552743D01*
X201962601Y-67552748D01*
X201962602Y-67552749D01*
X201962604Y-67552753D01*
X202084514Y-67723952D01*
X202084515Y-67723953D01*
X202084520Y-67723959D01*
X202236620Y-67868985D01*
X202331578Y-67930011D01*
X202413428Y-67982613D01*
X202608543Y-68060725D01*
X202711729Y-68080612D01*
X202814914Y-68100500D01*
X202814915Y-68100500D01*
X202972419Y-68100500D01*
X202972425Y-68100500D01*
X203129218Y-68085528D01*
X203330875Y-68026316D01*
X203517682Y-67930011D01*
X203682886Y-67800092D01*
X203820519Y-67641256D01*
X203925604Y-67459244D01*
X203994344Y-67260633D01*
X204020980Y-67075373D01*
X205745723Y-67075373D01*
X205775881Y-67375160D01*
X205775882Y-67375162D01*
X205845728Y-67668252D01*
X205845730Y-67668259D01*
X205845731Y-67668261D01*
X205854676Y-67691487D01*
X205954020Y-67949427D01*
X205954024Y-67949436D01*
X206098825Y-68213665D01*
X206098829Y-68213671D01*
X206277551Y-68456234D01*
X206277554Y-68456238D01*
X206277561Y-68456245D01*
X206487019Y-68672823D01*
X206723478Y-68859553D01*
X206723480Y-68859554D01*
X206723485Y-68859558D01*
X206982730Y-69013109D01*
X207260128Y-69130736D01*
X207550729Y-69210340D01*
X207849347Y-69250500D01*
X207849351Y-69250500D01*
X208075252Y-69250500D01*
X208239164Y-69239526D01*
X208300634Y-69235412D01*
X208595903Y-69175396D01*
X208880537Y-69076560D01*
X209149459Y-68940668D01*
X209397869Y-68770144D01*
X209621333Y-68568032D01*
X209815865Y-68337939D01*
X209977993Y-68083970D01*
X210104823Y-67810658D01*
X210194093Y-67522879D01*
X210244209Y-67225770D01*
X210254277Y-66924631D01*
X210224118Y-66624838D01*
X210154269Y-66331739D01*
X210045977Y-66050566D01*
X209901175Y-65786335D01*
X209722446Y-65543762D01*
X209512980Y-65327176D01*
X209497047Y-65314594D01*
X209276521Y-65140446D01*
X209276517Y-65140443D01*
X209276515Y-65140442D01*
X209017270Y-64986891D01*
X208739872Y-64869264D01*
X208739863Y-64869261D01*
X208449272Y-64789660D01*
X208374616Y-64779620D01*
X208150653Y-64749500D01*
X207924756Y-64749500D01*
X207924748Y-64749500D01*
X207699368Y-64764587D01*
X207699359Y-64764589D01*
X207404094Y-64824604D01*
X207119464Y-64923439D01*
X207119459Y-64923441D01*
X206850546Y-65059328D01*
X206602125Y-65229860D01*
X206378665Y-65431969D01*
X206184132Y-65662064D01*
X206022006Y-65916030D01*
X206022005Y-65916032D01*
X205919271Y-66137420D01*
X205895177Y-66189342D01*
X205891899Y-66199909D01*
X205805907Y-66477118D01*
X205761672Y-66739365D01*
X205755791Y-66774230D01*
X205750002Y-66947398D01*
X205745723Y-67075373D01*
X204020980Y-67075373D01*
X204024254Y-67052602D01*
X204014254Y-66842670D01*
X203964704Y-66638424D01*
X203958500Y-66624839D01*
X203877401Y-66447256D01*
X203877395Y-66447246D01*
X203838715Y-66392926D01*
X203815863Y-66326899D01*
X203832336Y-66258999D01*
X203882904Y-66210784D01*
X203948989Y-66197347D01*
X204002264Y-66201339D01*
X204124486Y-66210499D01*
X204124502Y-66210499D01*
X204124506Y-66210500D01*
X204124508Y-66210500D01*
X204255492Y-66210500D01*
X204255494Y-66210500D01*
X204255496Y-66210499D01*
X204255515Y-66210499D01*
X204451620Y-66195803D01*
X204451622Y-66195802D01*
X204451630Y-66195802D01*
X204707416Y-66137420D01*
X204951643Y-66041568D01*
X205178857Y-65910386D01*
X205383981Y-65746805D01*
X205562433Y-65554479D01*
X205710228Y-65337704D01*
X205824063Y-65101323D01*
X205901396Y-64850615D01*
X205940500Y-64591182D01*
X205940500Y-64328818D01*
X205901396Y-64069385D01*
X205824063Y-63818677D01*
X205777886Y-63722789D01*
X205710232Y-63582303D01*
X205710231Y-63582302D01*
X205710230Y-63582301D01*
X205710228Y-63582296D01*
X205562433Y-63365521D01*
X205495561Y-63293450D01*
X205383985Y-63173198D01*
X205327380Y-63128057D01*
X205178857Y-63009614D01*
X204951643Y-62878432D01*
X204707416Y-62782580D01*
X204707411Y-62782578D01*
X204707402Y-62782576D01*
X204482329Y-62731205D01*
X204451630Y-62724198D01*
X204451629Y-62724197D01*
X204451625Y-62724197D01*
X204451620Y-62724196D01*
X204255515Y-62709500D01*
X204255494Y-62709500D01*
X204124506Y-62709500D01*
X204124484Y-62709500D01*
X203928379Y-62724196D01*
X203928374Y-62724197D01*
X203672597Y-62782576D01*
X203672578Y-62782582D01*
X203428356Y-62878432D01*
X203201143Y-63009614D01*
X202996014Y-63173198D01*
X202817567Y-63365520D01*
X202669768Y-63582302D01*
X202669767Y-63582303D01*
X202555938Y-63818673D01*
X202478606Y-64069376D01*
X202478605Y-64069381D01*
X202478604Y-64069385D01*
X202469305Y-64131079D01*
X202439500Y-64328812D01*
X202439500Y-64591187D01*
X202451972Y-64673929D01*
X202478604Y-64850615D01*
X202478605Y-64850617D01*
X202478606Y-64850623D01*
X202555938Y-65101326D01*
X202669767Y-65337696D01*
X202669768Y-65337697D01*
X202669770Y-65337700D01*
X202669772Y-65337704D01*
X202734041Y-65431969D01*
X202817567Y-65554479D01*
X202945052Y-65691876D01*
X202976220Y-65754409D01*
X202968633Y-65823865D01*
X202924699Y-65878194D01*
X202865941Y-65899655D01*
X202710792Y-65914470D01*
X202710783Y-65914471D01*
X202710782Y-65914472D01*
X202710780Y-65914472D01*
X202710778Y-65914473D01*
X202509127Y-65973683D01*
X202322313Y-66069991D01*
X202157116Y-66199905D01*
X202157112Y-66199909D01*
X202019478Y-66358746D01*
X201914398Y-66540750D01*
X201845656Y-66739365D01*
X201845656Y-66739367D01*
X201819020Y-66924631D01*
X201815746Y-66947401D01*
X195179243Y-66947401D01*
X195174254Y-66842670D01*
X195124704Y-66638424D01*
X195118500Y-66624839D01*
X195037401Y-66447256D01*
X195037398Y-66447251D01*
X195037397Y-66447250D01*
X195037396Y-66447247D01*
X194915486Y-66276048D01*
X194915484Y-66276046D01*
X194915479Y-66276040D01*
X194763379Y-66131014D01*
X194586574Y-66017388D01*
X194391455Y-65939274D01*
X194185086Y-65899500D01*
X194185085Y-65899500D01*
X194027575Y-65899500D01*
X193870803Y-65914470D01*
X193870782Y-65914472D01*
X193870778Y-65914473D01*
X193669127Y-65973683D01*
X193482313Y-66069991D01*
X193317116Y-66199905D01*
X193317112Y-66199909D01*
X193179478Y-66358746D01*
X193074397Y-66540752D01*
X193072298Y-66545350D01*
X193026547Y-66598158D01*
X192959509Y-66617847D01*
X192892468Y-66598167D01*
X192846709Y-66545367D01*
X192835500Y-66493847D01*
X192835500Y-65114594D01*
X192855185Y-65047555D01*
X192871819Y-65026913D01*
X193353913Y-64544819D01*
X193415236Y-64511334D01*
X193441594Y-64508500D01*
X193495487Y-64508500D01*
X193682288Y-64468794D01*
X193856752Y-64391118D01*
X194011253Y-64278866D01*
X194139040Y-64136944D01*
X194234527Y-63971556D01*
X194293542Y-63789928D01*
X194313504Y-63600000D01*
X194293542Y-63410072D01*
X194234527Y-63228444D01*
X194139040Y-63063056D01*
X194011253Y-62921134D01*
X193856752Y-62808882D01*
X193682288Y-62731206D01*
X193682286Y-62731205D01*
X193495487Y-62691500D01*
X193304513Y-62691500D01*
X193301922Y-62691500D01*
X193234883Y-62671815D01*
X193189128Y-62619011D01*
X193179184Y-62549853D01*
X193183428Y-62530959D01*
X193251396Y-62310615D01*
X193290500Y-62051182D01*
X193290500Y-61788818D01*
X193251396Y-61529385D01*
X193174063Y-61278677D01*
X193162121Y-61253880D01*
X193060232Y-61042303D01*
X193060231Y-61042302D01*
X193060230Y-61042301D01*
X193060228Y-61042296D01*
X192912433Y-60825521D01*
X192902441Y-60814753D01*
X192733985Y-60633198D01*
X192694533Y-60601736D01*
X192528857Y-60469614D01*
X192301643Y-60338432D01*
X192057416Y-60242580D01*
X192057411Y-60242578D01*
X192057402Y-60242576D01*
X191839818Y-60192914D01*
X191801630Y-60184198D01*
X191801629Y-60184197D01*
X191801625Y-60184197D01*
X191801620Y-60184196D01*
X191605515Y-60169500D01*
X191605494Y-60169500D01*
X191474506Y-60169500D01*
X191474484Y-60169500D01*
X191278379Y-60184196D01*
X191278374Y-60184197D01*
X191022597Y-60242576D01*
X191022578Y-60242582D01*
X190778356Y-60338432D01*
X190551143Y-60469614D01*
X190346014Y-60633198D01*
X190167567Y-60825520D01*
X190019768Y-61042302D01*
X190019767Y-61042303D01*
X189905938Y-61278673D01*
X189828606Y-61529376D01*
X189828605Y-61529381D01*
X189828604Y-61529385D01*
X189813853Y-61627247D01*
X189789500Y-61788812D01*
X189789500Y-62051187D01*
X189809794Y-62185823D01*
X189828604Y-62310615D01*
X189828605Y-62310617D01*
X189828606Y-62310623D01*
X189905938Y-62561326D01*
X190019767Y-62797696D01*
X190019768Y-62797697D01*
X190019770Y-62797700D01*
X190019772Y-62797704D01*
X190148242Y-62986134D01*
X190167567Y-63014479D01*
X190346014Y-63206801D01*
X190346018Y-63206804D01*
X190346019Y-63206805D01*
X190551143Y-63370386D01*
X190778357Y-63501568D01*
X191022584Y-63597420D01*
X191278370Y-63655802D01*
X191278376Y-63655802D01*
X191278379Y-63655803D01*
X191474484Y-63670499D01*
X191474503Y-63670499D01*
X191474506Y-63670500D01*
X191474508Y-63670500D01*
X191605492Y-63670500D01*
X191605494Y-63670500D01*
X191605496Y-63670499D01*
X191605515Y-63670499D01*
X191801620Y-63655803D01*
X191801622Y-63655802D01*
X191801630Y-63655802D01*
X192057416Y-63597420D01*
X192239035Y-63526139D01*
X192308629Y-63519971D01*
X192370513Y-63552409D01*
X192405036Y-63613154D01*
X192401237Y-63682920D01*
X192372016Y-63729249D01*
X191809921Y-64291344D01*
X191797531Y-64301272D01*
X191797702Y-64301479D01*
X191791695Y-64306448D01*
X191744898Y-64356281D01*
X191742190Y-64359075D01*
X191722366Y-64378898D01*
X191722365Y-64378900D01*
X191719797Y-64382211D01*
X191712221Y-64391080D01*
X191681782Y-64423495D01*
X191681781Y-64423496D01*
X191671900Y-64441468D01*
X191661225Y-64457719D01*
X191648652Y-64473929D01*
X191648650Y-64473933D01*
X191630987Y-64514748D01*
X191625850Y-64525233D01*
X191604430Y-64564197D01*
X191599329Y-64584064D01*
X191593030Y-64602462D01*
X191584884Y-64621287D01*
X191584881Y-64621296D01*
X191577926Y-64665212D01*
X191575557Y-64676650D01*
X191564500Y-64719710D01*
X191564500Y-64740225D01*
X191562973Y-64759624D01*
X191559765Y-64779877D01*
X191563950Y-64824149D01*
X191564500Y-64835819D01*
X191564500Y-69385405D01*
X191544815Y-69452444D01*
X191528181Y-69473086D01*
X185673086Y-75328181D01*
X185611763Y-75361666D01*
X185585405Y-75364500D01*
X168733594Y-75364500D01*
X168666555Y-75344815D01*
X168620800Y-75292011D01*
X168610856Y-75222853D01*
X168639881Y-75159297D01*
X168645913Y-75152819D01*
X169845913Y-73952819D01*
X173590072Y-70208658D01*
X173602461Y-70198735D01*
X173602289Y-70198528D01*
X173608298Y-70193555D01*
X173608303Y-70193553D01*
X173655149Y-70143665D01*
X173657798Y-70140932D01*
X173677638Y-70121094D01*
X173680183Y-70117813D01*
X173687776Y-70108922D01*
X173718217Y-70076506D01*
X173728102Y-70058524D01*
X173738773Y-70042278D01*
X173751349Y-70026067D01*
X173769011Y-69985250D01*
X173774142Y-69974776D01*
X173795569Y-69935803D01*
X173800670Y-69915931D01*
X173806973Y-69897526D01*
X173815117Y-69878708D01*
X173822075Y-69834771D01*
X173824442Y-69823345D01*
X173835500Y-69780282D01*
X173835500Y-69759773D01*
X173837027Y-69740374D01*
X173837751Y-69735803D01*
X173840235Y-69720121D01*
X173836050Y-69675847D01*
X173835500Y-69664179D01*
X173835500Y-67494102D01*
X173855185Y-67427063D01*
X173907989Y-67381308D01*
X173977147Y-67371364D01*
X174040703Y-67400389D01*
X174072293Y-67442589D01*
X174122604Y-67552753D01*
X174244514Y-67723952D01*
X174244515Y-67723953D01*
X174244520Y-67723959D01*
X174396620Y-67868985D01*
X174491578Y-67930011D01*
X174573428Y-67982613D01*
X174768543Y-68060725D01*
X174871729Y-68080612D01*
X174974914Y-68100500D01*
X174974915Y-68100500D01*
X175132419Y-68100500D01*
X175132425Y-68100500D01*
X175289218Y-68085528D01*
X175490875Y-68026316D01*
X175677682Y-67930011D01*
X175842886Y-67800092D01*
X175980519Y-67641256D01*
X176085604Y-67459244D01*
X176154344Y-67260633D01*
X176184254Y-67052602D01*
X176179243Y-66947401D01*
X182815746Y-66947401D01*
X182825745Y-67157327D01*
X182875296Y-67361578D01*
X182875298Y-67361582D01*
X182962598Y-67552743D01*
X182962601Y-67552748D01*
X182962602Y-67552749D01*
X182962604Y-67552753D01*
X183084514Y-67723952D01*
X183084515Y-67723953D01*
X183084520Y-67723959D01*
X183236620Y-67868985D01*
X183331578Y-67930011D01*
X183413428Y-67982613D01*
X183608543Y-68060725D01*
X183711729Y-68080612D01*
X183814914Y-68100500D01*
X183814915Y-68100500D01*
X183972419Y-68100500D01*
X183972425Y-68100500D01*
X184129218Y-68085528D01*
X184330875Y-68026316D01*
X184517682Y-67930011D01*
X184682886Y-67800092D01*
X184820519Y-67641256D01*
X184925604Y-67459244D01*
X184994344Y-67260633D01*
X185020980Y-67075373D01*
X186745723Y-67075373D01*
X186775881Y-67375160D01*
X186775882Y-67375162D01*
X186845728Y-67668252D01*
X186845730Y-67668259D01*
X186845731Y-67668261D01*
X186854676Y-67691487D01*
X186954020Y-67949427D01*
X186954024Y-67949436D01*
X187098825Y-68213665D01*
X187098829Y-68213671D01*
X187277551Y-68456234D01*
X187277554Y-68456238D01*
X187277561Y-68456245D01*
X187487019Y-68672823D01*
X187723478Y-68859553D01*
X187723480Y-68859554D01*
X187723485Y-68859558D01*
X187982730Y-69013109D01*
X188260128Y-69130736D01*
X188550729Y-69210340D01*
X188849347Y-69250500D01*
X188849351Y-69250500D01*
X189075252Y-69250500D01*
X189239164Y-69239526D01*
X189300634Y-69235412D01*
X189595903Y-69175396D01*
X189880537Y-69076560D01*
X190149459Y-68940668D01*
X190397869Y-68770144D01*
X190621333Y-68568032D01*
X190815865Y-68337939D01*
X190977993Y-68083970D01*
X191104823Y-67810658D01*
X191194093Y-67522879D01*
X191244209Y-67225770D01*
X191254277Y-66924631D01*
X191224118Y-66624838D01*
X191154269Y-66331739D01*
X191045977Y-66050566D01*
X190901175Y-65786335D01*
X190722446Y-65543762D01*
X190512980Y-65327176D01*
X190497047Y-65314594D01*
X190276521Y-65140446D01*
X190276517Y-65140443D01*
X190276515Y-65140442D01*
X190017270Y-64986891D01*
X189739872Y-64869264D01*
X189739863Y-64869261D01*
X189449272Y-64789660D01*
X189374616Y-64779620D01*
X189150653Y-64749500D01*
X188924756Y-64749500D01*
X188924748Y-64749500D01*
X188699368Y-64764587D01*
X188699359Y-64764589D01*
X188404094Y-64824604D01*
X188119464Y-64923439D01*
X188119459Y-64923441D01*
X187850546Y-65059328D01*
X187602125Y-65229860D01*
X187378665Y-65431969D01*
X187184132Y-65662064D01*
X187022006Y-65916030D01*
X187022005Y-65916032D01*
X186919271Y-66137420D01*
X186895177Y-66189342D01*
X186891899Y-66199909D01*
X186805907Y-66477118D01*
X186761672Y-66739365D01*
X186755791Y-66774230D01*
X186750002Y-66947398D01*
X186745723Y-67075373D01*
X185020980Y-67075373D01*
X185024254Y-67052602D01*
X185014254Y-66842670D01*
X184964704Y-66638424D01*
X184958500Y-66624839D01*
X184877401Y-66447256D01*
X184877395Y-66447246D01*
X184838715Y-66392926D01*
X184815863Y-66326899D01*
X184832336Y-66258999D01*
X184882904Y-66210784D01*
X184948989Y-66197347D01*
X185002264Y-66201339D01*
X185124486Y-66210499D01*
X185124502Y-66210499D01*
X185124506Y-66210500D01*
X185124508Y-66210500D01*
X185255492Y-66210500D01*
X185255494Y-66210500D01*
X185255496Y-66210499D01*
X185255515Y-66210499D01*
X185451620Y-66195803D01*
X185451622Y-66195802D01*
X185451630Y-66195802D01*
X185707416Y-66137420D01*
X185951643Y-66041568D01*
X186178857Y-65910386D01*
X186383981Y-65746805D01*
X186562433Y-65554479D01*
X186710228Y-65337704D01*
X186824063Y-65101323D01*
X186901396Y-64850615D01*
X186940500Y-64591182D01*
X186940500Y-64328818D01*
X186901396Y-64069385D01*
X186824063Y-63818677D01*
X186777886Y-63722789D01*
X186710232Y-63582303D01*
X186710231Y-63582302D01*
X186710230Y-63582301D01*
X186710228Y-63582296D01*
X186562433Y-63365521D01*
X186495561Y-63293450D01*
X186383985Y-63173198D01*
X186327380Y-63128057D01*
X186178857Y-63009614D01*
X185951643Y-62878432D01*
X185707416Y-62782580D01*
X185707411Y-62782578D01*
X185707402Y-62782576D01*
X185482329Y-62731205D01*
X185451630Y-62724198D01*
X185451629Y-62724197D01*
X185451625Y-62724197D01*
X185451620Y-62724196D01*
X185255515Y-62709500D01*
X185255494Y-62709500D01*
X185124506Y-62709500D01*
X185124484Y-62709500D01*
X184928379Y-62724196D01*
X184928374Y-62724197D01*
X184672597Y-62782576D01*
X184672578Y-62782582D01*
X184428356Y-62878432D01*
X184201143Y-63009614D01*
X183996014Y-63173198D01*
X183817567Y-63365520D01*
X183669768Y-63582302D01*
X183669767Y-63582303D01*
X183555938Y-63818673D01*
X183478606Y-64069376D01*
X183478605Y-64069381D01*
X183478604Y-64069385D01*
X183469305Y-64131079D01*
X183439500Y-64328812D01*
X183439500Y-64591187D01*
X183451972Y-64673929D01*
X183478604Y-64850615D01*
X183478605Y-64850617D01*
X183478606Y-64850623D01*
X183555938Y-65101326D01*
X183669767Y-65337696D01*
X183669768Y-65337697D01*
X183669770Y-65337700D01*
X183669772Y-65337704D01*
X183734041Y-65431969D01*
X183817567Y-65554479D01*
X183945052Y-65691876D01*
X183976220Y-65754409D01*
X183968633Y-65823865D01*
X183924699Y-65878194D01*
X183865941Y-65899655D01*
X183710792Y-65914470D01*
X183710783Y-65914471D01*
X183710782Y-65914472D01*
X183710780Y-65914472D01*
X183710778Y-65914473D01*
X183509127Y-65973683D01*
X183322313Y-66069991D01*
X183157116Y-66199905D01*
X183157112Y-66199909D01*
X183019478Y-66358746D01*
X182914398Y-66540750D01*
X182845656Y-66739365D01*
X182845656Y-66739367D01*
X182819020Y-66924631D01*
X182815746Y-66947401D01*
X176179243Y-66947401D01*
X176174254Y-66842670D01*
X176124704Y-66638424D01*
X176118500Y-66624839D01*
X176037401Y-66447256D01*
X176037398Y-66447251D01*
X176037397Y-66447250D01*
X176037396Y-66447247D01*
X175915486Y-66276048D01*
X175915484Y-66276046D01*
X175915479Y-66276040D01*
X175763379Y-66131014D01*
X175586574Y-66017388D01*
X175391455Y-65939274D01*
X175185086Y-65899500D01*
X175185085Y-65899500D01*
X175027575Y-65899500D01*
X174870803Y-65914470D01*
X174870782Y-65914472D01*
X174870778Y-65914473D01*
X174669127Y-65973683D01*
X174482313Y-66069991D01*
X174317116Y-66199905D01*
X174317112Y-66199909D01*
X174179478Y-66358746D01*
X174074397Y-66540752D01*
X174072298Y-66545350D01*
X174026547Y-66598158D01*
X173959509Y-66617847D01*
X173892468Y-66598167D01*
X173846709Y-66545367D01*
X173835500Y-66493847D01*
X173835500Y-65114594D01*
X173855185Y-65047555D01*
X173871819Y-65026913D01*
X174153914Y-64744819D01*
X174215237Y-64711334D01*
X174241595Y-64708500D01*
X174295487Y-64708500D01*
X174482288Y-64668794D01*
X174656752Y-64591118D01*
X174811253Y-64478866D01*
X174939040Y-64336944D01*
X175034527Y-64171556D01*
X175093542Y-63989928D01*
X175113504Y-63800000D01*
X175093542Y-63610072D01*
X175034527Y-63428444D01*
X174939040Y-63263056D01*
X174823981Y-63135270D01*
X174811254Y-63121135D01*
X174738198Y-63068056D01*
X174656752Y-63008882D01*
X174482288Y-62931206D01*
X174482286Y-62931205D01*
X174295487Y-62891500D01*
X174212403Y-62891500D01*
X174145364Y-62871815D01*
X174099609Y-62819011D01*
X174089665Y-62749853D01*
X174100683Y-62713699D01*
X174148284Y-62614853D01*
X174174063Y-62561323D01*
X174251396Y-62310615D01*
X174290500Y-62051182D01*
X174290500Y-61788818D01*
X174251396Y-61529385D01*
X174174063Y-61278677D01*
X174162121Y-61253880D01*
X174060232Y-61042303D01*
X174060231Y-61042302D01*
X174060230Y-61042301D01*
X174060228Y-61042296D01*
X173912433Y-60825521D01*
X173902441Y-60814753D01*
X173733985Y-60633198D01*
X173694533Y-60601736D01*
X173528857Y-60469614D01*
X173301643Y-60338432D01*
X173057416Y-60242580D01*
X173057411Y-60242578D01*
X173057402Y-60242576D01*
X172839818Y-60192914D01*
X172801630Y-60184198D01*
X172801629Y-60184197D01*
X172801625Y-60184197D01*
X172801620Y-60184196D01*
X172605515Y-60169500D01*
X172605494Y-60169500D01*
X172474506Y-60169500D01*
X172474484Y-60169500D01*
X172278379Y-60184196D01*
X172278374Y-60184197D01*
X172022597Y-60242576D01*
X172022578Y-60242582D01*
X171778356Y-60338432D01*
X171551143Y-60469614D01*
X171346014Y-60633198D01*
X171167567Y-60825520D01*
X171019768Y-61042302D01*
X171019767Y-61042303D01*
X170905938Y-61278673D01*
X170828606Y-61529376D01*
X170828605Y-61529381D01*
X170828604Y-61529385D01*
X170813853Y-61627247D01*
X170789500Y-61788812D01*
X170789500Y-62051187D01*
X170809794Y-62185823D01*
X170828604Y-62310615D01*
X170828605Y-62310617D01*
X170828606Y-62310623D01*
X170905938Y-62561326D01*
X171019767Y-62797696D01*
X171019768Y-62797697D01*
X171019770Y-62797700D01*
X171019772Y-62797704D01*
X171148242Y-62986134D01*
X171167567Y-63014479D01*
X171346014Y-63206801D01*
X171346018Y-63206804D01*
X171346019Y-63206805D01*
X171551143Y-63370386D01*
X171778357Y-63501568D01*
X172022584Y-63597420D01*
X172278370Y-63655802D01*
X172278376Y-63655802D01*
X172278379Y-63655803D01*
X172474484Y-63670499D01*
X172474503Y-63670499D01*
X172474506Y-63670500D01*
X172474508Y-63670500D01*
X172605492Y-63670500D01*
X172605494Y-63670500D01*
X172605496Y-63670499D01*
X172605515Y-63670499D01*
X172801620Y-63655803D01*
X172801622Y-63655802D01*
X172801630Y-63655802D01*
X173057416Y-63597420D01*
X173128609Y-63569478D01*
X173198203Y-63563310D01*
X173260087Y-63595747D01*
X173294609Y-63656492D01*
X173297230Y-63697868D01*
X173289351Y-63772834D01*
X173262767Y-63837449D01*
X173253711Y-63847554D01*
X172809921Y-64291344D01*
X172797531Y-64301272D01*
X172797702Y-64301479D01*
X172791695Y-64306448D01*
X172744898Y-64356281D01*
X172742190Y-64359075D01*
X172722366Y-64378898D01*
X172722365Y-64378900D01*
X172719797Y-64382211D01*
X172712221Y-64391080D01*
X172681782Y-64423495D01*
X172681781Y-64423496D01*
X172671900Y-64441468D01*
X172661225Y-64457719D01*
X172648652Y-64473929D01*
X172648650Y-64473933D01*
X172630987Y-64514748D01*
X172625850Y-64525233D01*
X172604430Y-64564197D01*
X172599329Y-64584064D01*
X172593030Y-64602462D01*
X172584884Y-64621287D01*
X172584881Y-64621296D01*
X172577926Y-64665212D01*
X172575557Y-64676650D01*
X172564500Y-64719710D01*
X172564500Y-64740225D01*
X172562973Y-64759624D01*
X172559765Y-64779877D01*
X172563950Y-64824149D01*
X172564500Y-64835819D01*
X172564500Y-69385405D01*
X172544815Y-69452444D01*
X172528181Y-69473086D01*
X167273086Y-74728181D01*
X167211763Y-74761666D01*
X167185405Y-74764500D01*
X150333594Y-74764500D01*
X150266555Y-74744815D01*
X150220800Y-74692011D01*
X150210856Y-74622853D01*
X150239881Y-74559297D01*
X150245913Y-74552819D01*
X151270551Y-73528181D01*
X154790075Y-70008656D01*
X154802458Y-69998738D01*
X154802286Y-69998530D01*
X154808294Y-69993558D01*
X154808303Y-69993553D01*
X154855103Y-69943714D01*
X154857783Y-69940948D01*
X154877639Y-69921094D01*
X154880192Y-69917801D01*
X154887774Y-69908923D01*
X154918217Y-69876506D01*
X154928094Y-69858537D01*
X154938779Y-69842272D01*
X154944582Y-69834791D01*
X154951350Y-69826067D01*
X154969019Y-69785234D01*
X154974145Y-69774770D01*
X154995569Y-69735803D01*
X155000670Y-69715930D01*
X155006969Y-69697534D01*
X155015117Y-69678708D01*
X155022072Y-69634787D01*
X155024442Y-69623347D01*
X155025461Y-69619378D01*
X155035500Y-69580282D01*
X155035500Y-69559774D01*
X155037027Y-69540374D01*
X155040235Y-69520121D01*
X155036050Y-69475848D01*
X155035500Y-69464179D01*
X155035500Y-67814225D01*
X155055185Y-67747186D01*
X155107989Y-67701431D01*
X155177147Y-67691487D01*
X155240703Y-67720512D01*
X155245070Y-67724482D01*
X155396623Y-67868987D01*
X155491578Y-67930011D01*
X155573428Y-67982613D01*
X155768543Y-68060725D01*
X155871729Y-68080612D01*
X155974914Y-68100500D01*
X155974915Y-68100500D01*
X156132419Y-68100500D01*
X156132425Y-68100500D01*
X156289218Y-68085528D01*
X156490875Y-68026316D01*
X156677682Y-67930011D01*
X156842886Y-67800092D01*
X156980519Y-67641256D01*
X157085604Y-67459244D01*
X157154344Y-67260633D01*
X157184254Y-67052602D01*
X157179243Y-66947401D01*
X163815746Y-66947401D01*
X163825745Y-67157327D01*
X163875296Y-67361578D01*
X163875298Y-67361582D01*
X163962598Y-67552743D01*
X163962601Y-67552748D01*
X163962602Y-67552749D01*
X163962604Y-67552753D01*
X164084514Y-67723952D01*
X164084515Y-67723953D01*
X164084520Y-67723959D01*
X164236620Y-67868985D01*
X164331578Y-67930011D01*
X164413428Y-67982613D01*
X164608543Y-68060725D01*
X164711729Y-68080612D01*
X164814914Y-68100500D01*
X164814915Y-68100500D01*
X164972419Y-68100500D01*
X164972425Y-68100500D01*
X165129218Y-68085528D01*
X165330875Y-68026316D01*
X165517682Y-67930011D01*
X165682886Y-67800092D01*
X165820519Y-67641256D01*
X165925604Y-67459244D01*
X165994344Y-67260633D01*
X166020980Y-67075373D01*
X167745723Y-67075373D01*
X167775881Y-67375160D01*
X167775882Y-67375162D01*
X167845728Y-67668252D01*
X167845730Y-67668259D01*
X167845731Y-67668261D01*
X167854676Y-67691487D01*
X167954020Y-67949427D01*
X167954024Y-67949436D01*
X168098825Y-68213665D01*
X168098829Y-68213671D01*
X168277551Y-68456234D01*
X168277554Y-68456238D01*
X168277561Y-68456245D01*
X168487019Y-68672823D01*
X168723478Y-68859553D01*
X168723480Y-68859554D01*
X168723485Y-68859558D01*
X168982730Y-69013109D01*
X169260128Y-69130736D01*
X169550729Y-69210340D01*
X169849347Y-69250500D01*
X169849351Y-69250500D01*
X170075252Y-69250500D01*
X170239164Y-69239526D01*
X170300634Y-69235412D01*
X170595903Y-69175396D01*
X170880537Y-69076560D01*
X171149459Y-68940668D01*
X171397869Y-68770144D01*
X171621333Y-68568032D01*
X171815865Y-68337939D01*
X171977993Y-68083970D01*
X172104823Y-67810658D01*
X172194093Y-67522879D01*
X172244209Y-67225770D01*
X172254277Y-66924631D01*
X172224118Y-66624838D01*
X172154269Y-66331739D01*
X172045977Y-66050566D01*
X171901175Y-65786335D01*
X171722446Y-65543762D01*
X171512980Y-65327176D01*
X171497047Y-65314594D01*
X171276521Y-65140446D01*
X171276517Y-65140443D01*
X171276515Y-65140442D01*
X171017270Y-64986891D01*
X170739872Y-64869264D01*
X170739863Y-64869261D01*
X170449272Y-64789660D01*
X170374616Y-64779620D01*
X170150653Y-64749500D01*
X169924756Y-64749500D01*
X169924748Y-64749500D01*
X169699368Y-64764587D01*
X169699359Y-64764589D01*
X169404094Y-64824604D01*
X169119464Y-64923439D01*
X169119459Y-64923441D01*
X168850546Y-65059328D01*
X168602125Y-65229860D01*
X168378665Y-65431969D01*
X168184132Y-65662064D01*
X168022006Y-65916030D01*
X168022005Y-65916032D01*
X167919271Y-66137420D01*
X167895177Y-66189342D01*
X167891899Y-66199909D01*
X167805907Y-66477118D01*
X167761672Y-66739365D01*
X167755791Y-66774230D01*
X167750002Y-66947398D01*
X167745723Y-67075373D01*
X166020980Y-67075373D01*
X166024254Y-67052602D01*
X166014254Y-66842670D01*
X165964704Y-66638424D01*
X165958500Y-66624839D01*
X165877401Y-66447256D01*
X165877395Y-66447246D01*
X165838715Y-66392926D01*
X165815863Y-66326899D01*
X165832336Y-66258999D01*
X165882904Y-66210784D01*
X165948989Y-66197347D01*
X166002264Y-66201339D01*
X166124486Y-66210499D01*
X166124502Y-66210499D01*
X166124506Y-66210500D01*
X166124508Y-66210500D01*
X166255492Y-66210500D01*
X166255494Y-66210500D01*
X166255496Y-66210499D01*
X166255515Y-66210499D01*
X166451620Y-66195803D01*
X166451622Y-66195802D01*
X166451630Y-66195802D01*
X166707416Y-66137420D01*
X166951643Y-66041568D01*
X167178857Y-65910386D01*
X167383981Y-65746805D01*
X167562433Y-65554479D01*
X167710228Y-65337704D01*
X167824063Y-65101323D01*
X167901396Y-64850615D01*
X167940500Y-64591182D01*
X167940500Y-64328818D01*
X167901396Y-64069385D01*
X167824063Y-63818677D01*
X167777886Y-63722789D01*
X167710232Y-63582303D01*
X167710231Y-63582302D01*
X167710230Y-63582301D01*
X167710228Y-63582296D01*
X167562433Y-63365521D01*
X167495561Y-63293450D01*
X167383985Y-63173198D01*
X167327380Y-63128057D01*
X167178857Y-63009614D01*
X166951643Y-62878432D01*
X166707416Y-62782580D01*
X166707411Y-62782578D01*
X166707402Y-62782576D01*
X166482329Y-62731205D01*
X166451630Y-62724198D01*
X166451629Y-62724197D01*
X166451625Y-62724197D01*
X166451620Y-62724196D01*
X166255515Y-62709500D01*
X166255494Y-62709500D01*
X166124506Y-62709500D01*
X166124484Y-62709500D01*
X165928379Y-62724196D01*
X165928374Y-62724197D01*
X165672597Y-62782576D01*
X165672578Y-62782582D01*
X165428356Y-62878432D01*
X165201143Y-63009614D01*
X164996014Y-63173198D01*
X164817567Y-63365520D01*
X164669768Y-63582302D01*
X164669767Y-63582303D01*
X164555938Y-63818673D01*
X164478606Y-64069376D01*
X164478605Y-64069381D01*
X164478604Y-64069385D01*
X164469305Y-64131079D01*
X164439500Y-64328812D01*
X164439500Y-64591187D01*
X164451972Y-64673929D01*
X164478604Y-64850615D01*
X164478605Y-64850617D01*
X164478606Y-64850623D01*
X164555938Y-65101326D01*
X164669767Y-65337696D01*
X164669768Y-65337697D01*
X164669770Y-65337700D01*
X164669772Y-65337704D01*
X164734041Y-65431969D01*
X164817567Y-65554479D01*
X164945052Y-65691876D01*
X164976220Y-65754409D01*
X164968633Y-65823865D01*
X164924699Y-65878194D01*
X164865941Y-65899655D01*
X164710792Y-65914470D01*
X164710783Y-65914471D01*
X164710782Y-65914472D01*
X164710780Y-65914472D01*
X164710778Y-65914473D01*
X164509127Y-65973683D01*
X164322313Y-66069991D01*
X164157116Y-66199905D01*
X164157112Y-66199909D01*
X164019478Y-66358746D01*
X163914398Y-66540750D01*
X163845656Y-66739365D01*
X163845656Y-66739367D01*
X163819020Y-66924631D01*
X163815746Y-66947401D01*
X157179243Y-66947401D01*
X157174254Y-66842670D01*
X157124704Y-66638424D01*
X157118500Y-66624839D01*
X157037401Y-66447256D01*
X157037398Y-66447251D01*
X157037397Y-66447250D01*
X157037396Y-66447247D01*
X156915486Y-66276048D01*
X156915484Y-66276046D01*
X156915479Y-66276040D01*
X156763379Y-66131014D01*
X156586574Y-66017388D01*
X156391455Y-65939274D01*
X156185086Y-65899500D01*
X156185085Y-65899500D01*
X156027575Y-65899500D01*
X155870803Y-65914470D01*
X155870782Y-65914472D01*
X155870778Y-65914473D01*
X155669127Y-65973683D01*
X155482313Y-66069991D01*
X155317116Y-66199905D01*
X155317112Y-66199909D01*
X155253213Y-66273653D01*
X155194434Y-66311427D01*
X155124565Y-66311427D01*
X155065787Y-66273652D01*
X155036762Y-66210097D01*
X155035500Y-66192450D01*
X155035500Y-64924594D01*
X155055185Y-64857555D01*
X155071819Y-64836913D01*
X155358914Y-64549819D01*
X155420237Y-64516334D01*
X155446595Y-64513500D01*
X155500487Y-64513500D01*
X155687288Y-64473794D01*
X155861752Y-64396118D01*
X156016253Y-64283866D01*
X156144040Y-64141944D01*
X156239527Y-63976556D01*
X156298542Y-63794928D01*
X156318504Y-63605000D01*
X156298542Y-63415072D01*
X156239527Y-63233444D01*
X156144040Y-63068056D01*
X156016253Y-62926134D01*
X155861752Y-62813882D01*
X155687288Y-62736206D01*
X155687286Y-62736205D01*
X155500487Y-62696500D01*
X155309513Y-62696500D01*
X155303014Y-62696500D01*
X155303014Y-62694236D01*
X155244515Y-62683533D01*
X155193494Y-62635798D01*
X155176381Y-62568056D01*
X155181798Y-62536245D01*
X155251396Y-62310615D01*
X155290500Y-62051182D01*
X155290500Y-61788818D01*
X155251396Y-61529385D01*
X155174063Y-61278677D01*
X155162121Y-61253880D01*
X155060232Y-61042303D01*
X155060231Y-61042302D01*
X155060230Y-61042301D01*
X155060228Y-61042296D01*
X154912433Y-60825521D01*
X154902441Y-60814753D01*
X154733985Y-60633198D01*
X154694533Y-60601736D01*
X154528857Y-60469614D01*
X154301643Y-60338432D01*
X154057416Y-60242580D01*
X154057411Y-60242578D01*
X154057402Y-60242576D01*
X153839818Y-60192914D01*
X153801630Y-60184198D01*
X153801629Y-60184197D01*
X153801625Y-60184197D01*
X153801620Y-60184196D01*
X153605515Y-60169500D01*
X153605494Y-60169500D01*
X153474506Y-60169500D01*
X153474484Y-60169500D01*
X153278379Y-60184196D01*
X153278374Y-60184197D01*
X153022597Y-60242576D01*
X153022578Y-60242582D01*
X152778356Y-60338432D01*
X152551143Y-60469614D01*
X152346014Y-60633198D01*
X152167567Y-60825520D01*
X152019768Y-61042302D01*
X152019767Y-61042303D01*
X151905938Y-61278673D01*
X151828606Y-61529376D01*
X151828605Y-61529381D01*
X151828604Y-61529385D01*
X151813853Y-61627247D01*
X151789500Y-61788812D01*
X151789500Y-62051187D01*
X151809794Y-62185823D01*
X151828604Y-62310615D01*
X151828605Y-62310617D01*
X151828606Y-62310623D01*
X151905938Y-62561326D01*
X152019767Y-62797696D01*
X152019768Y-62797697D01*
X152019770Y-62797700D01*
X152019772Y-62797704D01*
X152148242Y-62986134D01*
X152167567Y-63014479D01*
X152346014Y-63206801D01*
X152346018Y-63206804D01*
X152346019Y-63206805D01*
X152551143Y-63370386D01*
X152778357Y-63501568D01*
X153022584Y-63597420D01*
X153278370Y-63655802D01*
X153278376Y-63655802D01*
X153278379Y-63655803D01*
X153474484Y-63670499D01*
X153474503Y-63670499D01*
X153474506Y-63670500D01*
X153474508Y-63670500D01*
X153605492Y-63670500D01*
X153605494Y-63670500D01*
X153605496Y-63670499D01*
X153605515Y-63670499D01*
X153801620Y-63655803D01*
X153801622Y-63655802D01*
X153801630Y-63655802D01*
X154057416Y-63597420D01*
X154255494Y-63519679D01*
X154325089Y-63513511D01*
X154386973Y-63545949D01*
X154421496Y-63606694D01*
X154417697Y-63676460D01*
X154388476Y-63722789D01*
X154009921Y-64101344D01*
X153997531Y-64111272D01*
X153997702Y-64111479D01*
X153991695Y-64116448D01*
X153944898Y-64166281D01*
X153942190Y-64169075D01*
X153922366Y-64188898D01*
X153922365Y-64188900D01*
X153919797Y-64192211D01*
X153912222Y-64201078D01*
X153911410Y-64201944D01*
X153881782Y-64233495D01*
X153881781Y-64233496D01*
X153871900Y-64251468D01*
X153861225Y-64267719D01*
X153848652Y-64283929D01*
X153848650Y-64283933D01*
X153830987Y-64324748D01*
X153825850Y-64335233D01*
X153804430Y-64374197D01*
X153799329Y-64394064D01*
X153793030Y-64412462D01*
X153784884Y-64431287D01*
X153784881Y-64431296D01*
X153777926Y-64475212D01*
X153775557Y-64486650D01*
X153764500Y-64529710D01*
X153764500Y-64550225D01*
X153762972Y-64569624D01*
X153759765Y-64589879D01*
X153761650Y-64609819D01*
X153763950Y-64634149D01*
X153764500Y-64645819D01*
X153764500Y-69185405D01*
X153744815Y-69252444D01*
X153728181Y-69273086D01*
X148873086Y-74128181D01*
X148811763Y-74161666D01*
X148785405Y-74164500D01*
X132833594Y-74164500D01*
X132766555Y-74144815D01*
X132720800Y-74092011D01*
X132710856Y-74022853D01*
X132739881Y-73959297D01*
X132745913Y-73952819D01*
X133170551Y-73528181D01*
X135590075Y-71108656D01*
X135602458Y-71098738D01*
X135602286Y-71098530D01*
X135608294Y-71093558D01*
X135608303Y-71093553D01*
X135655103Y-71043714D01*
X135657783Y-71040948D01*
X135677639Y-71021094D01*
X135680192Y-71017801D01*
X135687774Y-71008923D01*
X135718217Y-70976506D01*
X135728094Y-70958537D01*
X135738779Y-70942272D01*
X135751350Y-70926067D01*
X135769019Y-70885234D01*
X135774145Y-70874770D01*
X135795569Y-70835803D01*
X135800670Y-70815930D01*
X135806969Y-70797534D01*
X135815117Y-70778708D01*
X135822072Y-70734787D01*
X135824442Y-70723347D01*
X135825461Y-70719378D01*
X135835500Y-70680282D01*
X135835500Y-70659774D01*
X135837027Y-70640374D01*
X135840235Y-70620121D01*
X135836050Y-70575848D01*
X135835500Y-70564179D01*
X135835500Y-67494102D01*
X135855185Y-67427063D01*
X135907989Y-67381308D01*
X135977147Y-67371364D01*
X136040703Y-67400389D01*
X136072293Y-67442589D01*
X136122604Y-67552753D01*
X136244514Y-67723952D01*
X136244515Y-67723953D01*
X136244520Y-67723959D01*
X136396620Y-67868985D01*
X136491578Y-67930011D01*
X136573428Y-67982613D01*
X136768543Y-68060725D01*
X136871729Y-68080612D01*
X136974914Y-68100500D01*
X136974915Y-68100500D01*
X137132419Y-68100500D01*
X137132425Y-68100500D01*
X137289218Y-68085528D01*
X137490875Y-68026316D01*
X137677682Y-67930011D01*
X137842886Y-67800092D01*
X137980519Y-67641256D01*
X138085604Y-67459244D01*
X138154344Y-67260633D01*
X138184254Y-67052602D01*
X138179243Y-66947401D01*
X144815746Y-66947401D01*
X144825745Y-67157327D01*
X144875296Y-67361578D01*
X144875298Y-67361582D01*
X144962598Y-67552743D01*
X144962601Y-67552748D01*
X144962602Y-67552749D01*
X144962604Y-67552753D01*
X145084514Y-67723952D01*
X145084515Y-67723953D01*
X145084520Y-67723959D01*
X145236620Y-67868985D01*
X145331578Y-67930011D01*
X145413428Y-67982613D01*
X145608543Y-68060725D01*
X145711729Y-68080612D01*
X145814914Y-68100500D01*
X145814915Y-68100500D01*
X145972419Y-68100500D01*
X145972425Y-68100500D01*
X146129218Y-68085528D01*
X146330875Y-68026316D01*
X146517682Y-67930011D01*
X146682886Y-67800092D01*
X146820519Y-67641256D01*
X146925604Y-67459244D01*
X146994344Y-67260633D01*
X147020980Y-67075373D01*
X148745723Y-67075373D01*
X148775881Y-67375160D01*
X148775882Y-67375162D01*
X148845728Y-67668252D01*
X148845730Y-67668259D01*
X148845731Y-67668261D01*
X148854676Y-67691487D01*
X148954020Y-67949427D01*
X148954024Y-67949436D01*
X149098825Y-68213665D01*
X149098829Y-68213671D01*
X149277551Y-68456234D01*
X149277554Y-68456238D01*
X149277561Y-68456245D01*
X149487019Y-68672823D01*
X149723478Y-68859553D01*
X149723480Y-68859554D01*
X149723485Y-68859558D01*
X149982730Y-69013109D01*
X150260128Y-69130736D01*
X150550729Y-69210340D01*
X150849347Y-69250500D01*
X150849351Y-69250500D01*
X151075252Y-69250500D01*
X151239164Y-69239526D01*
X151300634Y-69235412D01*
X151595903Y-69175396D01*
X151880537Y-69076560D01*
X152149459Y-68940668D01*
X152397869Y-68770144D01*
X152621333Y-68568032D01*
X152815865Y-68337939D01*
X152977993Y-68083970D01*
X153104823Y-67810658D01*
X153194093Y-67522879D01*
X153244209Y-67225770D01*
X153254277Y-66924631D01*
X153224118Y-66624838D01*
X153154269Y-66331739D01*
X153045977Y-66050566D01*
X152901175Y-65786335D01*
X152722446Y-65543762D01*
X152512980Y-65327176D01*
X152497047Y-65314594D01*
X152276521Y-65140446D01*
X152276517Y-65140443D01*
X152276515Y-65140442D01*
X152017270Y-64986891D01*
X151739872Y-64869264D01*
X151739863Y-64869261D01*
X151449272Y-64789660D01*
X151374616Y-64779620D01*
X151150653Y-64749500D01*
X150924756Y-64749500D01*
X150924748Y-64749500D01*
X150699368Y-64764587D01*
X150699359Y-64764589D01*
X150404094Y-64824604D01*
X150119464Y-64923439D01*
X150119459Y-64923441D01*
X149850546Y-65059328D01*
X149602125Y-65229860D01*
X149378665Y-65431969D01*
X149184132Y-65662064D01*
X149022006Y-65916030D01*
X149022005Y-65916032D01*
X148919271Y-66137420D01*
X148895177Y-66189342D01*
X148891899Y-66199909D01*
X148805907Y-66477118D01*
X148761672Y-66739365D01*
X148755791Y-66774230D01*
X148750002Y-66947398D01*
X148745723Y-67075373D01*
X147020980Y-67075373D01*
X147024254Y-67052602D01*
X147014254Y-66842670D01*
X146964704Y-66638424D01*
X146958500Y-66624839D01*
X146877401Y-66447256D01*
X146877395Y-66447246D01*
X146838715Y-66392926D01*
X146815863Y-66326899D01*
X146832336Y-66258999D01*
X146882904Y-66210784D01*
X146948989Y-66197347D01*
X147002264Y-66201339D01*
X147124486Y-66210499D01*
X147124502Y-66210499D01*
X147124506Y-66210500D01*
X147124508Y-66210500D01*
X147255492Y-66210500D01*
X147255494Y-66210500D01*
X147255496Y-66210499D01*
X147255515Y-66210499D01*
X147451620Y-66195803D01*
X147451622Y-66195802D01*
X147451630Y-66195802D01*
X147707416Y-66137420D01*
X147951643Y-66041568D01*
X148178857Y-65910386D01*
X148383981Y-65746805D01*
X148562433Y-65554479D01*
X148710228Y-65337704D01*
X148824063Y-65101323D01*
X148901396Y-64850615D01*
X148940500Y-64591182D01*
X148940500Y-64328818D01*
X148901396Y-64069385D01*
X148824063Y-63818677D01*
X148777886Y-63722789D01*
X148710232Y-63582303D01*
X148710231Y-63582302D01*
X148710230Y-63582301D01*
X148710228Y-63582296D01*
X148562433Y-63365521D01*
X148495561Y-63293450D01*
X148383985Y-63173198D01*
X148327380Y-63128057D01*
X148178857Y-63009614D01*
X147951643Y-62878432D01*
X147707416Y-62782580D01*
X147707411Y-62782578D01*
X147707402Y-62782576D01*
X147482329Y-62731205D01*
X147451630Y-62724198D01*
X147451629Y-62724197D01*
X147451625Y-62724197D01*
X147451620Y-62724196D01*
X147255515Y-62709500D01*
X147255494Y-62709500D01*
X147124506Y-62709500D01*
X147124484Y-62709500D01*
X146928379Y-62724196D01*
X146928374Y-62724197D01*
X146672597Y-62782576D01*
X146672578Y-62782582D01*
X146428356Y-62878432D01*
X146201143Y-63009614D01*
X145996014Y-63173198D01*
X145817567Y-63365520D01*
X145669768Y-63582302D01*
X145669767Y-63582303D01*
X145555938Y-63818673D01*
X145478606Y-64069376D01*
X145478605Y-64069381D01*
X145478604Y-64069385D01*
X145469305Y-64131079D01*
X145439500Y-64328812D01*
X145439500Y-64591187D01*
X145451972Y-64673929D01*
X145478604Y-64850615D01*
X145478605Y-64850617D01*
X145478606Y-64850623D01*
X145555938Y-65101326D01*
X145669767Y-65337696D01*
X145669768Y-65337697D01*
X145669770Y-65337700D01*
X145669772Y-65337704D01*
X145734041Y-65431969D01*
X145817567Y-65554479D01*
X145945052Y-65691876D01*
X145976220Y-65754409D01*
X145968633Y-65823865D01*
X145924699Y-65878194D01*
X145865941Y-65899655D01*
X145710792Y-65914470D01*
X145710783Y-65914471D01*
X145710782Y-65914472D01*
X145710780Y-65914472D01*
X145710778Y-65914473D01*
X145509127Y-65973683D01*
X145322313Y-66069991D01*
X145157116Y-66199905D01*
X145157112Y-66199909D01*
X145019478Y-66358746D01*
X144914398Y-66540750D01*
X144845656Y-66739365D01*
X144845656Y-66739367D01*
X144819020Y-66924631D01*
X144815746Y-66947401D01*
X138179243Y-66947401D01*
X138174254Y-66842670D01*
X138124704Y-66638424D01*
X138118500Y-66624839D01*
X138037401Y-66447256D01*
X138037398Y-66447251D01*
X138037397Y-66447250D01*
X138037396Y-66447247D01*
X137915486Y-66276048D01*
X137915484Y-66276046D01*
X137915479Y-66276040D01*
X137763379Y-66131014D01*
X137586574Y-66017388D01*
X137391455Y-65939274D01*
X137185086Y-65899500D01*
X137185085Y-65899500D01*
X137027575Y-65899500D01*
X136870803Y-65914470D01*
X136870782Y-65914472D01*
X136870778Y-65914473D01*
X136669127Y-65973683D01*
X136482313Y-66069991D01*
X136317116Y-66199905D01*
X136317112Y-66199909D01*
X136179478Y-66358746D01*
X136074397Y-66540752D01*
X136072298Y-66545350D01*
X136026547Y-66598158D01*
X135959509Y-66617847D01*
X135892468Y-66598167D01*
X135846709Y-66545367D01*
X135835500Y-66493847D01*
X135835500Y-65114594D01*
X135855185Y-65047555D01*
X135871819Y-65026913D01*
X136153914Y-64744819D01*
X136215237Y-64711334D01*
X136241595Y-64708500D01*
X136295487Y-64708500D01*
X136482288Y-64668794D01*
X136656752Y-64591118D01*
X136811253Y-64478866D01*
X136939040Y-64336944D01*
X137034527Y-64171556D01*
X137093542Y-63989928D01*
X137113504Y-63800000D01*
X137093542Y-63610072D01*
X137034527Y-63428444D01*
X136939040Y-63263056D01*
X136823981Y-63135270D01*
X136811254Y-63121135D01*
X136738198Y-63068056D01*
X136656752Y-63008882D01*
X136482288Y-62931206D01*
X136482286Y-62931205D01*
X136295487Y-62891500D01*
X136212403Y-62891500D01*
X136145364Y-62871815D01*
X136099609Y-62819011D01*
X136089665Y-62749853D01*
X136100683Y-62713699D01*
X136148284Y-62614853D01*
X136174063Y-62561323D01*
X136251396Y-62310615D01*
X136290500Y-62051182D01*
X136290500Y-61788818D01*
X136251396Y-61529385D01*
X136174063Y-61278677D01*
X136162121Y-61253880D01*
X136060232Y-61042303D01*
X136060231Y-61042302D01*
X136060230Y-61042301D01*
X136060228Y-61042296D01*
X135912433Y-60825521D01*
X135902441Y-60814753D01*
X135733985Y-60633198D01*
X135694533Y-60601736D01*
X135528857Y-60469614D01*
X135301643Y-60338432D01*
X135057416Y-60242580D01*
X135057411Y-60242578D01*
X135057402Y-60242576D01*
X134839818Y-60192914D01*
X134801630Y-60184198D01*
X134801629Y-60184197D01*
X134801625Y-60184197D01*
X134801620Y-60184196D01*
X134605515Y-60169500D01*
X134605494Y-60169500D01*
X134474506Y-60169500D01*
X134474484Y-60169500D01*
X134278379Y-60184196D01*
X134278374Y-60184197D01*
X134022597Y-60242576D01*
X134022578Y-60242582D01*
X133778356Y-60338432D01*
X133551143Y-60469614D01*
X133346014Y-60633198D01*
X133167567Y-60825520D01*
X133019768Y-61042302D01*
X133019767Y-61042303D01*
X132905938Y-61278673D01*
X132828606Y-61529376D01*
X132828605Y-61529381D01*
X132828604Y-61529385D01*
X132813853Y-61627247D01*
X132789500Y-61788812D01*
X132789500Y-62051187D01*
X132809794Y-62185823D01*
X132828604Y-62310615D01*
X132828605Y-62310617D01*
X132828606Y-62310623D01*
X132905938Y-62561326D01*
X133019767Y-62797696D01*
X133019768Y-62797697D01*
X133019770Y-62797700D01*
X133019772Y-62797704D01*
X133148242Y-62986134D01*
X133167567Y-63014479D01*
X133346014Y-63206801D01*
X133346018Y-63206804D01*
X133346019Y-63206805D01*
X133551143Y-63370386D01*
X133778357Y-63501568D01*
X134022584Y-63597420D01*
X134278370Y-63655802D01*
X134278376Y-63655802D01*
X134278379Y-63655803D01*
X134474484Y-63670499D01*
X134474503Y-63670499D01*
X134474506Y-63670500D01*
X134474508Y-63670500D01*
X134605492Y-63670500D01*
X134605494Y-63670500D01*
X134605496Y-63670499D01*
X134605515Y-63670499D01*
X134801620Y-63655803D01*
X134801622Y-63655802D01*
X134801630Y-63655802D01*
X135057416Y-63597420D01*
X135128609Y-63569478D01*
X135198203Y-63563310D01*
X135260087Y-63595747D01*
X135294609Y-63656492D01*
X135297230Y-63697868D01*
X135289351Y-63772834D01*
X135262767Y-63837449D01*
X135253711Y-63847554D01*
X134809921Y-64291344D01*
X134797531Y-64301272D01*
X134797702Y-64301479D01*
X134791695Y-64306448D01*
X134744898Y-64356281D01*
X134742190Y-64359075D01*
X134722366Y-64378898D01*
X134722365Y-64378900D01*
X134719797Y-64382211D01*
X134712221Y-64391080D01*
X134681782Y-64423495D01*
X134681781Y-64423496D01*
X134671900Y-64441468D01*
X134661225Y-64457719D01*
X134648652Y-64473929D01*
X134648650Y-64473933D01*
X134630987Y-64514748D01*
X134625850Y-64525233D01*
X134604430Y-64564197D01*
X134599329Y-64584064D01*
X134593030Y-64602462D01*
X134584884Y-64621287D01*
X134584881Y-64621296D01*
X134577926Y-64665212D01*
X134575557Y-64676650D01*
X134564500Y-64719710D01*
X134564500Y-64740225D01*
X134562973Y-64759624D01*
X134559765Y-64779877D01*
X134563950Y-64824149D01*
X134564500Y-64835819D01*
X134564500Y-70285405D01*
X134544815Y-70352444D01*
X134528181Y-70373086D01*
X131373086Y-73528181D01*
X131311763Y-73561666D01*
X131285405Y-73564500D01*
X121883847Y-73564500D01*
X121868067Y-73562758D01*
X121868042Y-73563026D01*
X121860281Y-73562292D01*
X121791956Y-73564439D01*
X121788061Y-73564500D01*
X121760013Y-73564500D01*
X121755866Y-73565023D01*
X121744246Y-73565937D01*
X121699799Y-73567334D01*
X121699794Y-73567335D01*
X121680093Y-73573058D01*
X121661054Y-73577000D01*
X121640711Y-73579571D01*
X121640703Y-73579572D01*
X121640701Y-73579573D01*
X121640699Y-73579573D01*
X121640693Y-73579575D01*
X121599359Y-73595939D01*
X121588319Y-73599719D01*
X121545609Y-73612129D01*
X121533110Y-73619521D01*
X121527948Y-73622573D01*
X121510483Y-73631129D01*
X121491415Y-73638678D01*
X121491414Y-73638679D01*
X121455433Y-73664820D01*
X121445675Y-73671230D01*
X121407398Y-73693868D01*
X121392902Y-73708364D01*
X121378112Y-73720996D01*
X121361516Y-73733054D01*
X121361513Y-73733057D01*
X121333159Y-73767330D01*
X121325298Y-73775968D01*
X119339921Y-75761344D01*
X119327531Y-75771272D01*
X119327702Y-75771479D01*
X119321695Y-75776448D01*
X119274898Y-75826281D01*
X119272190Y-75829075D01*
X119252366Y-75848898D01*
X119252365Y-75848900D01*
X119249797Y-75852211D01*
X119242221Y-75861080D01*
X119211782Y-75893495D01*
X119211781Y-75893496D01*
X119201900Y-75911468D01*
X119191225Y-75927719D01*
X119178652Y-75943929D01*
X119178650Y-75943933D01*
X119160987Y-75984748D01*
X119155850Y-75995233D01*
X119134430Y-76034197D01*
X119129329Y-76054064D01*
X119123030Y-76072462D01*
X119114884Y-76091287D01*
X119114881Y-76091296D01*
X119107926Y-76135212D01*
X119105557Y-76146650D01*
X119094500Y-76189710D01*
X119094500Y-76210225D01*
X119092973Y-76229624D01*
X119089765Y-76249877D01*
X119093950Y-76294149D01*
X119094500Y-76305819D01*
X119094500Y-78863048D01*
X119074815Y-78930087D01*
X119041625Y-78964621D01*
X118885700Y-79073802D01*
X118885698Y-79073803D01*
X118885695Y-79073806D01*
X118723806Y-79235695D01*
X118592476Y-79423251D01*
X118572382Y-79466345D01*
X118526209Y-79518784D01*
X118459016Y-79537936D01*
X118392135Y-79517720D01*
X118347618Y-79466345D01*
X118327523Y-79423251D01*
X118294500Y-79376090D01*
X118196198Y-79235700D01*
X118034300Y-79073802D01*
X117846749Y-78942477D01*
X117825499Y-78932568D01*
X117639249Y-78845718D01*
X117639238Y-78845714D01*
X117418089Y-78786457D01*
X117418081Y-78786456D01*
X117190002Y-78766502D01*
X117189995Y-78766502D01*
X117160306Y-78769099D01*
X117091807Y-78755331D01*
X117041624Y-78706715D01*
X117025501Y-78645571D01*
X117025501Y-67880970D01*
X117045186Y-67813931D01*
X117097990Y-67768176D01*
X117167148Y-67758232D01*
X117230704Y-67787257D01*
X117235056Y-67791213D01*
X117311145Y-67863763D01*
X117316623Y-67868987D01*
X117411578Y-67930011D01*
X117493428Y-67982613D01*
X117688543Y-68060725D01*
X117791729Y-68080612D01*
X117894914Y-68100500D01*
X117894915Y-68100500D01*
X118052419Y-68100500D01*
X118052425Y-68100500D01*
X118209218Y-68085528D01*
X118410875Y-68026316D01*
X118597682Y-67930011D01*
X118762886Y-67800092D01*
X118900519Y-67641256D01*
X119005604Y-67459244D01*
X119074344Y-67260633D01*
X119104254Y-67052602D01*
X119099243Y-66947401D01*
X125815746Y-66947401D01*
X125825745Y-67157327D01*
X125875296Y-67361578D01*
X125875298Y-67361582D01*
X125962598Y-67552743D01*
X125962601Y-67552748D01*
X125962602Y-67552749D01*
X125962604Y-67552753D01*
X126084514Y-67723952D01*
X126084515Y-67723953D01*
X126084520Y-67723959D01*
X126236620Y-67868985D01*
X126331578Y-67930011D01*
X126413428Y-67982613D01*
X126608543Y-68060725D01*
X126711729Y-68080612D01*
X126814914Y-68100500D01*
X126814915Y-68100500D01*
X126972419Y-68100500D01*
X126972425Y-68100500D01*
X127129218Y-68085528D01*
X127330875Y-68026316D01*
X127517682Y-67930011D01*
X127682886Y-67800092D01*
X127820519Y-67641256D01*
X127925604Y-67459244D01*
X127994344Y-67260633D01*
X128020980Y-67075373D01*
X129745723Y-67075373D01*
X129775881Y-67375160D01*
X129775882Y-67375162D01*
X129845728Y-67668252D01*
X129845730Y-67668259D01*
X129845731Y-67668261D01*
X129854676Y-67691487D01*
X129954020Y-67949427D01*
X129954024Y-67949436D01*
X130098825Y-68213665D01*
X130098829Y-68213671D01*
X130277551Y-68456234D01*
X130277554Y-68456238D01*
X130277561Y-68456245D01*
X130487019Y-68672823D01*
X130723478Y-68859553D01*
X130723480Y-68859554D01*
X130723485Y-68859558D01*
X130982730Y-69013109D01*
X131260128Y-69130736D01*
X131550729Y-69210340D01*
X131849347Y-69250500D01*
X131849351Y-69250500D01*
X132075252Y-69250500D01*
X132239164Y-69239526D01*
X132300634Y-69235412D01*
X132595903Y-69175396D01*
X132880537Y-69076560D01*
X133149459Y-68940668D01*
X133397869Y-68770144D01*
X133621333Y-68568032D01*
X133815865Y-68337939D01*
X133977993Y-68083970D01*
X134104823Y-67810658D01*
X134194093Y-67522879D01*
X134244209Y-67225770D01*
X134254277Y-66924631D01*
X134224118Y-66624838D01*
X134154269Y-66331739D01*
X134045977Y-66050566D01*
X133901175Y-65786335D01*
X133722446Y-65543762D01*
X133512980Y-65327176D01*
X133497047Y-65314594D01*
X133276521Y-65140446D01*
X133276517Y-65140443D01*
X133276515Y-65140442D01*
X133017270Y-64986891D01*
X132739872Y-64869264D01*
X132739863Y-64869261D01*
X132449272Y-64789660D01*
X132374616Y-64779620D01*
X132150653Y-64749500D01*
X131924756Y-64749500D01*
X131924748Y-64749500D01*
X131699368Y-64764587D01*
X131699359Y-64764589D01*
X131404094Y-64824604D01*
X131119464Y-64923439D01*
X131119459Y-64923441D01*
X130850546Y-65059328D01*
X130602125Y-65229860D01*
X130378665Y-65431969D01*
X130184132Y-65662064D01*
X130022006Y-65916030D01*
X130022005Y-65916032D01*
X129919271Y-66137420D01*
X129895177Y-66189342D01*
X129891899Y-66199909D01*
X129805907Y-66477118D01*
X129761672Y-66739365D01*
X129755791Y-66774230D01*
X129750002Y-66947398D01*
X129745723Y-67075373D01*
X128020980Y-67075373D01*
X128024254Y-67052602D01*
X128014254Y-66842670D01*
X127964704Y-66638424D01*
X127958500Y-66624839D01*
X127877401Y-66447256D01*
X127877395Y-66447246D01*
X127838715Y-66392926D01*
X127815863Y-66326899D01*
X127832336Y-66258999D01*
X127882904Y-66210784D01*
X127948989Y-66197347D01*
X128002264Y-66201339D01*
X128124486Y-66210499D01*
X128124502Y-66210499D01*
X128124506Y-66210500D01*
X128124508Y-66210500D01*
X128255492Y-66210500D01*
X128255494Y-66210500D01*
X128255496Y-66210499D01*
X128255515Y-66210499D01*
X128451620Y-66195803D01*
X128451622Y-66195802D01*
X128451630Y-66195802D01*
X128707416Y-66137420D01*
X128951643Y-66041568D01*
X129178857Y-65910386D01*
X129383981Y-65746805D01*
X129562433Y-65554479D01*
X129710228Y-65337704D01*
X129824063Y-65101323D01*
X129901396Y-64850615D01*
X129940500Y-64591182D01*
X129940500Y-64328818D01*
X129901396Y-64069385D01*
X129824063Y-63818677D01*
X129777886Y-63722789D01*
X129710232Y-63582303D01*
X129710231Y-63582302D01*
X129710230Y-63582301D01*
X129710228Y-63582296D01*
X129562433Y-63365521D01*
X129495561Y-63293450D01*
X129383985Y-63173198D01*
X129327380Y-63128057D01*
X129178857Y-63009614D01*
X128951643Y-62878432D01*
X128707416Y-62782580D01*
X128707411Y-62782578D01*
X128707402Y-62782576D01*
X128482329Y-62731205D01*
X128451630Y-62724198D01*
X128451629Y-62724197D01*
X128451625Y-62724197D01*
X128451620Y-62724196D01*
X128255515Y-62709500D01*
X128255494Y-62709500D01*
X128124506Y-62709500D01*
X128124484Y-62709500D01*
X127928379Y-62724196D01*
X127928374Y-62724197D01*
X127672597Y-62782576D01*
X127672578Y-62782582D01*
X127428356Y-62878432D01*
X127201143Y-63009614D01*
X126996014Y-63173198D01*
X126817567Y-63365520D01*
X126669768Y-63582302D01*
X126669767Y-63582303D01*
X126555938Y-63818673D01*
X126478606Y-64069376D01*
X126478605Y-64069381D01*
X126478604Y-64069385D01*
X126469305Y-64131079D01*
X126439500Y-64328812D01*
X126439500Y-64591187D01*
X126451972Y-64673929D01*
X126478604Y-64850615D01*
X126478605Y-64850617D01*
X126478606Y-64850623D01*
X126555938Y-65101326D01*
X126669767Y-65337696D01*
X126669768Y-65337697D01*
X126669770Y-65337700D01*
X126669772Y-65337704D01*
X126734041Y-65431969D01*
X126817567Y-65554479D01*
X126945052Y-65691876D01*
X126976220Y-65754409D01*
X126968633Y-65823865D01*
X126924699Y-65878194D01*
X126865941Y-65899655D01*
X126710792Y-65914470D01*
X126710783Y-65914471D01*
X126710782Y-65914472D01*
X126710780Y-65914472D01*
X126710778Y-65914473D01*
X126509127Y-65973683D01*
X126322313Y-66069991D01*
X126157116Y-66199905D01*
X126157112Y-66199909D01*
X126019478Y-66358746D01*
X125914398Y-66540750D01*
X125845656Y-66739365D01*
X125845656Y-66739367D01*
X125819020Y-66924631D01*
X125815746Y-66947401D01*
X119099243Y-66947401D01*
X119094254Y-66842670D01*
X119044704Y-66638424D01*
X119038500Y-66624839D01*
X118957401Y-66447256D01*
X118957398Y-66447251D01*
X118957397Y-66447250D01*
X118957396Y-66447247D01*
X118835486Y-66276048D01*
X118835484Y-66276046D01*
X118835479Y-66276040D01*
X118683379Y-66131014D01*
X118506574Y-66017388D01*
X118311455Y-65939274D01*
X118105086Y-65899500D01*
X118105085Y-65899500D01*
X117947575Y-65899500D01*
X117790803Y-65914470D01*
X117790782Y-65914472D01*
X117790778Y-65914473D01*
X117589127Y-65973683D01*
X117402313Y-66069991D01*
X117237114Y-66199906D01*
X117235062Y-66201864D01*
X117233797Y-66202515D01*
X117232471Y-66203559D01*
X117232269Y-66203303D01*
X117172956Y-66233873D01*
X117103403Y-66227225D01*
X117048486Y-66184029D01*
X117025641Y-66118000D01*
X117025501Y-66112112D01*
X117025501Y-64854593D01*
X117045186Y-64787554D01*
X117061820Y-64766912D01*
X117218913Y-64609819D01*
X117280236Y-64576334D01*
X117306594Y-64573500D01*
X117360487Y-64573500D01*
X117547288Y-64533794D01*
X117721752Y-64456118D01*
X117876253Y-64343866D01*
X118004040Y-64201944D01*
X118099527Y-64036556D01*
X118158542Y-63854928D01*
X118178504Y-63665000D01*
X118158542Y-63475072D01*
X118099527Y-63293444D01*
X118004040Y-63128056D01*
X117876253Y-62986134D01*
X117721752Y-62873882D01*
X117547288Y-62796206D01*
X117547286Y-62796205D01*
X117360487Y-62756500D01*
X117197415Y-62756500D01*
X117130376Y-62736815D01*
X117084621Y-62684011D01*
X117074677Y-62614853D01*
X117085693Y-62578701D01*
X117094063Y-62561323D01*
X117171396Y-62310615D01*
X117210500Y-62051182D01*
X117210500Y-61788818D01*
X117171396Y-61529385D01*
X117094063Y-61278677D01*
X117082121Y-61253880D01*
X116980232Y-61042303D01*
X116980231Y-61042302D01*
X116980230Y-61042301D01*
X116980228Y-61042296D01*
X116832433Y-60825521D01*
X116822441Y-60814753D01*
X116653985Y-60633198D01*
X116614533Y-60601736D01*
X116448857Y-60469614D01*
X116221643Y-60338432D01*
X115977416Y-60242580D01*
X115977411Y-60242578D01*
X115977402Y-60242576D01*
X115759818Y-60192914D01*
X115721630Y-60184198D01*
X115721629Y-60184197D01*
X115721625Y-60184197D01*
X115721620Y-60184196D01*
X115525515Y-60169500D01*
X115525494Y-60169500D01*
X115394506Y-60169500D01*
X115394484Y-60169500D01*
X115198379Y-60184196D01*
X115198374Y-60184197D01*
X114942597Y-60242576D01*
X114942578Y-60242582D01*
X114698356Y-60338432D01*
X114471143Y-60469614D01*
X114266014Y-60633198D01*
X114087567Y-60825520D01*
X113939768Y-61042302D01*
X113939767Y-61042303D01*
X113825938Y-61278673D01*
X113748606Y-61529376D01*
X113748605Y-61529381D01*
X113748604Y-61529385D01*
X113733853Y-61627247D01*
X113709500Y-61788812D01*
X113709500Y-62051187D01*
X113729794Y-62185823D01*
X113748604Y-62310615D01*
X113748605Y-62310617D01*
X113748606Y-62310623D01*
X113825938Y-62561326D01*
X113939767Y-62797696D01*
X113939768Y-62797697D01*
X113939770Y-62797700D01*
X113939772Y-62797704D01*
X114068242Y-62986134D01*
X114087567Y-63014479D01*
X114266014Y-63206801D01*
X114266018Y-63206804D01*
X114266019Y-63206805D01*
X114471143Y-63370386D01*
X114698357Y-63501568D01*
X114942584Y-63597420D01*
X115198370Y-63655802D01*
X115198376Y-63655802D01*
X115198379Y-63655803D01*
X115394484Y-63670499D01*
X115394503Y-63670499D01*
X115394506Y-63670500D01*
X115394508Y-63670500D01*
X115525492Y-63670500D01*
X115525494Y-63670500D01*
X115525496Y-63670499D01*
X115525515Y-63670499D01*
X115721620Y-63655803D01*
X115721622Y-63655802D01*
X115721630Y-63655802D01*
X115977416Y-63597420D01*
X116175494Y-63519679D01*
X116245089Y-63513511D01*
X116306973Y-63545949D01*
X116341496Y-63606694D01*
X116337697Y-63676460D01*
X116308476Y-63722789D01*
X115999922Y-64031343D01*
X115987532Y-64041271D01*
X115987703Y-64041478D01*
X115981696Y-64046447D01*
X115934899Y-64096280D01*
X115932191Y-64099074D01*
X115912367Y-64118897D01*
X115912366Y-64118899D01*
X115909798Y-64122210D01*
X115902223Y-64131077D01*
X115892021Y-64141942D01*
X115871783Y-64163494D01*
X115871782Y-64163495D01*
X115861901Y-64181467D01*
X115851226Y-64197718D01*
X115838653Y-64213928D01*
X115838651Y-64213932D01*
X115820988Y-64254747D01*
X115815851Y-64265232D01*
X115794431Y-64304196D01*
X115789330Y-64324063D01*
X115783031Y-64342461D01*
X115774885Y-64361286D01*
X115774882Y-64361295D01*
X115767927Y-64405211D01*
X115765558Y-64416649D01*
X115754501Y-64459709D01*
X115754501Y-64480224D01*
X115752974Y-64499623D01*
X115750579Y-64514748D01*
X115749766Y-64519878D01*
X115750696Y-64529718D01*
X115753951Y-64564148D01*
X115754501Y-64575818D01*
X115754501Y-79034641D01*
X115734816Y-79101680D01*
X115682012Y-79147435D01*
X115612854Y-79157379D01*
X115549298Y-79128354D01*
X115542820Y-79122322D01*
X115494304Y-79073806D01*
X115494300Y-79073802D01*
X115306749Y-78942477D01*
X115285499Y-78932568D01*
X115099249Y-78845718D01*
X115099238Y-78845714D01*
X114878089Y-78786457D01*
X114878081Y-78786456D01*
X114650002Y-78766502D01*
X114649998Y-78766502D01*
X114421918Y-78786456D01*
X114421910Y-78786457D01*
X114200761Y-78845714D01*
X114200750Y-78845718D01*
X113993254Y-78942475D01*
X113993252Y-78942476D01*
X113993251Y-78942477D01*
X113805700Y-79073802D01*
X113805698Y-79073803D01*
X113805695Y-79073806D01*
X113643806Y-79235695D01*
X113512476Y-79423251D01*
X113492382Y-79466345D01*
X113446209Y-79518784D01*
X113379016Y-79537936D01*
X113312135Y-79517720D01*
X113267618Y-79466345D01*
X113247523Y-79423251D01*
X113214500Y-79376090D01*
X113116198Y-79235700D01*
X112954300Y-79073802D01*
X112766749Y-78942477D01*
X112745499Y-78932568D01*
X112559249Y-78845718D01*
X112559238Y-78845714D01*
X112338089Y-78786457D01*
X112338081Y-78786456D01*
X112110002Y-78766502D01*
X112109998Y-78766502D01*
X111881918Y-78786456D01*
X111881910Y-78786457D01*
X111660761Y-78845714D01*
X111660750Y-78845718D01*
X111453254Y-78942475D01*
X111453252Y-78942476D01*
X111453251Y-78942477D01*
X111265700Y-79073802D01*
X111265698Y-79073803D01*
X111265695Y-79073806D01*
X111103806Y-79235695D01*
X110972476Y-79423252D01*
X110972474Y-79423256D01*
X110947691Y-79476402D01*
X110901518Y-79528841D01*
X110834324Y-79547992D01*
X110767444Y-79527775D01*
X110722927Y-79476399D01*
X110700133Y-79427517D01*
X110569657Y-79241179D01*
X110408820Y-79080342D01*
X110222482Y-78949865D01*
X110016328Y-78853734D01*
X109820000Y-78801127D01*
X109820000Y-80050172D01*
X109813996Y-80044168D01*
X109698276Y-79985206D01*
X109602269Y-79970000D01*
X109537731Y-79970000D01*
X109441724Y-79985206D01*
X109326004Y-80044168D01*
X109320000Y-80050172D01*
X109320000Y-78801127D01*
X109123671Y-78853734D01*
X108917517Y-78949865D01*
X108731179Y-79080342D01*
X108570342Y-79241179D01*
X108439865Y-79427517D01*
X108417071Y-79476401D01*
X108370898Y-79528840D01*
X108303705Y-79547992D01*
X108236824Y-79527776D01*
X108192307Y-79476401D01*
X108167523Y-79423251D01*
X108134500Y-79376090D01*
X108036198Y-79235700D01*
X107874300Y-79073802D01*
X107686749Y-78942477D01*
X107665499Y-78932568D01*
X107479249Y-78845718D01*
X107479238Y-78845714D01*
X107258089Y-78786457D01*
X107258081Y-78786456D01*
X107030002Y-78766502D01*
X107029998Y-78766502D01*
X106801918Y-78786456D01*
X106801910Y-78786457D01*
X106580761Y-78845714D01*
X106580750Y-78845718D01*
X106373254Y-78942475D01*
X106373252Y-78942476D01*
X106373251Y-78942477D01*
X106185700Y-79073802D01*
X106185698Y-79073803D01*
X106185695Y-79073806D01*
X106023806Y-79235695D01*
X105892476Y-79423252D01*
X105892475Y-79423254D01*
X105795718Y-79630750D01*
X105795714Y-79630761D01*
X105736457Y-79851910D01*
X105736456Y-79851918D01*
X105721500Y-80022869D01*
X105721500Y-80737130D01*
X104000000Y-80737130D01*
X104000000Y-66947401D01*
X106735746Y-66947401D01*
X106745745Y-67157327D01*
X106795296Y-67361578D01*
X106795298Y-67361582D01*
X106882598Y-67552743D01*
X106882601Y-67552748D01*
X106882602Y-67552749D01*
X106882604Y-67552753D01*
X107004514Y-67723952D01*
X107004515Y-67723953D01*
X107004520Y-67723959D01*
X107156620Y-67868985D01*
X107251578Y-67930011D01*
X107333428Y-67982613D01*
X107528543Y-68060725D01*
X107631729Y-68080612D01*
X107734914Y-68100500D01*
X107734915Y-68100500D01*
X107892419Y-68100500D01*
X107892425Y-68100500D01*
X108049218Y-68085528D01*
X108250875Y-68026316D01*
X108437682Y-67930011D01*
X108602886Y-67800092D01*
X108740519Y-67641256D01*
X108845604Y-67459244D01*
X108914344Y-67260633D01*
X108940980Y-67075373D01*
X110665723Y-67075373D01*
X110695881Y-67375160D01*
X110695882Y-67375162D01*
X110765728Y-67668252D01*
X110765730Y-67668259D01*
X110765731Y-67668261D01*
X110774676Y-67691487D01*
X110874020Y-67949427D01*
X110874024Y-67949436D01*
X111018825Y-68213665D01*
X111018829Y-68213671D01*
X111197551Y-68456234D01*
X111197554Y-68456238D01*
X111197561Y-68456245D01*
X111407019Y-68672823D01*
X111643478Y-68859553D01*
X111643480Y-68859554D01*
X111643485Y-68859558D01*
X111902730Y-69013109D01*
X112180128Y-69130736D01*
X112470729Y-69210340D01*
X112769347Y-69250500D01*
X112769351Y-69250500D01*
X112995252Y-69250500D01*
X113159164Y-69239526D01*
X113220634Y-69235412D01*
X113515903Y-69175396D01*
X113800537Y-69076560D01*
X114069459Y-68940668D01*
X114317869Y-68770144D01*
X114541333Y-68568032D01*
X114735865Y-68337939D01*
X114897993Y-68083970D01*
X115024823Y-67810658D01*
X115114093Y-67522879D01*
X115164209Y-67225770D01*
X115174277Y-66924631D01*
X115144118Y-66624838D01*
X115074269Y-66331739D01*
X114965977Y-66050566D01*
X114821175Y-65786335D01*
X114642446Y-65543762D01*
X114432980Y-65327176D01*
X114417047Y-65314594D01*
X114196521Y-65140446D01*
X114196517Y-65140443D01*
X114196515Y-65140442D01*
X113937270Y-64986891D01*
X113659872Y-64869264D01*
X113659863Y-64869261D01*
X113369272Y-64789660D01*
X113294616Y-64779620D01*
X113070653Y-64749500D01*
X112844756Y-64749500D01*
X112844748Y-64749500D01*
X112619368Y-64764587D01*
X112619359Y-64764589D01*
X112324094Y-64824604D01*
X112039464Y-64923439D01*
X112039459Y-64923441D01*
X111770546Y-65059328D01*
X111522125Y-65229860D01*
X111298665Y-65431969D01*
X111104132Y-65662064D01*
X110942006Y-65916030D01*
X110942005Y-65916032D01*
X110839271Y-66137420D01*
X110815177Y-66189342D01*
X110811899Y-66199909D01*
X110725907Y-66477118D01*
X110681672Y-66739365D01*
X110675791Y-66774230D01*
X110670002Y-66947398D01*
X110665723Y-67075373D01*
X108940980Y-67075373D01*
X108944254Y-67052602D01*
X108934254Y-66842670D01*
X108884704Y-66638424D01*
X108878500Y-66624839D01*
X108797401Y-66447256D01*
X108797395Y-66447246D01*
X108758715Y-66392926D01*
X108735863Y-66326899D01*
X108752336Y-66258999D01*
X108802904Y-66210784D01*
X108868989Y-66197347D01*
X108922264Y-66201339D01*
X109044486Y-66210499D01*
X109044502Y-66210499D01*
X109044506Y-66210500D01*
X109044508Y-66210500D01*
X109175492Y-66210500D01*
X109175494Y-66210500D01*
X109175496Y-66210499D01*
X109175515Y-66210499D01*
X109371620Y-66195803D01*
X109371622Y-66195802D01*
X109371630Y-66195802D01*
X109627416Y-66137420D01*
X109871643Y-66041568D01*
X110098857Y-65910386D01*
X110303981Y-65746805D01*
X110482433Y-65554479D01*
X110630228Y-65337704D01*
X110744063Y-65101323D01*
X110821396Y-64850615D01*
X110860500Y-64591182D01*
X110860500Y-64328818D01*
X110821396Y-64069385D01*
X110744063Y-63818677D01*
X110697886Y-63722789D01*
X110630232Y-63582303D01*
X110630231Y-63582302D01*
X110630230Y-63582301D01*
X110630228Y-63582296D01*
X110482433Y-63365521D01*
X110415561Y-63293450D01*
X110303985Y-63173198D01*
X110247380Y-63128057D01*
X110098857Y-63009614D01*
X109871643Y-62878432D01*
X109627416Y-62782580D01*
X109627411Y-62782578D01*
X109627402Y-62782576D01*
X109402329Y-62731205D01*
X109371630Y-62724198D01*
X109371629Y-62724197D01*
X109371625Y-62724197D01*
X109371620Y-62724196D01*
X109175515Y-62709500D01*
X109175494Y-62709500D01*
X109044506Y-62709500D01*
X109044484Y-62709500D01*
X108848379Y-62724196D01*
X108848374Y-62724197D01*
X108592597Y-62782576D01*
X108592578Y-62782582D01*
X108348356Y-62878432D01*
X108121143Y-63009614D01*
X107916014Y-63173198D01*
X107737567Y-63365520D01*
X107589768Y-63582302D01*
X107589767Y-63582303D01*
X107475938Y-63818673D01*
X107398606Y-64069376D01*
X107398605Y-64069381D01*
X107398604Y-64069385D01*
X107389305Y-64131079D01*
X107359500Y-64328812D01*
X107359500Y-64591187D01*
X107371972Y-64673929D01*
X107398604Y-64850615D01*
X107398605Y-64850617D01*
X107398606Y-64850623D01*
X107475938Y-65101326D01*
X107589767Y-65337696D01*
X107589768Y-65337697D01*
X107589770Y-65337700D01*
X107589772Y-65337704D01*
X107654041Y-65431969D01*
X107737567Y-65554479D01*
X107865052Y-65691876D01*
X107896220Y-65754409D01*
X107888633Y-65823865D01*
X107844699Y-65878194D01*
X107785941Y-65899655D01*
X107630792Y-65914470D01*
X107630783Y-65914471D01*
X107630782Y-65914472D01*
X107630780Y-65914472D01*
X107630778Y-65914473D01*
X107429127Y-65973683D01*
X107242313Y-66069991D01*
X107077116Y-66199905D01*
X107077112Y-66199909D01*
X106939478Y-66358746D01*
X106834398Y-66540750D01*
X106765656Y-66739365D01*
X106765656Y-66739367D01*
X106739020Y-66924631D01*
X106735746Y-66947401D01*
X104000000Y-66947401D01*
X104000000Y-58124000D01*
X104019685Y-58056961D01*
X104072489Y-58011206D01*
X104124000Y-58000000D01*
X254876000Y-58000000D01*
X254943039Y-58019685D01*
G37*
%TD.AperFunction*%
%TD*%
M02*
