%TF.GenerationSoftware,KiCad,Pcbnew,7.0.11*%
%TF.CreationDate,2026-09-18T21:03:02+09:00*%
%TF.ProjectId,KB_Tello,4b425f54-656c-46c6-9f2e-6b696361645f,rev?*%
%TF.SameCoordinates,Original*%
%TF.FileFunction,Legend,Top*%
%TF.FilePolarity,Positive*%
%FSLAX46Y46*%
G04 Gerber Fmt 4.6, Leading zero omitted, Abs format (unit mm)*
G04 Created by KiCad (PCBNEW 7.0.11) date 2026-09-18 21:03:02*
%MOMM*%
%LPD*%
G01*
G04 APERTURE LIST*
%ADD10C,0.150000*%
%ADD11C,0.120000*%
G04 APERTURE END LIST*
D10*
X237165350Y-80403152D02*
X237165350Y-81212676D01*
X237165350Y-81212676D02*
X237117731Y-81307914D01*
X237117731Y-81307914D02*
X237070112Y-81355533D01*
X237070112Y-81355533D02*
X236974874Y-81403152D01*
X236974874Y-81403152D02*
X236832017Y-81403152D01*
X236832017Y-81403152D02*
X236736779Y-81355533D01*
X237165350Y-81022200D02*
X237070112Y-81069819D01*
X237070112Y-81069819D02*
X236879636Y-81069819D01*
X236879636Y-81069819D02*
X236784398Y-81022200D01*
X236784398Y-81022200D02*
X236736779Y-80974580D01*
X236736779Y-80974580D02*
X236689160Y-80879342D01*
X236689160Y-80879342D02*
X236689160Y-80593628D01*
X236689160Y-80593628D02*
X236736779Y-80498390D01*
X236736779Y-80498390D02*
X236784398Y-80450771D01*
X236784398Y-80450771D02*
X236879636Y-80403152D01*
X236879636Y-80403152D02*
X237070112Y-80403152D01*
X237070112Y-80403152D02*
X237165350Y-80450771D01*
X238022493Y-81022200D02*
X237927255Y-81069819D01*
X237927255Y-81069819D02*
X237736779Y-81069819D01*
X237736779Y-81069819D02*
X237641541Y-81022200D01*
X237641541Y-81022200D02*
X237593922Y-80926961D01*
X237593922Y-80926961D02*
X237593922Y-80546009D01*
X237593922Y-80546009D02*
X237641541Y-80450771D01*
X237641541Y-80450771D02*
X237736779Y-80403152D01*
X237736779Y-80403152D02*
X237927255Y-80403152D01*
X237927255Y-80403152D02*
X238022493Y-80450771D01*
X238022493Y-80450771D02*
X238070112Y-80546009D01*
X238070112Y-80546009D02*
X238070112Y-80641247D01*
X238070112Y-80641247D02*
X237593922Y-80736485D01*
X238498684Y-80403152D02*
X238498684Y-81260295D01*
X238498684Y-81260295D02*
X238451065Y-81355533D01*
X238451065Y-81355533D02*
X238355827Y-81403152D01*
X238355827Y-81403152D02*
X238308208Y-81403152D01*
X238498684Y-80069819D02*
X238451065Y-80117438D01*
X238451065Y-80117438D02*
X238498684Y-80165057D01*
X238498684Y-80165057D02*
X238546303Y-80117438D01*
X238546303Y-80117438D02*
X238498684Y-80069819D01*
X238498684Y-80069819D02*
X238498684Y-80165057D01*
X238974874Y-81069819D02*
X238974874Y-80403152D01*
X238974874Y-80069819D02*
X238927255Y-80117438D01*
X238927255Y-80117438D02*
X238974874Y-80165057D01*
X238974874Y-80165057D02*
X239022493Y-80117438D01*
X239022493Y-80117438D02*
X238974874Y-80069819D01*
X238974874Y-80069819D02*
X238974874Y-80165057D01*
X239451064Y-80403152D02*
X239451064Y-81403152D01*
X239451064Y-80450771D02*
X239546302Y-80403152D01*
X239546302Y-80403152D02*
X239736778Y-80403152D01*
X239736778Y-80403152D02*
X239832016Y-80450771D01*
X239832016Y-80450771D02*
X239879635Y-80498390D01*
X239879635Y-80498390D02*
X239927254Y-80593628D01*
X239927254Y-80593628D02*
X239927254Y-80879342D01*
X239927254Y-80879342D02*
X239879635Y-80974580D01*
X239879635Y-80974580D02*
X239832016Y-81022200D01*
X239832016Y-81022200D02*
X239736778Y-81069819D01*
X239736778Y-81069819D02*
X239546302Y-81069819D01*
X239546302Y-81069819D02*
X239451064Y-81022200D01*
X240784397Y-81069819D02*
X240784397Y-80546009D01*
X240784397Y-80546009D02*
X240736778Y-80450771D01*
X240736778Y-80450771D02*
X240641540Y-80403152D01*
X240641540Y-80403152D02*
X240451064Y-80403152D01*
X240451064Y-80403152D02*
X240355826Y-80450771D01*
X240784397Y-81022200D02*
X240689159Y-81069819D01*
X240689159Y-81069819D02*
X240451064Y-81069819D01*
X240451064Y-81069819D02*
X240355826Y-81022200D01*
X240355826Y-81022200D02*
X240308207Y-80926961D01*
X240308207Y-80926961D02*
X240308207Y-80831723D01*
X240308207Y-80831723D02*
X240355826Y-80736485D01*
X240355826Y-80736485D02*
X240451064Y-80688866D01*
X240451064Y-80688866D02*
X240689159Y-80688866D01*
X240689159Y-80688866D02*
X240784397Y-80641247D01*
X241689159Y-81069819D02*
X241689159Y-80069819D01*
X241689159Y-81022200D02*
X241593921Y-81069819D01*
X241593921Y-81069819D02*
X241403445Y-81069819D01*
X241403445Y-81069819D02*
X241308207Y-81022200D01*
X241308207Y-81022200D02*
X241260588Y-80974580D01*
X241260588Y-80974580D02*
X241212969Y-80879342D01*
X241212969Y-80879342D02*
X241212969Y-80593628D01*
X241212969Y-80593628D02*
X241260588Y-80498390D01*
X241260588Y-80498390D02*
X241308207Y-80450771D01*
X241308207Y-80450771D02*
X241403445Y-80403152D01*
X241403445Y-80403152D02*
X241593921Y-80403152D01*
X241593921Y-80403152D02*
X241689159Y-80450771D01*
X241927255Y-81165057D02*
X242689159Y-81165057D01*
X243070112Y-80498390D02*
X242974874Y-80450771D01*
X242974874Y-80450771D02*
X242927255Y-80403152D01*
X242927255Y-80403152D02*
X242879636Y-80307914D01*
X242879636Y-80307914D02*
X242879636Y-80260295D01*
X242879636Y-80260295D02*
X242927255Y-80165057D01*
X242927255Y-80165057D02*
X242974874Y-80117438D01*
X242974874Y-80117438D02*
X243070112Y-80069819D01*
X243070112Y-80069819D02*
X243260588Y-80069819D01*
X243260588Y-80069819D02*
X243355826Y-80117438D01*
X243355826Y-80117438D02*
X243403445Y-80165057D01*
X243403445Y-80165057D02*
X243451064Y-80260295D01*
X243451064Y-80260295D02*
X243451064Y-80307914D01*
X243451064Y-80307914D02*
X243403445Y-80403152D01*
X243403445Y-80403152D02*
X243355826Y-80450771D01*
X243355826Y-80450771D02*
X243260588Y-80498390D01*
X243260588Y-80498390D02*
X243070112Y-80498390D01*
X243070112Y-80498390D02*
X242974874Y-80546009D01*
X242974874Y-80546009D02*
X242927255Y-80593628D01*
X242927255Y-80593628D02*
X242879636Y-80688866D01*
X242879636Y-80688866D02*
X242879636Y-80879342D01*
X242879636Y-80879342D02*
X242927255Y-80974580D01*
X242927255Y-80974580D02*
X242974874Y-81022200D01*
X242974874Y-81022200D02*
X243070112Y-81069819D01*
X243070112Y-81069819D02*
X243260588Y-81069819D01*
X243260588Y-81069819D02*
X243355826Y-81022200D01*
X243355826Y-81022200D02*
X243403445Y-80974580D01*
X243403445Y-80974580D02*
X243451064Y-80879342D01*
X243451064Y-80879342D02*
X243451064Y-80688866D01*
X243451064Y-80688866D02*
X243403445Y-80593628D01*
X243403445Y-80593628D02*
X243355826Y-80546009D01*
X243355826Y-80546009D02*
X243260588Y-80498390D01*
X243832017Y-81022200D02*
X243927255Y-81069819D01*
X243927255Y-81069819D02*
X244117731Y-81069819D01*
X244117731Y-81069819D02*
X244212969Y-81022200D01*
X244212969Y-81022200D02*
X244260588Y-80926961D01*
X244260588Y-80926961D02*
X244260588Y-80879342D01*
X244260588Y-80879342D02*
X244212969Y-80784104D01*
X244212969Y-80784104D02*
X244117731Y-80736485D01*
X244117731Y-80736485D02*
X243974874Y-80736485D01*
X243974874Y-80736485D02*
X243879636Y-80688866D01*
X243879636Y-80688866D02*
X243832017Y-80593628D01*
X243832017Y-80593628D02*
X243832017Y-80546009D01*
X243832017Y-80546009D02*
X243879636Y-80450771D01*
X243879636Y-80450771D02*
X243974874Y-80403152D01*
X243974874Y-80403152D02*
X244117731Y-80403152D01*
X244117731Y-80403152D02*
X244212969Y-80450771D01*
X245117731Y-80403152D02*
X245117731Y-81069819D01*
X244879636Y-80022200D02*
X244641541Y-80736485D01*
X244641541Y-80736485D02*
X245260588Y-80736485D01*
X245641541Y-81069819D02*
X245641541Y-80403152D01*
X245641541Y-80593628D02*
X245689160Y-80498390D01*
X245689160Y-80498390D02*
X245736779Y-80450771D01*
X245736779Y-80450771D02*
X245832017Y-80403152D01*
X245832017Y-80403152D02*
X245927255Y-80403152D01*
X246641541Y-81022200D02*
X246546303Y-81069819D01*
X246546303Y-81069819D02*
X246355827Y-81069819D01*
X246355827Y-81069819D02*
X246260589Y-81022200D01*
X246260589Y-81022200D02*
X246212970Y-80926961D01*
X246212970Y-80926961D02*
X246212970Y-80546009D01*
X246212970Y-80546009D02*
X246260589Y-80450771D01*
X246260589Y-80450771D02*
X246355827Y-80403152D01*
X246355827Y-80403152D02*
X246546303Y-80403152D01*
X246546303Y-80403152D02*
X246641541Y-80450771D01*
X246641541Y-80450771D02*
X246689160Y-80546009D01*
X246689160Y-80546009D02*
X246689160Y-80641247D01*
X246689160Y-80641247D02*
X246212970Y-80736485D01*
X248451065Y-81069819D02*
X248117732Y-80593628D01*
X247879637Y-81069819D02*
X247879637Y-80069819D01*
X247879637Y-80069819D02*
X248260589Y-80069819D01*
X248260589Y-80069819D02*
X248355827Y-80117438D01*
X248355827Y-80117438D02*
X248403446Y-80165057D01*
X248403446Y-80165057D02*
X248451065Y-80260295D01*
X248451065Y-80260295D02*
X248451065Y-80403152D01*
X248451065Y-80403152D02*
X248403446Y-80498390D01*
X248403446Y-80498390D02*
X248355827Y-80546009D01*
X248355827Y-80546009D02*
X248260589Y-80593628D01*
X248260589Y-80593628D02*
X247879637Y-80593628D01*
X249260589Y-81022200D02*
X249165351Y-81069819D01*
X249165351Y-81069819D02*
X248974875Y-81069819D01*
X248974875Y-81069819D02*
X248879637Y-81022200D01*
X248879637Y-81022200D02*
X248832018Y-80926961D01*
X248832018Y-80926961D02*
X248832018Y-80546009D01*
X248832018Y-80546009D02*
X248879637Y-80450771D01*
X248879637Y-80450771D02*
X248974875Y-80403152D01*
X248974875Y-80403152D02*
X249165351Y-80403152D01*
X249165351Y-80403152D02*
X249260589Y-80450771D01*
X249260589Y-80450771D02*
X249308208Y-80546009D01*
X249308208Y-80546009D02*
X249308208Y-80641247D01*
X249308208Y-80641247D02*
X248832018Y-80736485D01*
X249641542Y-80403152D02*
X249879637Y-81069819D01*
X249879637Y-81069819D02*
X250117732Y-80403152D01*
X250689161Y-80069819D02*
X250784399Y-80069819D01*
X250784399Y-80069819D02*
X250879637Y-80117438D01*
X250879637Y-80117438D02*
X250927256Y-80165057D01*
X250927256Y-80165057D02*
X250974875Y-80260295D01*
X250974875Y-80260295D02*
X251022494Y-80450771D01*
X251022494Y-80450771D02*
X251022494Y-80688866D01*
X251022494Y-80688866D02*
X250974875Y-80879342D01*
X250974875Y-80879342D02*
X250927256Y-80974580D01*
X250927256Y-80974580D02*
X250879637Y-81022200D01*
X250879637Y-81022200D02*
X250784399Y-81069819D01*
X250784399Y-81069819D02*
X250689161Y-81069819D01*
X250689161Y-81069819D02*
X250593923Y-81022200D01*
X250593923Y-81022200D02*
X250546304Y-80974580D01*
X250546304Y-80974580D02*
X250498685Y-80879342D01*
X250498685Y-80879342D02*
X250451066Y-80688866D01*
X250451066Y-80688866D02*
X250451066Y-80450771D01*
X250451066Y-80450771D02*
X250498685Y-80260295D01*
X250498685Y-80260295D02*
X250546304Y-80165057D01*
X250546304Y-80165057D02*
X250593923Y-80117438D01*
X250593923Y-80117438D02*
X250689161Y-80069819D01*
X251451066Y-80974580D02*
X251498685Y-81022200D01*
X251498685Y-81022200D02*
X251451066Y-81069819D01*
X251451066Y-81069819D02*
X251403447Y-81022200D01*
X251403447Y-81022200D02*
X251451066Y-80974580D01*
X251451066Y-80974580D02*
X251451066Y-81069819D01*
X251832018Y-80069819D02*
X252451065Y-80069819D01*
X252451065Y-80069819D02*
X252117732Y-80450771D01*
X252117732Y-80450771D02*
X252260589Y-80450771D01*
X252260589Y-80450771D02*
X252355827Y-80498390D01*
X252355827Y-80498390D02*
X252403446Y-80546009D01*
X252403446Y-80546009D02*
X252451065Y-80641247D01*
X252451065Y-80641247D02*
X252451065Y-80879342D01*
X252451065Y-80879342D02*
X252403446Y-80974580D01*
X252403446Y-80974580D02*
X252355827Y-81022200D01*
X252355827Y-81022200D02*
X252260589Y-81069819D01*
X252260589Y-81069819D02*
X251974875Y-81069819D01*
X251974875Y-81069819D02*
X251879637Y-81022200D01*
X251879637Y-81022200D02*
X251832018Y-80974580D01*
X253308208Y-81069819D02*
X253308208Y-80546009D01*
X253308208Y-80546009D02*
X253260589Y-80450771D01*
X253260589Y-80450771D02*
X253165351Y-80403152D01*
X253165351Y-80403152D02*
X252974875Y-80403152D01*
X252974875Y-80403152D02*
X252879637Y-80450771D01*
X253308208Y-81022200D02*
X253212970Y-81069819D01*
X253212970Y-81069819D02*
X252974875Y-81069819D01*
X252974875Y-81069819D02*
X252879637Y-81022200D01*
X252879637Y-81022200D02*
X252832018Y-80926961D01*
X252832018Y-80926961D02*
X252832018Y-80831723D01*
X252832018Y-80831723D02*
X252879637Y-80736485D01*
X252879637Y-80736485D02*
X252974875Y-80688866D01*
X252974875Y-80688866D02*
X253212970Y-80688866D01*
X253212970Y-80688866D02*
X253308208Y-80641247D01*
X136710819Y-88761904D02*
X137520342Y-88761904D01*
X137520342Y-88761904D02*
X137615580Y-88714285D01*
X137615580Y-88714285D02*
X137663200Y-88666666D01*
X137663200Y-88666666D02*
X137710819Y-88571428D01*
X137710819Y-88571428D02*
X137710819Y-88380952D01*
X137710819Y-88380952D02*
X137663200Y-88285714D01*
X137663200Y-88285714D02*
X137615580Y-88238095D01*
X137615580Y-88238095D02*
X137520342Y-88190476D01*
X137520342Y-88190476D02*
X136710819Y-88190476D01*
X137710819Y-87190476D02*
X137710819Y-87761904D01*
X137710819Y-87476190D02*
X136710819Y-87476190D01*
X136710819Y-87476190D02*
X136853676Y-87571428D01*
X136853676Y-87571428D02*
X136948914Y-87666666D01*
X136948914Y-87666666D02*
X136996533Y-87761904D01*
X112896190Y-88454819D02*
X112896190Y-87454819D01*
X112896190Y-87454819D02*
X113277142Y-87454819D01*
X113277142Y-87454819D02*
X113372380Y-87502438D01*
X113372380Y-87502438D02*
X113419999Y-87550057D01*
X113419999Y-87550057D02*
X113467618Y-87645295D01*
X113467618Y-87645295D02*
X113467618Y-87788152D01*
X113467618Y-87788152D02*
X113419999Y-87883390D01*
X113419999Y-87883390D02*
X113372380Y-87931009D01*
X113372380Y-87931009D02*
X113277142Y-87978628D01*
X113277142Y-87978628D02*
X112896190Y-87978628D01*
X113896190Y-88454819D02*
X113896190Y-87788152D01*
X113896190Y-87978628D02*
X113943809Y-87883390D01*
X113943809Y-87883390D02*
X113991428Y-87835771D01*
X113991428Y-87835771D02*
X114086666Y-87788152D01*
X114086666Y-87788152D02*
X114181904Y-87788152D01*
X114658095Y-88454819D02*
X114562857Y-88407200D01*
X114562857Y-88407200D02*
X114515238Y-88359580D01*
X114515238Y-88359580D02*
X114467619Y-88264342D01*
X114467619Y-88264342D02*
X114467619Y-87978628D01*
X114467619Y-87978628D02*
X114515238Y-87883390D01*
X114515238Y-87883390D02*
X114562857Y-87835771D01*
X114562857Y-87835771D02*
X114658095Y-87788152D01*
X114658095Y-87788152D02*
X114800952Y-87788152D01*
X114800952Y-87788152D02*
X114896190Y-87835771D01*
X114896190Y-87835771D02*
X114943809Y-87883390D01*
X114943809Y-87883390D02*
X114991428Y-87978628D01*
X114991428Y-87978628D02*
X114991428Y-88264342D01*
X114991428Y-88264342D02*
X114943809Y-88359580D01*
X114943809Y-88359580D02*
X114896190Y-88407200D01*
X114896190Y-88407200D02*
X114800952Y-88454819D01*
X114800952Y-88454819D02*
X114658095Y-88454819D01*
X115420000Y-88454819D02*
X115420000Y-87454819D01*
X115420000Y-87454819D02*
X115753333Y-88169104D01*
X115753333Y-88169104D02*
X116086666Y-87454819D01*
X116086666Y-87454819D02*
X116086666Y-88454819D01*
X116562857Y-88454819D02*
X116562857Y-87788152D01*
X116562857Y-87454819D02*
X116515238Y-87502438D01*
X116515238Y-87502438D02*
X116562857Y-87550057D01*
X116562857Y-87550057D02*
X116610476Y-87502438D01*
X116610476Y-87502438D02*
X116562857Y-87454819D01*
X116562857Y-87454819D02*
X116562857Y-87550057D01*
X117467618Y-88407200D02*
X117372380Y-88454819D01*
X117372380Y-88454819D02*
X117181904Y-88454819D01*
X117181904Y-88454819D02*
X117086666Y-88407200D01*
X117086666Y-88407200D02*
X117039047Y-88359580D01*
X117039047Y-88359580D02*
X116991428Y-88264342D01*
X116991428Y-88264342D02*
X116991428Y-87978628D01*
X116991428Y-87978628D02*
X117039047Y-87883390D01*
X117039047Y-87883390D02*
X117086666Y-87835771D01*
X117086666Y-87835771D02*
X117181904Y-87788152D01*
X117181904Y-87788152D02*
X117372380Y-87788152D01*
X117372380Y-87788152D02*
X117467618Y-87835771D01*
X117896190Y-88454819D02*
X117896190Y-87788152D01*
X117896190Y-87978628D02*
X117943809Y-87883390D01*
X117943809Y-87883390D02*
X117991428Y-87835771D01*
X117991428Y-87835771D02*
X118086666Y-87788152D01*
X118086666Y-87788152D02*
X118181904Y-87788152D01*
X118658095Y-88454819D02*
X118562857Y-88407200D01*
X118562857Y-88407200D02*
X118515238Y-88359580D01*
X118515238Y-88359580D02*
X118467619Y-88264342D01*
X118467619Y-88264342D02*
X118467619Y-87978628D01*
X118467619Y-87978628D02*
X118515238Y-87883390D01*
X118515238Y-87883390D02*
X118562857Y-87835771D01*
X118562857Y-87835771D02*
X118658095Y-87788152D01*
X118658095Y-87788152D02*
X118800952Y-87788152D01*
X118800952Y-87788152D02*
X118896190Y-87835771D01*
X118896190Y-87835771D02*
X118943809Y-87883390D01*
X118943809Y-87883390D02*
X118991428Y-87978628D01*
X118991428Y-87978628D02*
X118991428Y-88264342D01*
X118991428Y-88264342D02*
X118943809Y-88359580D01*
X118943809Y-88359580D02*
X118896190Y-88407200D01*
X118896190Y-88407200D02*
X118800952Y-88454819D01*
X118800952Y-88454819D02*
X118658095Y-88454819D01*
X244666667Y-59533200D02*
X244809524Y-59580819D01*
X244809524Y-59580819D02*
X245047619Y-59580819D01*
X245047619Y-59580819D02*
X245142857Y-59533200D01*
X245142857Y-59533200D02*
X245190476Y-59485580D01*
X245190476Y-59485580D02*
X245238095Y-59390342D01*
X245238095Y-59390342D02*
X245238095Y-59295104D01*
X245238095Y-59295104D02*
X245190476Y-59199866D01*
X245190476Y-59199866D02*
X245142857Y-59152247D01*
X245142857Y-59152247D02*
X245047619Y-59104628D01*
X245047619Y-59104628D02*
X244857143Y-59057009D01*
X244857143Y-59057009D02*
X244761905Y-59009390D01*
X244761905Y-59009390D02*
X244714286Y-58961771D01*
X244714286Y-58961771D02*
X244666667Y-58866533D01*
X244666667Y-58866533D02*
X244666667Y-58771295D01*
X244666667Y-58771295D02*
X244714286Y-58676057D01*
X244714286Y-58676057D02*
X244761905Y-58628438D01*
X244761905Y-58628438D02*
X244857143Y-58580819D01*
X244857143Y-58580819D02*
X245095238Y-58580819D01*
X245095238Y-58580819D02*
X245238095Y-58628438D01*
X245571429Y-58580819D02*
X245809524Y-59580819D01*
X245809524Y-59580819D02*
X246000000Y-58866533D01*
X246000000Y-58866533D02*
X246190476Y-59580819D01*
X246190476Y-59580819D02*
X246428572Y-58580819D01*
X247238095Y-58580819D02*
X247047619Y-58580819D01*
X247047619Y-58580819D02*
X246952381Y-58628438D01*
X246952381Y-58628438D02*
X246904762Y-58676057D01*
X246904762Y-58676057D02*
X246809524Y-58818914D01*
X246809524Y-58818914D02*
X246761905Y-59009390D01*
X246761905Y-59009390D02*
X246761905Y-59390342D01*
X246761905Y-59390342D02*
X246809524Y-59485580D01*
X246809524Y-59485580D02*
X246857143Y-59533200D01*
X246857143Y-59533200D02*
X246952381Y-59580819D01*
X246952381Y-59580819D02*
X247142857Y-59580819D01*
X247142857Y-59580819D02*
X247238095Y-59533200D01*
X247238095Y-59533200D02*
X247285714Y-59485580D01*
X247285714Y-59485580D02*
X247333333Y-59390342D01*
X247333333Y-59390342D02*
X247333333Y-59152247D01*
X247333333Y-59152247D02*
X247285714Y-59057009D01*
X247285714Y-59057009D02*
X247238095Y-59009390D01*
X247238095Y-59009390D02*
X247142857Y-58961771D01*
X247142857Y-58961771D02*
X246952381Y-58961771D01*
X246952381Y-58961771D02*
X246857143Y-59009390D01*
X246857143Y-59009390D02*
X246809524Y-59057009D01*
X246809524Y-59057009D02*
X246761905Y-59152247D01*
X225666667Y-59533200D02*
X225809524Y-59580819D01*
X225809524Y-59580819D02*
X226047619Y-59580819D01*
X226047619Y-59580819D02*
X226142857Y-59533200D01*
X226142857Y-59533200D02*
X226190476Y-59485580D01*
X226190476Y-59485580D02*
X226238095Y-59390342D01*
X226238095Y-59390342D02*
X226238095Y-59295104D01*
X226238095Y-59295104D02*
X226190476Y-59199866D01*
X226190476Y-59199866D02*
X226142857Y-59152247D01*
X226142857Y-59152247D02*
X226047619Y-59104628D01*
X226047619Y-59104628D02*
X225857143Y-59057009D01*
X225857143Y-59057009D02*
X225761905Y-59009390D01*
X225761905Y-59009390D02*
X225714286Y-58961771D01*
X225714286Y-58961771D02*
X225666667Y-58866533D01*
X225666667Y-58866533D02*
X225666667Y-58771295D01*
X225666667Y-58771295D02*
X225714286Y-58676057D01*
X225714286Y-58676057D02*
X225761905Y-58628438D01*
X225761905Y-58628438D02*
X225857143Y-58580819D01*
X225857143Y-58580819D02*
X226095238Y-58580819D01*
X226095238Y-58580819D02*
X226238095Y-58628438D01*
X226571429Y-58580819D02*
X226809524Y-59580819D01*
X226809524Y-59580819D02*
X227000000Y-58866533D01*
X227000000Y-58866533D02*
X227190476Y-59580819D01*
X227190476Y-59580819D02*
X227428572Y-58580819D01*
X227714286Y-58580819D02*
X228380952Y-58580819D01*
X228380952Y-58580819D02*
X227952381Y-59580819D01*
X206666667Y-59533200D02*
X206809524Y-59580819D01*
X206809524Y-59580819D02*
X207047619Y-59580819D01*
X207047619Y-59580819D02*
X207142857Y-59533200D01*
X207142857Y-59533200D02*
X207190476Y-59485580D01*
X207190476Y-59485580D02*
X207238095Y-59390342D01*
X207238095Y-59390342D02*
X207238095Y-59295104D01*
X207238095Y-59295104D02*
X207190476Y-59199866D01*
X207190476Y-59199866D02*
X207142857Y-59152247D01*
X207142857Y-59152247D02*
X207047619Y-59104628D01*
X207047619Y-59104628D02*
X206857143Y-59057009D01*
X206857143Y-59057009D02*
X206761905Y-59009390D01*
X206761905Y-59009390D02*
X206714286Y-58961771D01*
X206714286Y-58961771D02*
X206666667Y-58866533D01*
X206666667Y-58866533D02*
X206666667Y-58771295D01*
X206666667Y-58771295D02*
X206714286Y-58676057D01*
X206714286Y-58676057D02*
X206761905Y-58628438D01*
X206761905Y-58628438D02*
X206857143Y-58580819D01*
X206857143Y-58580819D02*
X207095238Y-58580819D01*
X207095238Y-58580819D02*
X207238095Y-58628438D01*
X207571429Y-58580819D02*
X207809524Y-59580819D01*
X207809524Y-59580819D02*
X208000000Y-58866533D01*
X208000000Y-58866533D02*
X208190476Y-59580819D01*
X208190476Y-59580819D02*
X208428572Y-58580819D01*
X208952381Y-59009390D02*
X208857143Y-58961771D01*
X208857143Y-58961771D02*
X208809524Y-58914152D01*
X208809524Y-58914152D02*
X208761905Y-58818914D01*
X208761905Y-58818914D02*
X208761905Y-58771295D01*
X208761905Y-58771295D02*
X208809524Y-58676057D01*
X208809524Y-58676057D02*
X208857143Y-58628438D01*
X208857143Y-58628438D02*
X208952381Y-58580819D01*
X208952381Y-58580819D02*
X209142857Y-58580819D01*
X209142857Y-58580819D02*
X209238095Y-58628438D01*
X209238095Y-58628438D02*
X209285714Y-58676057D01*
X209285714Y-58676057D02*
X209333333Y-58771295D01*
X209333333Y-58771295D02*
X209333333Y-58818914D01*
X209333333Y-58818914D02*
X209285714Y-58914152D01*
X209285714Y-58914152D02*
X209238095Y-58961771D01*
X209238095Y-58961771D02*
X209142857Y-59009390D01*
X209142857Y-59009390D02*
X208952381Y-59009390D01*
X208952381Y-59009390D02*
X208857143Y-59057009D01*
X208857143Y-59057009D02*
X208809524Y-59104628D01*
X208809524Y-59104628D02*
X208761905Y-59199866D01*
X208761905Y-59199866D02*
X208761905Y-59390342D01*
X208761905Y-59390342D02*
X208809524Y-59485580D01*
X208809524Y-59485580D02*
X208857143Y-59533200D01*
X208857143Y-59533200D02*
X208952381Y-59580819D01*
X208952381Y-59580819D02*
X209142857Y-59580819D01*
X209142857Y-59580819D02*
X209238095Y-59533200D01*
X209238095Y-59533200D02*
X209285714Y-59485580D01*
X209285714Y-59485580D02*
X209333333Y-59390342D01*
X209333333Y-59390342D02*
X209333333Y-59199866D01*
X209333333Y-59199866D02*
X209285714Y-59104628D01*
X209285714Y-59104628D02*
X209238095Y-59057009D01*
X209238095Y-59057009D02*
X209142857Y-59009390D01*
X187666667Y-59533200D02*
X187809524Y-59580819D01*
X187809524Y-59580819D02*
X188047619Y-59580819D01*
X188047619Y-59580819D02*
X188142857Y-59533200D01*
X188142857Y-59533200D02*
X188190476Y-59485580D01*
X188190476Y-59485580D02*
X188238095Y-59390342D01*
X188238095Y-59390342D02*
X188238095Y-59295104D01*
X188238095Y-59295104D02*
X188190476Y-59199866D01*
X188190476Y-59199866D02*
X188142857Y-59152247D01*
X188142857Y-59152247D02*
X188047619Y-59104628D01*
X188047619Y-59104628D02*
X187857143Y-59057009D01*
X187857143Y-59057009D02*
X187761905Y-59009390D01*
X187761905Y-59009390D02*
X187714286Y-58961771D01*
X187714286Y-58961771D02*
X187666667Y-58866533D01*
X187666667Y-58866533D02*
X187666667Y-58771295D01*
X187666667Y-58771295D02*
X187714286Y-58676057D01*
X187714286Y-58676057D02*
X187761905Y-58628438D01*
X187761905Y-58628438D02*
X187857143Y-58580819D01*
X187857143Y-58580819D02*
X188095238Y-58580819D01*
X188095238Y-58580819D02*
X188238095Y-58628438D01*
X188571429Y-58580819D02*
X188809524Y-59580819D01*
X188809524Y-59580819D02*
X189000000Y-58866533D01*
X189000000Y-58866533D02*
X189190476Y-59580819D01*
X189190476Y-59580819D02*
X189428572Y-58580819D01*
X189857143Y-59580819D02*
X190047619Y-59580819D01*
X190047619Y-59580819D02*
X190142857Y-59533200D01*
X190142857Y-59533200D02*
X190190476Y-59485580D01*
X190190476Y-59485580D02*
X190285714Y-59342723D01*
X190285714Y-59342723D02*
X190333333Y-59152247D01*
X190333333Y-59152247D02*
X190333333Y-58771295D01*
X190333333Y-58771295D02*
X190285714Y-58676057D01*
X190285714Y-58676057D02*
X190238095Y-58628438D01*
X190238095Y-58628438D02*
X190142857Y-58580819D01*
X190142857Y-58580819D02*
X189952381Y-58580819D01*
X189952381Y-58580819D02*
X189857143Y-58628438D01*
X189857143Y-58628438D02*
X189809524Y-58676057D01*
X189809524Y-58676057D02*
X189761905Y-58771295D01*
X189761905Y-58771295D02*
X189761905Y-59009390D01*
X189761905Y-59009390D02*
X189809524Y-59104628D01*
X189809524Y-59104628D02*
X189857143Y-59152247D01*
X189857143Y-59152247D02*
X189952381Y-59199866D01*
X189952381Y-59199866D02*
X190142857Y-59199866D01*
X190142857Y-59199866D02*
X190238095Y-59152247D01*
X190238095Y-59152247D02*
X190285714Y-59104628D01*
X190285714Y-59104628D02*
X190333333Y-59009390D01*
X168190476Y-59533200D02*
X168333333Y-59580819D01*
X168333333Y-59580819D02*
X168571428Y-59580819D01*
X168571428Y-59580819D02*
X168666666Y-59533200D01*
X168666666Y-59533200D02*
X168714285Y-59485580D01*
X168714285Y-59485580D02*
X168761904Y-59390342D01*
X168761904Y-59390342D02*
X168761904Y-59295104D01*
X168761904Y-59295104D02*
X168714285Y-59199866D01*
X168714285Y-59199866D02*
X168666666Y-59152247D01*
X168666666Y-59152247D02*
X168571428Y-59104628D01*
X168571428Y-59104628D02*
X168380952Y-59057009D01*
X168380952Y-59057009D02*
X168285714Y-59009390D01*
X168285714Y-59009390D02*
X168238095Y-58961771D01*
X168238095Y-58961771D02*
X168190476Y-58866533D01*
X168190476Y-58866533D02*
X168190476Y-58771295D01*
X168190476Y-58771295D02*
X168238095Y-58676057D01*
X168238095Y-58676057D02*
X168285714Y-58628438D01*
X168285714Y-58628438D02*
X168380952Y-58580819D01*
X168380952Y-58580819D02*
X168619047Y-58580819D01*
X168619047Y-58580819D02*
X168761904Y-58628438D01*
X169095238Y-58580819D02*
X169333333Y-59580819D01*
X169333333Y-59580819D02*
X169523809Y-58866533D01*
X169523809Y-58866533D02*
X169714285Y-59580819D01*
X169714285Y-59580819D02*
X169952381Y-58580819D01*
X170857142Y-59580819D02*
X170285714Y-59580819D01*
X170571428Y-59580819D02*
X170571428Y-58580819D01*
X170571428Y-58580819D02*
X170476190Y-58723676D01*
X170476190Y-58723676D02*
X170380952Y-58818914D01*
X170380952Y-58818914D02*
X170285714Y-58866533D01*
X171476190Y-58580819D02*
X171571428Y-58580819D01*
X171571428Y-58580819D02*
X171666666Y-58628438D01*
X171666666Y-58628438D02*
X171714285Y-58676057D01*
X171714285Y-58676057D02*
X171761904Y-58771295D01*
X171761904Y-58771295D02*
X171809523Y-58961771D01*
X171809523Y-58961771D02*
X171809523Y-59199866D01*
X171809523Y-59199866D02*
X171761904Y-59390342D01*
X171761904Y-59390342D02*
X171714285Y-59485580D01*
X171714285Y-59485580D02*
X171666666Y-59533200D01*
X171666666Y-59533200D02*
X171571428Y-59580819D01*
X171571428Y-59580819D02*
X171476190Y-59580819D01*
X171476190Y-59580819D02*
X171380952Y-59533200D01*
X171380952Y-59533200D02*
X171333333Y-59485580D01*
X171333333Y-59485580D02*
X171285714Y-59390342D01*
X171285714Y-59390342D02*
X171238095Y-59199866D01*
X171238095Y-59199866D02*
X171238095Y-58961771D01*
X171238095Y-58961771D02*
X171285714Y-58771295D01*
X171285714Y-58771295D02*
X171333333Y-58676057D01*
X171333333Y-58676057D02*
X171380952Y-58628438D01*
X171380952Y-58628438D02*
X171476190Y-58580819D01*
X111110476Y-59533200D02*
X111253333Y-59580819D01*
X111253333Y-59580819D02*
X111491428Y-59580819D01*
X111491428Y-59580819D02*
X111586666Y-59533200D01*
X111586666Y-59533200D02*
X111634285Y-59485580D01*
X111634285Y-59485580D02*
X111681904Y-59390342D01*
X111681904Y-59390342D02*
X111681904Y-59295104D01*
X111681904Y-59295104D02*
X111634285Y-59199866D01*
X111634285Y-59199866D02*
X111586666Y-59152247D01*
X111586666Y-59152247D02*
X111491428Y-59104628D01*
X111491428Y-59104628D02*
X111300952Y-59057009D01*
X111300952Y-59057009D02*
X111205714Y-59009390D01*
X111205714Y-59009390D02*
X111158095Y-58961771D01*
X111158095Y-58961771D02*
X111110476Y-58866533D01*
X111110476Y-58866533D02*
X111110476Y-58771295D01*
X111110476Y-58771295D02*
X111158095Y-58676057D01*
X111158095Y-58676057D02*
X111205714Y-58628438D01*
X111205714Y-58628438D02*
X111300952Y-58580819D01*
X111300952Y-58580819D02*
X111539047Y-58580819D01*
X111539047Y-58580819D02*
X111681904Y-58628438D01*
X112015238Y-58580819D02*
X112253333Y-59580819D01*
X112253333Y-59580819D02*
X112443809Y-58866533D01*
X112443809Y-58866533D02*
X112634285Y-59580819D01*
X112634285Y-59580819D02*
X112872381Y-58580819D01*
X113777142Y-59580819D02*
X113205714Y-59580819D01*
X113491428Y-59580819D02*
X113491428Y-58580819D01*
X113491428Y-58580819D02*
X113396190Y-58723676D01*
X113396190Y-58723676D02*
X113300952Y-58818914D01*
X113300952Y-58818914D02*
X113205714Y-58866533D01*
X114110476Y-58580819D02*
X114729523Y-58580819D01*
X114729523Y-58580819D02*
X114396190Y-58961771D01*
X114396190Y-58961771D02*
X114539047Y-58961771D01*
X114539047Y-58961771D02*
X114634285Y-59009390D01*
X114634285Y-59009390D02*
X114681904Y-59057009D01*
X114681904Y-59057009D02*
X114729523Y-59152247D01*
X114729523Y-59152247D02*
X114729523Y-59390342D01*
X114729523Y-59390342D02*
X114681904Y-59485580D01*
X114681904Y-59485580D02*
X114634285Y-59533200D01*
X114634285Y-59533200D02*
X114539047Y-59580819D01*
X114539047Y-59580819D02*
X114253333Y-59580819D01*
X114253333Y-59580819D02*
X114158095Y-59533200D01*
X114158095Y-59533200D02*
X114110476Y-59485580D01*
X130190476Y-59533200D02*
X130333333Y-59580819D01*
X130333333Y-59580819D02*
X130571428Y-59580819D01*
X130571428Y-59580819D02*
X130666666Y-59533200D01*
X130666666Y-59533200D02*
X130714285Y-59485580D01*
X130714285Y-59485580D02*
X130761904Y-59390342D01*
X130761904Y-59390342D02*
X130761904Y-59295104D01*
X130761904Y-59295104D02*
X130714285Y-59199866D01*
X130714285Y-59199866D02*
X130666666Y-59152247D01*
X130666666Y-59152247D02*
X130571428Y-59104628D01*
X130571428Y-59104628D02*
X130380952Y-59057009D01*
X130380952Y-59057009D02*
X130285714Y-59009390D01*
X130285714Y-59009390D02*
X130238095Y-58961771D01*
X130238095Y-58961771D02*
X130190476Y-58866533D01*
X130190476Y-58866533D02*
X130190476Y-58771295D01*
X130190476Y-58771295D02*
X130238095Y-58676057D01*
X130238095Y-58676057D02*
X130285714Y-58628438D01*
X130285714Y-58628438D02*
X130380952Y-58580819D01*
X130380952Y-58580819D02*
X130619047Y-58580819D01*
X130619047Y-58580819D02*
X130761904Y-58628438D01*
X131095238Y-58580819D02*
X131333333Y-59580819D01*
X131333333Y-59580819D02*
X131523809Y-58866533D01*
X131523809Y-58866533D02*
X131714285Y-59580819D01*
X131714285Y-59580819D02*
X131952381Y-58580819D01*
X132857142Y-59580819D02*
X132285714Y-59580819D01*
X132571428Y-59580819D02*
X132571428Y-58580819D01*
X132571428Y-58580819D02*
X132476190Y-58723676D01*
X132476190Y-58723676D02*
X132380952Y-58818914D01*
X132380952Y-58818914D02*
X132285714Y-58866533D01*
X133238095Y-58676057D02*
X133285714Y-58628438D01*
X133285714Y-58628438D02*
X133380952Y-58580819D01*
X133380952Y-58580819D02*
X133619047Y-58580819D01*
X133619047Y-58580819D02*
X133714285Y-58628438D01*
X133714285Y-58628438D02*
X133761904Y-58676057D01*
X133761904Y-58676057D02*
X133809523Y-58771295D01*
X133809523Y-58771295D02*
X133809523Y-58866533D01*
X133809523Y-58866533D02*
X133761904Y-59009390D01*
X133761904Y-59009390D02*
X133190476Y-59580819D01*
X133190476Y-59580819D02*
X133809523Y-59580819D01*
X149190476Y-59533200D02*
X149333333Y-59580819D01*
X149333333Y-59580819D02*
X149571428Y-59580819D01*
X149571428Y-59580819D02*
X149666666Y-59533200D01*
X149666666Y-59533200D02*
X149714285Y-59485580D01*
X149714285Y-59485580D02*
X149761904Y-59390342D01*
X149761904Y-59390342D02*
X149761904Y-59295104D01*
X149761904Y-59295104D02*
X149714285Y-59199866D01*
X149714285Y-59199866D02*
X149666666Y-59152247D01*
X149666666Y-59152247D02*
X149571428Y-59104628D01*
X149571428Y-59104628D02*
X149380952Y-59057009D01*
X149380952Y-59057009D02*
X149285714Y-59009390D01*
X149285714Y-59009390D02*
X149238095Y-58961771D01*
X149238095Y-58961771D02*
X149190476Y-58866533D01*
X149190476Y-58866533D02*
X149190476Y-58771295D01*
X149190476Y-58771295D02*
X149238095Y-58676057D01*
X149238095Y-58676057D02*
X149285714Y-58628438D01*
X149285714Y-58628438D02*
X149380952Y-58580819D01*
X149380952Y-58580819D02*
X149619047Y-58580819D01*
X149619047Y-58580819D02*
X149761904Y-58628438D01*
X150095238Y-58580819D02*
X150333333Y-59580819D01*
X150333333Y-59580819D02*
X150523809Y-58866533D01*
X150523809Y-58866533D02*
X150714285Y-59580819D01*
X150714285Y-59580819D02*
X150952381Y-58580819D01*
X151857142Y-59580819D02*
X151285714Y-59580819D01*
X151571428Y-59580819D02*
X151571428Y-58580819D01*
X151571428Y-58580819D02*
X151476190Y-58723676D01*
X151476190Y-58723676D02*
X151380952Y-58818914D01*
X151380952Y-58818914D02*
X151285714Y-58866533D01*
X152809523Y-59580819D02*
X152238095Y-59580819D01*
X152523809Y-59580819D02*
X152523809Y-58580819D01*
X152523809Y-58580819D02*
X152428571Y-58723676D01*
X152428571Y-58723676D02*
X152333333Y-58818914D01*
X152333333Y-58818914D02*
X152238095Y-58866533D01*
X145916667Y-85907200D02*
X146059524Y-85954819D01*
X146059524Y-85954819D02*
X146297619Y-85954819D01*
X146297619Y-85954819D02*
X146392857Y-85907200D01*
X146392857Y-85907200D02*
X146440476Y-85859580D01*
X146440476Y-85859580D02*
X146488095Y-85764342D01*
X146488095Y-85764342D02*
X146488095Y-85669104D01*
X146488095Y-85669104D02*
X146440476Y-85573866D01*
X146440476Y-85573866D02*
X146392857Y-85526247D01*
X146392857Y-85526247D02*
X146297619Y-85478628D01*
X146297619Y-85478628D02*
X146107143Y-85431009D01*
X146107143Y-85431009D02*
X146011905Y-85383390D01*
X146011905Y-85383390D02*
X145964286Y-85335771D01*
X145964286Y-85335771D02*
X145916667Y-85240533D01*
X145916667Y-85240533D02*
X145916667Y-85145295D01*
X145916667Y-85145295D02*
X145964286Y-85050057D01*
X145964286Y-85050057D02*
X146011905Y-85002438D01*
X146011905Y-85002438D02*
X146107143Y-84954819D01*
X146107143Y-84954819D02*
X146345238Y-84954819D01*
X146345238Y-84954819D02*
X146488095Y-85002438D01*
X146821429Y-84954819D02*
X147059524Y-85954819D01*
X147059524Y-85954819D02*
X147250000Y-85240533D01*
X147250000Y-85240533D02*
X147440476Y-85954819D01*
X147440476Y-85954819D02*
X147678572Y-84954819D01*
X148583333Y-85954819D02*
X148011905Y-85954819D01*
X148297619Y-85954819D02*
X148297619Y-84954819D01*
X148297619Y-84954819D02*
X148202381Y-85097676D01*
X148202381Y-85097676D02*
X148107143Y-85192914D01*
X148107143Y-85192914D02*
X148011905Y-85240533D01*
X146297618Y-94654819D02*
X145964285Y-94178628D01*
X145726190Y-94654819D02*
X145726190Y-93654819D01*
X145726190Y-93654819D02*
X146107142Y-93654819D01*
X146107142Y-93654819D02*
X146202380Y-93702438D01*
X146202380Y-93702438D02*
X146249999Y-93750057D01*
X146249999Y-93750057D02*
X146297618Y-93845295D01*
X146297618Y-93845295D02*
X146297618Y-93988152D01*
X146297618Y-93988152D02*
X146249999Y-94083390D01*
X146249999Y-94083390D02*
X146202380Y-94131009D01*
X146202380Y-94131009D02*
X146107142Y-94178628D01*
X146107142Y-94178628D02*
X145726190Y-94178628D01*
X146726190Y-94131009D02*
X147059523Y-94131009D01*
X147202380Y-94654819D02*
X146726190Y-94654819D01*
X146726190Y-94654819D02*
X146726190Y-93654819D01*
X146726190Y-93654819D02*
X147202380Y-93654819D01*
X147583333Y-94607200D02*
X147726190Y-94654819D01*
X147726190Y-94654819D02*
X147964285Y-94654819D01*
X147964285Y-94654819D02*
X148059523Y-94607200D01*
X148059523Y-94607200D02*
X148107142Y-94559580D01*
X148107142Y-94559580D02*
X148154761Y-94464342D01*
X148154761Y-94464342D02*
X148154761Y-94369104D01*
X148154761Y-94369104D02*
X148107142Y-94273866D01*
X148107142Y-94273866D02*
X148059523Y-94226247D01*
X148059523Y-94226247D02*
X147964285Y-94178628D01*
X147964285Y-94178628D02*
X147773809Y-94131009D01*
X147773809Y-94131009D02*
X147678571Y-94083390D01*
X147678571Y-94083390D02*
X147630952Y-94035771D01*
X147630952Y-94035771D02*
X147583333Y-93940533D01*
X147583333Y-93940533D02*
X147583333Y-93845295D01*
X147583333Y-93845295D02*
X147630952Y-93750057D01*
X147630952Y-93750057D02*
X147678571Y-93702438D01*
X147678571Y-93702438D02*
X147773809Y-93654819D01*
X147773809Y-93654819D02*
X148011904Y-93654819D01*
X148011904Y-93654819D02*
X148154761Y-93702438D01*
X148583333Y-94131009D02*
X148916666Y-94131009D01*
X149059523Y-94654819D02*
X148583333Y-94654819D01*
X148583333Y-94654819D02*
X148583333Y-93654819D01*
X148583333Y-93654819D02*
X149059523Y-93654819D01*
X149345238Y-93654819D02*
X149916666Y-93654819D01*
X149630952Y-94654819D02*
X149630952Y-93654819D01*
X190807200Y-117033332D02*
X190854819Y-116890475D01*
X190854819Y-116890475D02*
X190854819Y-116652380D01*
X190854819Y-116652380D02*
X190807200Y-116557142D01*
X190807200Y-116557142D02*
X190759580Y-116509523D01*
X190759580Y-116509523D02*
X190664342Y-116461904D01*
X190664342Y-116461904D02*
X190569104Y-116461904D01*
X190569104Y-116461904D02*
X190473866Y-116509523D01*
X190473866Y-116509523D02*
X190426247Y-116557142D01*
X190426247Y-116557142D02*
X190378628Y-116652380D01*
X190378628Y-116652380D02*
X190331009Y-116842856D01*
X190331009Y-116842856D02*
X190283390Y-116938094D01*
X190283390Y-116938094D02*
X190235771Y-116985713D01*
X190235771Y-116985713D02*
X190140533Y-117033332D01*
X190140533Y-117033332D02*
X190045295Y-117033332D01*
X190045295Y-117033332D02*
X189950057Y-116985713D01*
X189950057Y-116985713D02*
X189902438Y-116938094D01*
X189902438Y-116938094D02*
X189854819Y-116842856D01*
X189854819Y-116842856D02*
X189854819Y-116604761D01*
X189854819Y-116604761D02*
X189902438Y-116461904D01*
X189854819Y-116128570D02*
X190854819Y-115890475D01*
X190854819Y-115890475D02*
X190140533Y-115699999D01*
X190140533Y-115699999D02*
X190854819Y-115509523D01*
X190854819Y-115509523D02*
X189854819Y-115271428D01*
X190188152Y-114461904D02*
X190854819Y-114461904D01*
X189807200Y-114699999D02*
X190521485Y-114938094D01*
X190521485Y-114938094D02*
X190521485Y-114319047D01*
X110807200Y-117033332D02*
X110854819Y-116890475D01*
X110854819Y-116890475D02*
X110854819Y-116652380D01*
X110854819Y-116652380D02*
X110807200Y-116557142D01*
X110807200Y-116557142D02*
X110759580Y-116509523D01*
X110759580Y-116509523D02*
X110664342Y-116461904D01*
X110664342Y-116461904D02*
X110569104Y-116461904D01*
X110569104Y-116461904D02*
X110473866Y-116509523D01*
X110473866Y-116509523D02*
X110426247Y-116557142D01*
X110426247Y-116557142D02*
X110378628Y-116652380D01*
X110378628Y-116652380D02*
X110331009Y-116842856D01*
X110331009Y-116842856D02*
X110283390Y-116938094D01*
X110283390Y-116938094D02*
X110235771Y-116985713D01*
X110235771Y-116985713D02*
X110140533Y-117033332D01*
X110140533Y-117033332D02*
X110045295Y-117033332D01*
X110045295Y-117033332D02*
X109950057Y-116985713D01*
X109950057Y-116985713D02*
X109902438Y-116938094D01*
X109902438Y-116938094D02*
X109854819Y-116842856D01*
X109854819Y-116842856D02*
X109854819Y-116604761D01*
X109854819Y-116604761D02*
X109902438Y-116461904D01*
X109854819Y-116128570D02*
X110854819Y-115890475D01*
X110854819Y-115890475D02*
X110140533Y-115699999D01*
X110140533Y-115699999D02*
X110854819Y-115509523D01*
X110854819Y-115509523D02*
X109854819Y-115271428D01*
X109950057Y-114938094D02*
X109902438Y-114890475D01*
X109902438Y-114890475D02*
X109854819Y-114795237D01*
X109854819Y-114795237D02*
X109854819Y-114557142D01*
X109854819Y-114557142D02*
X109902438Y-114461904D01*
X109902438Y-114461904D02*
X109950057Y-114414285D01*
X109950057Y-114414285D02*
X110045295Y-114366666D01*
X110045295Y-114366666D02*
X110140533Y-114366666D01*
X110140533Y-114366666D02*
X110283390Y-114414285D01*
X110283390Y-114414285D02*
X110854819Y-114985713D01*
X110854819Y-114985713D02*
X110854819Y-114366666D01*
X230807200Y-117033332D02*
X230854819Y-116890475D01*
X230854819Y-116890475D02*
X230854819Y-116652380D01*
X230854819Y-116652380D02*
X230807200Y-116557142D01*
X230807200Y-116557142D02*
X230759580Y-116509523D01*
X230759580Y-116509523D02*
X230664342Y-116461904D01*
X230664342Y-116461904D02*
X230569104Y-116461904D01*
X230569104Y-116461904D02*
X230473866Y-116509523D01*
X230473866Y-116509523D02*
X230426247Y-116557142D01*
X230426247Y-116557142D02*
X230378628Y-116652380D01*
X230378628Y-116652380D02*
X230331009Y-116842856D01*
X230331009Y-116842856D02*
X230283390Y-116938094D01*
X230283390Y-116938094D02*
X230235771Y-116985713D01*
X230235771Y-116985713D02*
X230140533Y-117033332D01*
X230140533Y-117033332D02*
X230045295Y-117033332D01*
X230045295Y-117033332D02*
X229950057Y-116985713D01*
X229950057Y-116985713D02*
X229902438Y-116938094D01*
X229902438Y-116938094D02*
X229854819Y-116842856D01*
X229854819Y-116842856D02*
X229854819Y-116604761D01*
X229854819Y-116604761D02*
X229902438Y-116461904D01*
X229854819Y-116128570D02*
X230854819Y-115890475D01*
X230854819Y-115890475D02*
X230140533Y-115699999D01*
X230140533Y-115699999D02*
X230854819Y-115509523D01*
X230854819Y-115509523D02*
X229854819Y-115271428D01*
X229854819Y-114414285D02*
X229854819Y-114890475D01*
X229854819Y-114890475D02*
X230331009Y-114938094D01*
X230331009Y-114938094D02*
X230283390Y-114890475D01*
X230283390Y-114890475D02*
X230235771Y-114795237D01*
X230235771Y-114795237D02*
X230235771Y-114557142D01*
X230235771Y-114557142D02*
X230283390Y-114461904D01*
X230283390Y-114461904D02*
X230331009Y-114414285D01*
X230331009Y-114414285D02*
X230426247Y-114366666D01*
X230426247Y-114366666D02*
X230664342Y-114366666D01*
X230664342Y-114366666D02*
X230759580Y-114414285D01*
X230759580Y-114414285D02*
X230807200Y-114461904D01*
X230807200Y-114461904D02*
X230854819Y-114557142D01*
X230854819Y-114557142D02*
X230854819Y-114795237D01*
X230854819Y-114795237D02*
X230807200Y-114890475D01*
X230807200Y-114890475D02*
X230759580Y-114938094D01*
X150807200Y-117033332D02*
X150854819Y-116890475D01*
X150854819Y-116890475D02*
X150854819Y-116652380D01*
X150854819Y-116652380D02*
X150807200Y-116557142D01*
X150807200Y-116557142D02*
X150759580Y-116509523D01*
X150759580Y-116509523D02*
X150664342Y-116461904D01*
X150664342Y-116461904D02*
X150569104Y-116461904D01*
X150569104Y-116461904D02*
X150473866Y-116509523D01*
X150473866Y-116509523D02*
X150426247Y-116557142D01*
X150426247Y-116557142D02*
X150378628Y-116652380D01*
X150378628Y-116652380D02*
X150331009Y-116842856D01*
X150331009Y-116842856D02*
X150283390Y-116938094D01*
X150283390Y-116938094D02*
X150235771Y-116985713D01*
X150235771Y-116985713D02*
X150140533Y-117033332D01*
X150140533Y-117033332D02*
X150045295Y-117033332D01*
X150045295Y-117033332D02*
X149950057Y-116985713D01*
X149950057Y-116985713D02*
X149902438Y-116938094D01*
X149902438Y-116938094D02*
X149854819Y-116842856D01*
X149854819Y-116842856D02*
X149854819Y-116604761D01*
X149854819Y-116604761D02*
X149902438Y-116461904D01*
X149854819Y-116128570D02*
X150854819Y-115890475D01*
X150854819Y-115890475D02*
X150140533Y-115699999D01*
X150140533Y-115699999D02*
X150854819Y-115509523D01*
X150854819Y-115509523D02*
X149854819Y-115271428D01*
X149854819Y-114985713D02*
X149854819Y-114366666D01*
X149854819Y-114366666D02*
X150235771Y-114699999D01*
X150235771Y-114699999D02*
X150235771Y-114557142D01*
X150235771Y-114557142D02*
X150283390Y-114461904D01*
X150283390Y-114461904D02*
X150331009Y-114414285D01*
X150331009Y-114414285D02*
X150426247Y-114366666D01*
X150426247Y-114366666D02*
X150664342Y-114366666D01*
X150664342Y-114366666D02*
X150759580Y-114414285D01*
X150759580Y-114414285D02*
X150807200Y-114461904D01*
X150807200Y-114461904D02*
X150854819Y-114557142D01*
X150854819Y-114557142D02*
X150854819Y-114842856D01*
X150854819Y-114842856D02*
X150807200Y-114938094D01*
X150807200Y-114938094D02*
X150759580Y-114985713D01*
D11*
%TO.C,U1*%
X103220000Y-79110000D02*
X136240000Y-79110000D01*
X103220000Y-96890000D02*
X103220000Y-79110000D01*
X103220000Y-96890000D02*
X136240000Y-96890000D01*
X136240000Y-79110000D02*
X136240000Y-96890000D01*
X103346999Y-90031999D02*
G75*
G03*
X103220001Y-85964036I-126998J2031999D01*
G01*
%TO.C,SW6*%
X239015000Y-60015000D02*
X252985000Y-60015000D01*
X239015000Y-73985000D02*
X239015000Y-60015000D01*
X252985000Y-60015000D02*
X252985000Y-73985000D01*
X252985000Y-73985000D02*
X239015000Y-73985000D01*
%TO.C,SW7*%
X220015000Y-60015000D02*
X233985000Y-60015000D01*
X220015000Y-73985000D02*
X220015000Y-60015000D01*
X233985000Y-60015000D02*
X233985000Y-73985000D01*
X233985000Y-73985000D02*
X220015000Y-73985000D01*
%TO.C,SW8*%
X201015000Y-60015000D02*
X214985000Y-60015000D01*
X201015000Y-73985000D02*
X201015000Y-60015000D01*
X214985000Y-60015000D02*
X214985000Y-73985000D01*
X214985000Y-73985000D02*
X201015000Y-73985000D01*
%TO.C,SW9*%
X182015000Y-60015000D02*
X195985000Y-60015000D01*
X182015000Y-73985000D02*
X182015000Y-60015000D01*
X195985000Y-60015000D02*
X195985000Y-73985000D01*
X195985000Y-73985000D02*
X182015000Y-73985000D01*
%TO.C,SW10*%
X163015000Y-60015000D02*
X176985000Y-60015000D01*
X163015000Y-73985000D02*
X163015000Y-60015000D01*
X176985000Y-60015000D02*
X176985000Y-73985000D01*
X176985000Y-73985000D02*
X163015000Y-73985000D01*
%TO.C,SW13*%
X105935000Y-60015000D02*
X119905000Y-60015000D01*
X105935000Y-73985000D02*
X105935000Y-60015000D01*
X119905000Y-60015000D02*
X119905000Y-73985000D01*
X119905000Y-73985000D02*
X105935000Y-73985000D01*
%TO.C,SW12*%
X125015000Y-60015000D02*
X138985000Y-60015000D01*
X125015000Y-73985000D02*
X125015000Y-60015000D01*
X138985000Y-60015000D02*
X138985000Y-73985000D01*
X138985000Y-73985000D02*
X125015000Y-73985000D01*
%TO.C,SW11*%
X144015000Y-60015000D02*
X157985000Y-60015000D01*
X144015000Y-73985000D02*
X144015000Y-60015000D01*
X157985000Y-60015000D02*
X157985000Y-73985000D01*
X157985000Y-73985000D02*
X144015000Y-73985000D01*
%TO.C,SW1*%
X143750000Y-89000000D02*
X143750000Y-90500000D01*
X145000000Y-93000000D02*
X149500000Y-93000000D01*
X149500000Y-86500000D02*
X145000000Y-86500000D01*
X150750000Y-90500000D02*
X150750000Y-89000000D01*
%TO.C,SW4*%
X193500000Y-118800000D02*
X193500000Y-118200000D01*
X193800000Y-118500000D02*
X193500000Y-118800000D01*
X193500000Y-118200000D02*
X193800000Y-118500000D01*
X191300000Y-117700000D02*
X193800000Y-117700000D01*
X203900000Y-117700000D02*
X201100000Y-117700000D01*
X191300000Y-112900000D02*
X191300000Y-117700000D01*
X203900000Y-112800000D02*
X203900000Y-117700000D01*
X197600000Y-111500000D02*
X197600000Y-110500000D01*
X197100000Y-111000000D02*
X198100000Y-111000000D01*
X191300000Y-109200000D02*
X191300000Y-104300000D01*
X191300000Y-104300000D02*
X203900000Y-104300000D01*
X203900000Y-104300000D02*
X203900000Y-109200000D01*
X200600000Y-111000000D02*
G75*
G03*
X194600000Y-111000000I-3000000J0D01*
G01*
X194600000Y-111000000D02*
G75*
G03*
X200600000Y-111000000I3000000J0D01*
G01*
%TO.C,SW2*%
X113500000Y-118800000D02*
X113500000Y-118200000D01*
X113800000Y-118500000D02*
X113500000Y-118800000D01*
X113500000Y-118200000D02*
X113800000Y-118500000D01*
X111300000Y-117700000D02*
X113800000Y-117700000D01*
X123900000Y-117700000D02*
X121100000Y-117700000D01*
X111300000Y-112900000D02*
X111300000Y-117700000D01*
X123900000Y-112800000D02*
X123900000Y-117700000D01*
X117600000Y-111500000D02*
X117600000Y-110500000D01*
X117100000Y-111000000D02*
X118100000Y-111000000D01*
X111300000Y-109200000D02*
X111300000Y-104300000D01*
X111300000Y-104300000D02*
X123900000Y-104300000D01*
X123900000Y-104300000D02*
X123900000Y-109200000D01*
X120600000Y-111000000D02*
G75*
G03*
X114600000Y-111000000I-3000000J0D01*
G01*
X114600000Y-111000000D02*
G75*
G03*
X120600000Y-111000000I3000000J0D01*
G01*
%TO.C,SW5*%
X233500000Y-118800000D02*
X233500000Y-118200000D01*
X233800000Y-118500000D02*
X233500000Y-118800000D01*
X233500000Y-118200000D02*
X233800000Y-118500000D01*
X231300000Y-117700000D02*
X233800000Y-117700000D01*
X243900000Y-117700000D02*
X241100000Y-117700000D01*
X231300000Y-112900000D02*
X231300000Y-117700000D01*
X243900000Y-112800000D02*
X243900000Y-117700000D01*
X237600000Y-111500000D02*
X237600000Y-110500000D01*
X237100000Y-111000000D02*
X238100000Y-111000000D01*
X231300000Y-109200000D02*
X231300000Y-104300000D01*
X231300000Y-104300000D02*
X243900000Y-104300000D01*
X243900000Y-104300000D02*
X243900000Y-109200000D01*
X240600000Y-111000000D02*
G75*
G03*
X234600000Y-111000000I-3000000J0D01*
G01*
X234600000Y-111000000D02*
G75*
G03*
X240600000Y-111000000I3000000J0D01*
G01*
%TO.C,SW3*%
X153500000Y-118800000D02*
X153500000Y-118200000D01*
X153800000Y-118500000D02*
X153500000Y-118800000D01*
X153500000Y-118200000D02*
X153800000Y-118500000D01*
X151300000Y-117700000D02*
X153800000Y-117700000D01*
X163900000Y-117700000D02*
X161100000Y-117700000D01*
X151300000Y-112900000D02*
X151300000Y-117700000D01*
X163900000Y-112800000D02*
X163900000Y-117700000D01*
X157600000Y-111500000D02*
X157600000Y-110500000D01*
X157100000Y-111000000D02*
X158100000Y-111000000D01*
X151300000Y-109200000D02*
X151300000Y-104300000D01*
X151300000Y-104300000D02*
X163900000Y-104300000D01*
X163900000Y-104300000D02*
X163900000Y-109200000D01*
X160600000Y-111000000D02*
G75*
G03*
X154600000Y-111000000I-3000000J0D01*
G01*
X154600000Y-111000000D02*
G75*
G03*
X160600000Y-111000000I3000000J0D01*
G01*
%TD*%
M02*
